{
.appVersion = "1356";
copyright = "Copyright (c) 2019 ANRT. All rights reserved.";
customParameters = (
{
name = glyphOrder;
value = (
.notdef,
emspace,
enspace,
threeperemspace,
fourperemspace,
space,
thinspace,
hairspace,
A,
B,
C,
C,
D,
E,
F,
G,
H,
I,
J,
K,
K.alt,
L,
M,
N,
O,
P,
Q,
R,
S,
T,
U,
V,
W,
X,
Y,
Y.alt,
Y.alt2,
Z,
a,
b,
c,
ccedilla,
c_t,
d,
e,
f,
f_b,
f_f,
f_i,
f_l,
f_f_i,
f_f_l,
g,
h,
i,
j,
k,
l,
m,
n,
o,
p,
q,
r,
r_a,
r_o,
s,
t,
t_a,
t_i,
t_j,
t_t,
u,
v,
w,
x,
y,
z,
z.ss01,
zero,
one,
two,
three,
four,
five,
six,
seven,
eight,
nine,
ampersand,
parenleft,
parenright,
period,
colon,
comma,
semicolon,
question,
exclam,
hyphen,
quotesingle,
asterisk,
paragraph
);
},
{
name = "Use Typo Metrics";
value = 1;
},
{
name = vendorID;
value = ANRT;
},
{
name = unicodeRanges;
value = (
0
);
},
{
name = codePageRanges;
value = (
1252
);
},
{
name = openTypeOS2Type;
value = (
2
);
},
{
name = fsType;
value = (
2
);
},
{
name = description;
value = "Ptolemy, designed in Chelsea by St John Hornby, Sidney Cockerell and Emery Walker, cut in 18 pt by Edward Prince for Cervantes’ Don Quixote. Published by the Ashendene Press in 1927. The type used until 1935 is a revival of Lienhart Holl’s cut for Ptolemaeus’ Cosmographia printed in 1482 in Ulm.\012\012Type design workshop at HEAR Mulhouse, March 2015.\012\012Sources: Don Quixote, Cervantes, 1927 & Cosmographia, Ptolemaeus, 1482.\012\012Workshop participants: Jean-Luc Pinter, Aline Riou, Kyuyoun, Adrien Joufflineau, Lina Kahal, Marion Coudert, Sanchez Alix, Margaux Marques, Stéphanie Thiriet, Axel Bidault, Rafael Ribas, Louis Fouilleux, Caroline Amadei.\012\012Font designed and produced by Alexis Faudot and Rafael Ribas, directed by Jérôme Knebusch, Atelier National de Recherche Typographqiue (ANRT), Nancy.\012\012Copyright (c) 2019 ANRT. All rights reserved.";
},
{
name = licenseURL;
value = "https://opensource.org/licenses/OFL-1.1";
},
{
name = license;
value = "SIL OPEN FONT LICENSE (OFL 1.1)";
},
{

glyphs = (
{
color = 3;
glyphname = A;
lastChange = "2020-02-07 10:41:08 +0000";
layers = (
{
layerId = UUID0;
paths = (
{
closed = 1;
nodes = (
"146 0 LINE",
"146 35 LINE",
"71 35 LINE",
"186 300 LINE",
"453 300 LINE",
"595 35 LINE",
"534 35 LINE",
"534 0 LINE",
"710 0 LINE",
"710 10 LINE",
"585 241 OFFCURVE",
"462 477 OFFCURVE",
"342 710 CURVE",
"314 704 LINE",
"5 10 LINE",
"5 0 LINE"
);
},
{
closed = 1;
nodes = (
"310 585 LINE",
"435 336 LINE",
"202 336 LINE"
);
}
);
width = 715;
}
);
unicode = 0041;
},
{
color = 3;
glyphname = B;
lastChange = "2020-01-30 12:51:55 +0000";
layers = (
{
layerId = UUID0;
paths = (
{
closed = 1;
nodes = (
"531 -3 OFFCURVE",
"597 95 OFFCURVE",
"597 200 CURVE SMOOTH",
"597 311 OFFCURVE",
"511 380 OFFCURVE",
"394 396 CURVE",
"444 413 OFFCURVE",
"507 453 OFFCURVE",
"507 537 CURVE SMOOTH",
"507 627 OFFCURVE",
"420 701 OFFCURVE",
"291 701 CURVE SMOOTH",
"217 701 OFFCURVE",
"127 699 OFFCURVE",
"40 700 CURVE",
"40 665 LINE",
"93 665 LINE",
"93 35 LINE",
"52 35 LINE",
"52 0 LINE",
"138 2 OFFCURVE",
"237 -3 OFFCURVE",
"323 -3 CURVE SMOOTH"
);
},
{
closed = 1;
nodes = (
"178 359 LINE",
"213 363 OFFCURVE",
"251 364 OFFCURVE",
"288 364 CURVE SMOOTH",
"425 364 OFFCURVE",
"511 292 OFFCURVE",
"511 194 CURVE SMOOTH",
"511 97 OFFCURVE",
"444 35 OFFCURVE",
"319 35 CURVE SMOOTH",
"178 35 LINE"
);
},
{
closed = 1;
nodes = (
"220 392 OFFCURVE",
"199 393 OFFCURVE",
"178 396 CURVE",
"178 661 LINE",
"207 665 OFFCURVE",
"237 666 OFFCURVE",
"266 666 CURVE SMOOTH",
"373 666 OFFCURVE",
"426 613 OFFCURVE",
"426 530 CURVE SMOOTH",
"426 447 OFFCURVE",
"358 392 OFFCURVE",
"241 392 CURVE SMOOTH"
);
}
);
width = 627;
}
);
unicode = 0042;
},
{
color = 3;
glyphname = C;
lastChange = "2020-02-04 08:45:51 +0000";
layers = (
{
layerId = UUID0;
paths = (
{
closed = 1;
nodes = (
"502 -11 OFFCURVE",
"565 17 OFFCURVE",
"608 36 CURVE",
"609 73 OFFCURVE",
"613 103 OFFCURVE",
"617 142 CURVE",
"586 144 LINE",
"581 118 OFFCURVE",
"574 86 OFFCURVE",
"563 72 CURVE SMOOTH",
"545 53 OFFCURVE",
"494 29 OFFCURVE",
"435 29 CURVE SMOOTH",
"275 29 OFFCURVE",
"135 175 OFFCURVE",
"135 355 CURVE SMOOTH",
"135 535 OFFCURVE",
"255 670 OFFCURVE",
"435 670 CURVE SMOOTH",
"496 670 OFFCURVE",
"547 646 OFFCURVE",
"567 622 CURVE",
"571 600 OFFCURVE",
"571 577 OFFCURVE",
"571 555 CURVE",
"606 555 LINE",
"606 663 LINE",
"556 692 OFFCURVE",
"503 710 OFFCURVE",
"435 710 CURVE SMOOTH",
"225 710 OFFCURVE",
"40 564 OFFCURVE",
"40 354 CURVE SMOOTH",
"40 134 OFFCURVE",
"220 -11 OFFCURVE",
"420 -11 CURVE SMOOTH"
);
}
);
width = 652;
}
);
leftMetricsKey = O;
unicode = 0043;
},
{
color = 3;
glyphname = D;
lastChange = "2020-02-04 08:44:47 +0000";
layers = (
{
layerId = UUID0;
paths = (
{
closed = 1;
nodes = (
"541 -3 OFFCURVE",
"710 114 OFFCURVE",
"710 339 CURVE SMOOTH",
"710 578 OFFCURVE",
"541 704 OFFCURVE",
"320 704 CURVE SMOOTH",
"203 704 OFFCURVE",
"118 698 OFFCURVE",
"41 702 CURVE",
"40 667 LINE",
"95 665 LINE",
"99 463 OFFCURVE",
"99 236 OFFCURVE",
"95 34 CURVE",
"52 34 LINE",
"52 -1 LINE",
"159 -1 OFFCURVE",
"229 -3 OFFCURVE",
"356 -3 CURVE SMOOTH"
);
},
{
closed = 1;
nodes = (
"260 32 OFFCURVE",
"222 33 OFFCURVE",
"185 36 CURVE",
"181 240 OFFCURVE",
"181 465 OFFCURVE",
"185 669 CURVE",
"271 669 LINE SMOOTH",
"510 669 OFFCURVE",
"615 549 OFFCURVE",
"615 349 CURVE SMOOTH",
"615 169 OFFCURVE",
"510 32 OFFCURVE",
"297 32 CURVE SMOOTH"
);
}
);
width = 750;
}
);
rightMetricsKey = O;
unicode = 0044;
},
{
color = 3;
glyphname = E;
lastChange = "2020-01-30 12:51:55 +0000";
layers = (
{
layerId = UUID0;
paths = (
{
closed = 1;
nodes = (
"572 0 LINE",
"572 112 LINE",
"537 112 LINE",
"530 60 LINE",
"173 60 LINE",
"173 335 LINE",
"429 335 LINE",
"429 268 LINE",
"464 268 LINE",
"464 450 LINE",
"429 450 LINE",
"429 390 LINE",
"173 390 LINE",
"173 646 LINE",
"507 646 LINE",
"510 585 LINE",
"545 585 LINE",
"545 701 LINE",
"40 701 LINE",
"40 666 LINE",
"86 666 LINE",
"89 462 OFFCURVE",
"89 239 OFFCURVE",
"86 35 CURVE",
"45 35 LINE",
"45 0 LINE"
);
}
);
width = 602;
}
);
unicode = 0045;
},
{
color = 3;
glyphname = F;
lastChange = "2020-01-30 12:51:55 +0000";
layers = (
{
layerId = UUID0;
paths = (
{
closed = 1;
nodes = (
"285 0 LINE",
"285 35 LINE",
"180 35 LINE",
"180 335 LINE",
"428 335 LINE",
"430 270 LINE",
"464 270 LINE",
"464 450 LINE",
"429 450 LINE",
"427 390 LINE",
"180 390 LINE",
"180 640 LINE",
"524 640 LINE",
"524 557 LINE",
"559 557 LINE",
"558 700 LINE",
"40 700 LINE",
"40 665 LINE",
"95 665 LINE",
"98 465 OFFCURVE",
"98 235 OFFCURVE",
"95 35 CURVE",
"50 35 LINE",
"50 0 LINE"
);
}
);
width = 564;
}
);
unicode = 0046;
},
{
color = 3;
glyphname = G;
lastChange = "2020-02-04 08:45:37 +0000";
layers = (
{
layerId = UUID0;
paths = (
{
closed = 1;
nodes = (
"488 -10 OFFCURVE",
"572 16 OFFCURVE",
"627 31 CURVE",
"627 390 LINE",
"453 390 LINE",
"453 355 LINE",
"547 353 LINE",
"547 62 LINE",
"525 46 OFFCURVE",
"462 30 OFFCURVE",
"413 30 CURVE SMOOTH",
"243 30 OFFCURVE",
"135 170 OFFCURVE",
"135 350 CURVE SMOOTH",
"135 530 OFFCURVE",
"263 670 OFFCURVE",
"443 670 CURVE SMOOTH",
"495 670 OFFCURVE",
"551 659 OFFCURVE",
"582 630 CURVE",
"582 579 LINE",
"620 582 LINE",
"619 682 LINE",
"580 694 OFFCURVE",
"518 710 OFFCURVE",
"443 710 CURVE SMOOTH",
"223 710 OFFCURVE",
"40 560 OFFCURVE",
"40 350 CURVE SMOOTH",
"40 140 OFFCURVE",
"188 -10 OFFCURVE",
"413 -10 CURVE SMOOTH"
);
}
);
width = 667;
}
);
leftMetricsKey = O;
unicode = 0047;
},
{
color = 3;
glyphname = H;
lastChange = "2020-01-30 12:51:55 +0000";
layers = (
{
layerId = UUID0;
paths = (
{
closed = 1;
nodes = (
"230 0 LINE",
"230 35 LINE",
"170 35 LINE",
"170 334 LINE",
"611 334 LINE",
"611 35 LINE",
"551 35 LINE",
"551 0 LINE",
"701 0 LINE",
"696 233 OFFCURVE",
"696 467 OFFCURVE",
"701 700 CURVE",
"551 700 LINE",
"551 665 LINE",
"611 665 LINE",
"611 384 LINE",
"170 384 LINE",
"170 665 LINE",
"230 667 LINE",
"230 700 LINE",
"80 700 LINE",
"85 467 OFFCURVE",
"85 233 OFFCURVE",
"80 0 CURVE"
);
}
);
width = 781;
}
);
unicode = 0048;
},
{
color = 3;
glyphname = I;
lastChange = "2020-02-04 08:46:08 +0000";
layers = (
{
layerId = UUID0;
paths = (
{
closed = 1;
nodes = (
"275 0 LINE",
"275 35 LINE",
"200 35 LINE",
"198 235 OFFCURVE",
"198 465 OFFCURVE",
"200 665 CURVE",
"250 665 LINE",
"250 700 LINE",
"45 700 LINE",
"45 665 LINE",
"115 665 LINE",
"117 465 OFFCURVE",
"117 236 OFFCURVE",
"115 36 CURVE",
"40 35 LINE",
"40 0 LINE"
);
}
);
width = 315;
}
);
unicode = 0049;
},
{
color = 3;
glyphname = J;
lastChange = "2020-02-04 08:46:29 +0000";
layers = (
{
layerId = UUID0;
paths = (
{
closed = 1;
nodes = (
"101 -163 OFFCURVE",
"186 -122 OFFCURVE",
"185 42 CURVE SMOOTH",
"183 284 OFFCURVE",
"183 505 OFFCURVE",
"186 665 CURVE",
"252 665 LINE",
"252 700 LINE",
"25 700 LINE",
"25 665 LINE",
"97 665 LINE",
"101 490 OFFCURVE",
"106 238 OFFCURVE",
"102 33 CURVE SMOOTH",
"100 -92 OFFCURVE",
"40 -146 OFFCURVE",
"-90 -234 CURVE",
"-72 -261 LINE"
);
}
);
width = 282;
}
);
unicode = 004A;
},
{
color = 3;
glyphname = K;
lastChange = "2020-01-30 12:51:55 +0000";
layers = (
{
layerId = UUID0;
paths = (
{
closed = 1;
nodes = (
"637 22 OFFCURVE",
"670 53 OFFCURVE",
"703 81 CURVE",
"678 108 LINE",
"637 78 LINE",
"536 177 OFFCURVE",
"437 259 OFFCURVE",
"340 326 CURVE",
"604 566 LINE",
"650 569 LINE",
"650 602 LINE",
"428 602 LINE",
"428 569 LINE",
"508 569 LINE",
"232 316 LINE",
"231 317 LINE",
"231 446 OFFCURVE",
"231 624 OFFCURVE",
"235 753 CURVE",
"220 760 LINE",
"156 722 OFFCURVE",
"95 685 OFFCURVE",
"30 651 CURVE",
"45 620 LINE",
"151 670 LINE",
"151 298 LINE",
"63 260 LINE",
"64 230 LINE",
"151 262 LINE",
"151 35 LINE",
"53 35 LINE",
"53 0 LINE",
"332 0 LINE",
"332 35 LINE",
"231 35 LINE",
"231 300 LINE",
"234 302 LINE",
"363 220 OFFCURVE",
"488 114 OFFCURVE",
"598 -9 CURVE",
"602 -10 LINE"
);
}
);
width = 703;
}
);
unicode = 004B;
},
{
color = 3;
glyphname = L;
lastChange = "2020-01-30 12:51:55 +0000";
layers = (
{
layerId = UUID0;
paths = (
{
closed = 1;
nodes = (
"614 107 LINE",
"582 112 LINE",
"561 55 LINE",
"173 55 LINE",
"170 252 OFFCURVE",
"170 465 OFFCURVE",
"173 662 CURVE",
"250 665 LINE",
"250 700 LINE",
"40 700 LINE",
"40 665 LINE",
"88 662 LINE",
"91 460 OFFCURVE",
"91 243 OFFCURVE",
"88 41 CURVE",
"44 35 LINE",
"44 0 LINE",
"227 2 OFFCURVE",
"409 1 OFFCURVE",
"592 -3 CURVE"
);
}
);
width = 624;
}
);
unicode = 004C;
},
{
color = 3;
glyphname = M;
lastChange = "2020-01-30 12:51:55 +0000";
layers = (
{
layerId = UUID0;
paths = (
{
closed = 1;
nodes = (
"464 -10 LINE",
"550 184 OFFCURVE",
"640 361 OFFCURVE",
"736 553 CURVE",
"736 35 LINE",
"677 35 LINE",
"677 0 LINE",
"867 0 LINE",
"867 35 LINE",
"826 35 LINE",
"826 665 LINE",
"868 665 LINE",
"868 700 LINE",
"685 700 LINE",
"685 665 LINE",
"739 665 LINE",
"475 128 LINE",
"392 293 OFFCURVE",
"284 503 OFFCURVE",
"193 665 CURVE",
"255 665 LINE",
"255 700 LINE",
"40 700 LINE",
"40 665 LINE",
"99 665 LINE",
"99 35 LINE",
"40 35 LINE",
"40 0 LINE",
"206 0 LINE",
"206 35 LINE",
"149 35 LINE",
"149 569 LINE",
"250 387 OFFCURVE",
"352 193 OFFCURVE",
"453 -10 CURVE"
);
}
);
width = 908;
}
);
unicode = 004D;
},
{
color = 3;
glyphname = N;
lastChange = "2020-01-30 12:51:55 +0000";
layers = (
{
layerId = UUID0;
paths = (
{
closed = 1;
nodes = (
"210 0 LINE",
"210 35 LINE",
"150 35 LINE",
"150 634 LINE",
"330 429 OFFCURVE",
"497 214 OFFCURVE",
"656 0 CURVE",
"697 0 LINE",
"697 666 LINE",
"752 666 LINE",
"752 700 LINE",
"587 700 LINE",
"587 666 LINE",
"647 666 LINE",
"647 169 LINE",
"522 339 OFFCURVE",
"386 507 OFFCURVE",
"243 668 CURVE",
"289 667 LINE",
"289 700 LINE",
"45 700 LINE",
"45 668 LINE",
"100 667 LINE",
"100 35 LINE",
"40 35 LINE",
"40 0 LINE"
);
}
);
width = 792;
}
);
unicode = 004E;
},
{
color = 3;
glyphname = O;
lastChange = "2020-02-04 08:44:12 +0000";
layers = (
{
layerId = UUID0;
paths = (
{
closed = 1;
nodes = (
"606 -11 OFFCURVE",
"796 111 OFFCURVE",
"796 349 CURVE SMOOTH",
"796 587 OFFCURVE",
"606 709 OFFCURVE",
"418 709 CURVE SMOOTH",
"230 709 OFFCURVE",
"40 584 OFFCURVE",
"40 346 CURVE SMOOTH",
"40 118 OFFCURVE",
"230 -11 OFFCURVE",
"418 -11 CURVE SMOOTH"
);
},
{
closed = 1;
nodes = (
"246 24 OFFCURVE",
"135 164 OFFCURVE",
"135 347 CURVE SMOOTH",
"135 528 OFFCURVE",
"246 674 OFFCURVE",
"418 674 CURVE SMOOTH",
"590 674 OFFCURVE",
"701 538 OFFCURVE",
"701 357 CURVE SMOOTH",
"701 174 OFFCURVE",
"590 24 OFFCURVE",
"418 24 CURVE SMOOTH"
);
}
);
width = 836;
}
);
unicode = 004F;
},
{
color = 3;
glyphname = P;
lastChange = "2020-02-04 08:47:03 +0000";
layers = (
{
layerId = UUID0;
paths = (
{
closed = 1;
nodes = (
"255 0 LINE",
"255 35 LINE",
"173 35 LINE",
"173 246 LINE",
"205 239 OFFCURVE",
"264 225 OFFCURVE",
"316 225 CURVE SMOOTH",
"445 225 OFFCURVE",
"546 299 OFFCURVE",
"546 437 CURVE SMOOTH",
"546 577 OFFCURVE",
"408 703 OFFCURVE",
"302 703 CURVE SMOOTH",
"225 703 OFFCURVE",
"151 681 OFFCURVE",
"43 681 CURVE",
"46 647 LINE",
"90 644 LINE",
"93 443 OFFCURVE",
"93 236 OFFCURVE",
"90 35 CURVE",
"40 35 LINE",
"40 0 LINE"
);
},
{
closed = 1;
nodes = (
"235 264 OFFCURVE",
"200 269 OFFCURVE",
"173 273 CURVE",
"173 624 LINE",
"260 639 OFFCURVE",
"372 635 OFFCURVE",
"427 597 CURVE",
"456 563 OFFCURVE",
"470 528 OFFCURVE",
"470 471 CURVE SMOOTH",
"470 351 OFFCURVE",
"385 264 OFFCURVE",
"275 264 CURVE SMOOTH"
);
}
);
width = 566;
}
);
unicode = 0050;
},
{
color = 3;
glyphname = Q;
lastChange = "2020-02-04 08:47:07 +0000";
layers = (
{
layerId = UUID0;
paths = (
{
closed = 1;
nodes = (
"1038 -159 OFFCURVE",
"1098 -144 OFFCURVE",
"1148 -121 CURVE",
"1148 -87 LINE",
"1113 -102 OFFCURVE",
"1068 -118 OFFCURVE",
"1024 -118 CURVE SMOOTH",
"911 -118 OFFCURVE",
"796 -41 OFFCURVE",
"712 -2 CURVE",
"558 9 LINE",
"694 52 OFFCURVE",
"822 164 OFFCURVE",
"822 339 CURVE SMOOTH",
"822 577 OFFCURVE",
"612 709 OFFCURVE",
"434 709 CURVE SMOOTH",
"256 709 OFFCURVE",
"40 587 OFFCURVE",
"40 349 CURVE SMOOTH",
"40 111 OFFCURVE",
"258 -11 OFFCURVE",
"436 -11 CURVE SMOOTH",
"445 -11 LINE SMOOTH",
"665 -10 OFFCURVE",
"766 -159 OFFCURVE",
"967 -159 CURVE SMOOTH"
);
},
{
closed = 1;
nodes = (
"260 19 OFFCURVE",
"135 174 OFFCURVE",
"135 349 CURVE SMOOTH",
"135 523 OFFCURVE",
"258 674 OFFCURVE",
"434 674 CURVE SMOOTH",
"610 674 OFFCURVE",
"727 523 OFFCURVE",
"727 349 CURVE SMOOTH",
"727 154 OFFCURVE",
"612 19 OFFCURVE",
"436 19 CURVE SMOOTH"
);
}
);
width = 888;
}
);
leftMetricsKey = O;
unicode = 0051;
},
{
color = 3;
glyphname = R;
lastChange = "2020-01-30 12:51:55 +0000";
layers = (
{
layerId = UUID0;
paths = (
{
closed = 1;
nodes = (
"492 0 OFFCURVE",
"539 0 OFFCURVE",
"589 0 CURVE",
"589 35 LINE",
"534 42 OFFCURVE",
"510 45 OFFCURVE",
"470 105 CURVE SMOOTH",
"323 326 LINE",
"406 333 OFFCURVE",
"540 378 OFFCURVE",
"540 513 CURVE SMOOTH",
"540 634 OFFCURVE",
"434 700 OFFCURVE",
"274 700 CURVE SMOOTH",
"50 700 LINE",
"50 665 LINE",
"110 665 LINE",
"113 464 OFFCURVE",
"113 237 OFFCURVE",
"110 36 CURVE",
"59 35 LINE",
"59 0 LINE",
"244 0 LINE",
"244 35 LINE",
"195 35 LINE",
"195 321 LINE",
"228 321 LINE",
"263 277 OFFCURVE",
"388 91 OFFCURVE",
"442 -2 CURVE"
);
},
{
closed = 1;
nodes = (
"195 663 LINE",
"329 670 OFFCURVE",
"455 647 OFFCURVE",
"455 508 CURVE SMOOTH",
"455 396 OFFCURVE",
"376 356 OFFCURVE",
"258 356 CURVE SMOOTH",
"195 356 LINE"
);
}
);
width = 599;
}
);
unicode = 0052;
},
{
color = 3;
glyphname = S;
lastChange = "2020-01-30 12:51:55 +0000";
layers = (
{
layerId = UUID0;
paths = (
{
closed = 1;
nodes = (
"438 -9 OFFCURVE",
"526 86 OFFCURVE",
"526 193 CURVE SMOOTH",
"526 321 OFFCURVE",
"421 355 OFFCURVE",
"311 401 CURVE SMOOTH",
"218 440 OFFCURVE",
"91 475 OFFCURVE",
"91 558 CURVE SMOOTH",
"91 608 OFFCURVE",
"129 671 OFFCURVE",
"241 671 CURVE SMOOTH",
"339 671 OFFCURVE",
"439 607 OFFCURVE",
"441 530 CURVE",
"465 527 LINE",
"478 573 OFFCURVE",
"488 600 OFFCURVE",
"501 636 CURVE",
"459 669 OFFCURVE",
"376 710 OFFCURVE",
"279 710 CURVE SMOOTH",
"136 710 OFFCURVE",
"20 640 OFFCURVE",
"20 530 CURVE SMOOTH",
"20 429 OFFCURVE",
"100 384 OFFCURVE",
"274 321 CURVE SMOOTH",
"388 280 OFFCURVE",
"470 237 OFFCURVE",
"470 158 CURVE SMOOTH",
"470 79 OFFCURVE",
"409 35 OFFCURVE",
"309 35 CURVE SMOOTH",
"226 35 OFFCURVE",
"96 81 OFFCURVE",
"97 178 CURVE",
"76 183 LINE",
"26 82 LINE",
"70 34 OFFCURVE",
"160 -9 OFFCURVE",
"283 -9 CURVE SMOOTH"
);
}
);
width = 556;
}
);
unicode = 0053;
},
{
color = 3;
glyphname = T;
lastChange = "2020-01-30 12:51:55 +0000";
layers = (
{
layerId = UUID0;
paths = (
{
closed = 1;
nodes = (
"437 2 LINE",
"437 37 LINE",
"374 37 LINE",
"371 233 OFFCURVE",
"371 439 OFFCURVE",
"374 635 CURVE",
"619 635 LINE",
"624 575 LINE",
"659 575 LINE",
"659 700 LINE",
"10 700 LINE",
"10 575 LINE",
"45 575 LINE",
"50 635 LINE",
"284 635 LINE",
"287 439 OFFCURVE",
"287 233 OFFCURVE",
"284 37 CURVE",
"222 37 LINE",
"222 2 LINE"
);
}
);
width = 669;
}
);
unicode = 0054;
},
{
color = 3;
glyphname = U;
lastChange = "2020-01-30 12:51:55 +0000";
layers = (
{
layerId = UUID0;
paths = (
{
closed = 1;
nodes = (
"706 27 LINE",
"706 61 LINE",
"635 48 LINE",
"642 700 LINE",
"507 700 LINE",
"507 665 LINE",
"552 665 LINE",
"552 122 LINE",
"518 87 OFFCURVE",
"465 44 OFFCURVE",
"373 44 CURVE SMOOTH",
"233 44 OFFCURVE",
"188 121 OFFCURVE",
"188 251 CURVE SMOOTH",
"188 700 LINE",
"40 700 LINE",
"40 665 LINE",
"98 665 LINE",
"98 231 LINE SMOOTH",
"98 61 OFFCURVE",
"193 -10 OFFCURVE",
"343 -10 CURVE SMOOTH",
"443 -10 OFFCURVE",
"517 49 OFFCURVE",
"556 81 CURVE",
"552 -10 LINE",
"561 -18 LINE"
);
}
);
width = 736;
}
);
unicode = 0055;
},
{
color = 3;
glyphname = V;
lastChange = "2020-01-30 12:51:55 +0000";
layers = (
{
layerId = UUID0;
paths = (
{
closed = 1;
nodes = (
"365 -10 LINE",
"474 221 OFFCURVE",
"667 659 OFFCURVE",
"710 684 CURVE",
"710 700 LINE",
"524 700 LINE",
"524 665 LINE",
"585 665 LINE",
"337 135 LINE",
"110 665 LINE",
"155 665 LINE",
"155 700 LINE",
"5 700 LINE",
"5 665 LINE",
"50 665 LINE",
"347 -10 LINE"
);
}
);
width = 715;
}
);
unicode = 0056;
},
{
color = 3;
glyphname = W;
lastChange = "2020-01-30 12:51:55 +0000";
layers = (
{
layerId = UUID0;
paths = (
{
closed = 1;
nodes = (
"373 -10 LINE",
"525 319 LINE",
"609 122 LINE SMOOTH",
"620 97 OFFCURVE",
"647 41 OFFCURVE",
"664 -10 CURVE",
"692 -10 LINE",
"1013 685 LINE",
"1013 700 LINE",
"836 700 LINE",
"836 665 LINE",
"891 664 LINE",
"659 122 LINE",
"553 380 LINE",
"694 685 LINE",
"694 700 LINE",
"517 700 LINE",
"517 665 LINE",
"572 664 LINE",
"503 502 LINE",
"435 665 LINE",
"475 665 LINE",
"475 700 LINE",
"324 700 LINE",
"324 665 LINE",
"378 665 LINE",
"475 437 LINE",
"340 122 LINE",
"116 665 LINE",
"156 665 LINE",
"156 700 LINE",
"5 700 LINE",
"5 665 LINE",
"59 665 LINE",
"290 122 LINE SMOOTH",
"301 97 OFFCURVE",
"328 41 OFFCURVE",
"345 -10 CURVE"
);
}
);
width = 1018;
}
);
unicode = 0057;
},
{
color = 3;
glyphname = X;
lastChange = "2020-01-30 12:51:55 +0000";
layers = (
{
layerId = UUID0;
paths = (
{
closed = 1;
nodes = (
"174 0 LINE",
"174 35 LINE",
"135 35 LINE",
"321 292 LINE",
"496 35 LINE",
"445 35 LINE",
"445 0 LINE",
"668 0 LINE",
"668 35 LINE",
"621 35 LINE",
"385 377 LINE",
"598 665 LINE",
"654 665 LINE",
"654 700 LINE",
"477 700 LINE",
"477 665 LINE",
"526 664 LINE",
"352 417 LINE",
"184 664 LINE",
"223 665 LINE",
"223 700 LINE",
"10 700 LINE",
"10 665 LINE",
"67 664 LINE",
"290 338 LINE",
"73 35 LINE",
"21 35 LINE",
"21 0 LINE"
);
}
);
width = 678;
}
);
unicode = 0058;
},
{
color = 3;
glyphname = Y;
lastChange = "2020-01-30 12:43:14 +0000";
layers = (
{
layerId = UUID0;
paths = (
{
closed = 1;
nodes = (
"408 0 LINE",
"408 35 LINE",
"343 35 LINE",
"340 319 LINE",
"533 665 LINE",
"610 665 LINE",
"610 700 LINE",
"495 700 LINE",
"320 370 LINE",
"145 700 LINE",
"5 700 LINE",
"5 665 LINE",
"65 665 LINE",
"256 323 LINE",
"253 35 LINE",
"183 35 LINE",
"183 0 LINE"
);
}
);
width = 615;
}
);
unicode = 0059;
},
{
color = 3;
glyphname = Z;
lastChange = "2020-01-30 12:51:55 +0000";
layers = (
{
layerId = UUID0;
paths = (
{
closed = 1;
nodes = (
"597 32 OFFCURVE",
"635 76 OFFCURVE",
"677 132 CURVE",
"660 150 LINE",
"628 124 OFFCURVE",
"602 85 OFFCURVE",
"540 85 CURVE SMOOTH",
"422 85 OFFCURVE",
"362 141 OFFCURVE",
"206 169 CURVE",
"698 683 LINE",
"671 702 LINE",
"629 666 OFFCURVE",
"597 638 OFFCURVE",
"532 638 CURVE SMOOTH",
"437 638 OFFCURVE",
"315 716 OFFCURVE",
"202 716 CURVE",
"148 690 OFFCURVE",
"92 646 OFFCURVE",
"32 598 CURVE",
"55 576 LINE",
"105 610 OFFCURVE",
"135 634 OFFCURVE",
"157 637 CURVE",
"249 638 OFFCURVE",
"368 582 OFFCURVE",
"507 542 CURVE",
"10 23 LINE",
"35 0 LINE",
"132 86 LINE",
"283 96 OFFCURVE",
"432 -9 OFFCURVE",
"541 -9 CURVE"
);
}
);
width = 708;
}
);
unicode = 005A;
},
{
color = 4;
glyphname = a;
lastChange = "2020-01-30 12:51:55 +0000";
layers = (
{
layerId = UUID0;
paths = (
{
closed = 1;
nodes = (
"138 10 OFFCURVE",
"188 59 OFFCURVE",
"227 93 CURVE",
"234 32 OFFCURVE",
"267 -10 OFFCURVE",
"309 -10 CURVE",
"322 -5 OFFCURVE",
"354 29 OFFCURVE",
"372 56 CURVE",
"367 72 LINE",
"322 56 OFFCURVE",
"307 69 OFFCURVE",
"307 116 CURVE SMOOTH",
"307 178 OFFCURVE",
"309 309 OFFCURVE",
"311 359 CURVE SMOOTH",
"313 414 OFFCURVE",
"274 460 OFFCURVE",
"214 460 CURVE SMOOTH",
"175 460 OFFCURVE",
"63 387 OFFCURVE",
"31 366 CURVE",
"44 340 LINE",
"98 371 OFFCURVE",
"129 392 OFFCURVE",
"165 392 CURVE SMOOTH",
"202 392 OFFCURVE",
"227 377 OFFCURVE",
"227 347 CURVE SMOOTH",
"227 282 LINE",
"216 272 OFFCURVE",
"201 265 OFFCURVE",
"186 257 CURVE SMOOTH",
"76 198 OFFCURVE",
"30 159 OFFCURVE",
"30 101 CURVE SMOOTH",
"30 51 OFFCURVE",
"59 16 OFFCURVE",
"115 -10 CURVE"
);
},
{
closed = 1;
nodes = (
"111 65 OFFCURVE",
"90 82 OFFCURVE",
"90 118 CURVE SMOOTH",
"90 163 OFFCURVE",
"143 218 OFFCURVE",
"227 246 CURVE",
"227 128 LINE",
"204 101 OFFCURVE",
"165 65 OFFCURVE",
"136 65 CURVE SMOOTH"
);
}
);
width = 377;
}
);
unicode = 0061;
},
{
color = 4;
glyphname = b;
lastChange = "2020-01-30 12:51:55 +0000";
layers = (
{
layerId = UUID0;
paths = (
{
closed = 1;
nodes = (
"247 13 OFFCURVE",
"424 117 OFFCURVE",
"424 262 CURVE SMOOTH",
"424 380 OFFCURVE",
"344 448 OFFCURVE",
"271 460 CURVE",
"136 391 LINE",
"136 587 LINE SMOOTH",
"136 658 OFFCURVE",
"140 699 OFFCURVE",
"144 740 CURVE",
"133 748 LINE",
"81 718 OFFCURVE",
"51 697 OFFCURVE",
"15 675 CURVE",
"15 635 LINE",
"56 660 LINE",
"56 156 LINE SMOOTH",
"56 52 OFFCURVE",
"151 10 OFFCURVE",
"200 -10 CURVE"
);
},
{
closed = 1;
nodes = (
"181 65 OFFCURVE",
"136 123 OFFCURVE",
"136 196 CURVE SMOOTH",
"136 364 LINE",
"159 376 OFFCURVE",
"186 386 OFFCURVE",
"222 386 CURVE SMOOTH",
"281 386 OFFCURVE",
"349 325 OFFCURVE",
"349 232 CURVE SMOOTH",
"349 145 OFFCURVE",
"298 65 OFFCURVE",
"234 65 CURVE SMOOTH"
);
}
);
width = 444;
}
);
unicode = 0062;
},
{
color = 4;
glyphname = c;
lastChange = "2020-01-30 12:51:55 +0000";
layers = (
{
layerId = UUID0;
paths = (
{
closed = 1;
nodes = (
"270 18 OFFCURVE",
"308 41 OFFCURVE",
"344 73 CURVE",
"338 103 LINE",
"308 84 OFFCURVE",
"265 74 OFFCURVE",
"245 74 CURVE SMOOTH",
"165 74 OFFCURVE",
"108 140 OFFCURVE",
"108 261 CURVE SMOOTH",
"108 310 OFFCURVE",
"114 374 OFFCURVE",
"149 403 CURVE",
"185 403 OFFCURVE",
"241 375 OFFCURVE",
"278 355 CURVE",
"343 400 LINE",
"343 410 LINE",
"300 423 OFFCURVE",
"229 456 OFFCURVE",
"201 460 CURVE",
"174 460 OFFCURVE",
"90 397 OFFCURVE",
"75 380 CURVE",
"59 350 OFFCURVE",
"40 293 OFFCURVE",
"40 211 CURVE SMOOTH",
"40 74 OFFCURVE",
"103 1 OFFCURVE",
"235 -10 CURVE"
);
}
);
width = 354;
}
);
unicode = 0063;
},
{
color = 4;
glyphname = ccedilla;
lastChange = "2020-01-30 12:51:55 +0000";
layers = (
{
layerId = UUID0;
paths = (
{
closed = 1;
nodes = (
"235 -265 OFFCURVE",
"312 -179 OFFCURVE",
"312 -127 CURVE SMOOTH",
"312 -96 OFFCURVE",
"284 -83 OFFCURVE",
"255 -71 CURVE SMOOTH",
"209 -52 OFFCURVE",
"204 -39 OFFCURVE",
"225 -7 CURVE",
"260 20 OFFCURVE",
"298 44 OFFCURVE",
"340 80 CURVE",
"334 107 LINE",
"304 85 OFFCURVE",
"271 65 OFFCURVE",
"231 65 CURVE SMOOTH",
"151 65 OFFCURVE",
"96 150 OFFCURVE",
"96 261 CURVE SMOOTH",
"96 320 OFFCURVE",
"114 368 OFFCURVE",
"136 398 CURVE",
"174 398 OFFCURVE",
"241 374 OFFCURVE",
"278 358 CURVE",
"349 413 LINE",
"349 423 LINE",
"295 439 OFFCURVE",
"233 459 OFFCURVE",
"175 460 CURVE",
"85 420 OFFCURVE",
"30 320 OFFCURVE",
"30 210 CURVE SMOOTH",
"30 91 OFFCURVE",
"63 5 OFFCURVE",
"194 -8 CURVE",
"172 -39 OFFCURVE",
"152 -75 OFFCURVE",
"152 -97 CURVE",
"167 -101 OFFCURVE",
"190 -106 OFFCURVE",
"210 -114 CURVE SMOOTH",
"230 -122 OFFCURVE",
"252 -132 OFFCURVE",
"252 -156 CURVE SMOOTH",
"252 -194 OFFCURVE",
"189 -245 OFFCURVE",
"100 -245 CURVE",
"111 -265 LINE"
);
}
);
width = 359;
}
);
unicode = 00E7;
},
{
color = 4;
glyphname = c_t;
lastChange = "2020-01-30 12:51:55 +0000";
layers = (
{
layerId = UUID0;
paths = (
{
closed = 1;
nodes = (
"276 15 OFFCURVE",
"328 46 OFFCURVE",
"370 79 CURVE",
"382 35 OFFCURVE",
"416 -10 OFFCURVE",
"463 -10 CURVE",
"513 19 OFFCURVE",
"575 58 OFFCURVE",
"602 72 CURVE",
"598 102 LINE",
"557 78 OFFCURVE",
"525 65 OFFCURVE",
"498 65 CURVE SMOOTH",
"460 65 OFFCURVE",
"446 88 OFFCURVE",
"446 158 CURVE SMOOTH",
"446 384 LINE",
"613 384 LINE",
"617 450 LINE",
"447 450 LINE",
"447 558 LINE SMOOTH",
"447 647 OFFCURVE",
"383 710 OFFCURVE",
"248 710 CURVE SMOOTH",
"148 710 OFFCURVE",
"97 651 OFFCURVE",
"97 598 CURVE SMOOTH",
"97 527 OFFCURVE",
"179 493 OFFCURVE",
"248 455 CURVE",
"264 472 LINE",
"199 506 OFFCURVE",
"157 550 OFFCURVE",
"157 596 CURVE SMOOTH",
"157 646 OFFCURVE",
"202 684 OFFCURVE",
"253 684 CURVE SMOOTH",
"354 684 OFFCURVE",
"366 608 OFFCURVE",
"366 532 CURVE SMOOTH",
"366 108 LINE",
"335 85 OFFCURVE",
"284 65 OFFCURVE",
"246 65 CURVE SMOOTH",
"146 65 OFFCURVE",
"105 130 OFFCURVE",
"105 241 CURVE SMOOTH",
"105 300 OFFCURVE",
"122 363 OFFCURVE",
"154 393 CURVE",
"182 393 OFFCURVE",
"230 376 OFFCURVE",
"295 342 CURVE",
"349 387 LINE",
"349 397 LINE",
"298 423 OFFCURVE",
"243 443 OFFCURVE",
"215 453 CURVE",
"128 433 OFFCURVE",
"40 346 OFFCURVE",
"40 208 CURVE SMOOTH",
"40 91 OFFCURVE",
"82 -6 OFFCURVE",
"236 -10 CURVE"
);
}
);
width = 627;
}
);
leftMetricsKey = c;
rightMetricsKey = t;
},
{
color = 4;
glyphname = d;
lastChange = "2020-01-30 12:51:55 +0000";
layers = (
{
layerId = UUID0;
paths = (
{
closed = 1;
nodes = (
"344 79 LINE",
"342 -5 LINE",
"348 -10 LINE",
"394 9 OFFCURVE",
"422 23 OFFCURVE",
"470 38 CURVE",
"470 68 LINE",
"424 62 LINE",
"419 208 OFFCURVE",
"422 491 OFFCURVE",
"430 707 CURVE",
"421 710 LINE",
"281 644 LINE",
"281 614 LINE",
"344 634 LINE",
"344 421 LINE",
"321 427 OFFCURVE",
"296 430 OFFCURVE",
"273 430 CURVE SMOOTH",
"138 430 OFFCURVE",
"40 327 OFFCURVE",
"40 192 CURVE SMOOTH",
"40 82 OFFCURVE",
"105 -10 OFFCURVE",
"215 -10 CURVE"
);
},
{
closed = 1;
nodes = (
"155 65 OFFCURVE",
"100 143 OFFCURVE",
"100 233 CURVE SMOOTH",
"100 326 OFFCURVE",
"168 390 OFFCURVE",
"240 390 CURVE SMOOTH",
"284 390 OFFCURVE",
"323 359 OFFCURVE",
"345 334 CURVE",
"345 122 LINE",
"324 96 OFFCURVE",
"277 65 OFFCURVE",
"240 65 CURVE SMOOTH"
);
}
);
width = 485;
}
);
unicode = 0064;
},
{
color = 4;
glyphname = e;
lastChange = "2020-02-07 10:34:27 +0000";
layers = (
{
layerId = UUID0;
paths = (
{
closed = 1;
nodes = (
"327 93 LINE",
"307 109 LINE",
"287 91 OFFCURVE",
"259 75 OFFCURVE",
"231 75 CURVE SMOOTH",
"164 75 OFFCURVE",
"120 117 OFFCURVE",
"101 177 CURVE",
"317 319 LINE",
"303 396 OFFCURVE",
"246 453 OFFCURVE",
"185 461 CURVE",
"98 409 OFFCURVE",
"30 331 OFFCURVE",
"30 208 CURVE SMOOTH",
"30 117 OFFCURVE",
"75 -7 OFFCURVE",
"235 -10 CURVE"
);
},
{
closed = 1;
nodes = (
"91 221 OFFCURVE",
"90 238 OFFCURVE",
"90 256 CURVE SMOOTH",
"90 319 OFFCURVE",
"121 376 OFFCURVE",
"148 396 CURVE",
"164 396 OFFCURVE",
"222 358 OFFCURVE",
"232 300 CURVE",
"94 205 LINE"
);
}
);
width = 337;
}
);
unicode = 0065;
},
{
color = 4;
glyphname = f;
lastChange = "2020-01-30 12:51:55 +0000";
layers = (
{
layerId = UUID0;
paths = (
{
closed = 1;
nodes = (
"110 -2 OFFCURVE",
"148 1 OFFCURVE",
"196 7 CURVE",
"196 37 LINE",
"139 33 LINE",
"139 390 LINE",
"285 390 LINE",
"295 430 LINE",
"134 430 LINE",
"134 475 LINE SMOOTH",
"134 588 OFFCURVE",
"198 651 OFFCURVE",
"272 651 CURVE SMOOTH",
"322 651 OFFCURVE",
"332 618 OFFCURVE",
"362 618 CURVE SMOOTH",
"376 618 OFFCURVE",
"393 624 OFFCURVE",
"393 646 CURVE SMOOTH",
"393 672 OFFCURVE",
"346 693 OFFCURVE",
"302 693 CURVE SMOOTH",
"150 693 OFFCURVE",
"62 509 OFFCURVE",
"20 450 CURVE",
"24 440 LINE",
"64 440 LINE",
"64 290 OFFCURVE",
"61 135 OFFCURVE",
"57 -10 CURVE"
);
}
);
width = 303;
}
);
unicode = 0066;
},
{
color = 4;
glyphname = f_f;
lastChange = "2020-01-30 12:51:55 +0000";
layers = (
{
layerId = UUID0;
paths = (
{
closed = 1;
nodes = (
"94 -5 OFFCURVE",
"152 2 OFFCURVE",
"195 8 CURVE",
"195 38 LINE",
"129 32 LINE",
"129 390 LINE",
"286 390 LINE",
"286 389 OFFCURVE",
"285 113 OFFCURVE",
"283 -8 CURVE",
"331 -3 OFFCURVE",
"368 7 OFFCURVE",
"412 13 CURVE",
"412 43 LINE",
"361 39 LINE",
"361 390 LINE",
"465 390 LINE",
"475 435 LINE",
"355 435 LINE",
"355 561 OFFCURVE",
"389 658 OFFCURVE",
"458 658 CURVE SMOOTH",
"505 658 OFFCURVE",
"512 611 OFFCURVE",
"545 611 CURVE SMOOTH",
"568 611 OFFCURVE",
"584 624 OFFCURVE",
"584 639 CURVE SMOOTH",
"584 663 OFFCURVE",
"541 693 OFFCURVE",
"488 693 CURVE SMOOTH",
"436 693 OFFCURVE",
"397 674 OFFCURVE",
"365 648 CURVE",
"344 671 OFFCURVE",
"309 693 OFFCURVE",
"260 693 CURVE SMOOTH",
"123 693 OFFCURVE",
"60 515 OFFCURVE",
"20 470 CURVE",
"23 460 LINE",
"54 460 LINE",
"55 303 OFFCURVE",
"49 147 OFFCURVE",
"47 -10 CURVE"
);
},
{
closed = 1;
nodes = (
"132 498 LINE SMOOTH",
"132 609 OFFCURVE",
"173 653 OFFCURVE",
"230 653 CURVE SMOOTH",
"272 653 OFFCURVE",
"308 629 OFFCURVE",
"327 606 CURVE",
"291 539 OFFCURVE",
"282 500 OFFCURVE",
"247 435 CURVE",
"132 435 LINE"
);
}
);
width = 494;
}
);
leftMetricsKey = f;
rightMetricsKey = f;
unicode = FB00;
},
{
color = 4;
glyphname = f_i;
lastChange = "2020-01-30 12:51:55 +0000";
layers = (
{
layerId = UUID0;
paths = (
{
closed = 1;
nodes = (
"101 -1 OFFCURVE",
"149 8 OFFCURVE",
"192 15 CURVE",
"192 45 LINE",
"128 38 LINE",
"128 390 LINE",
"311 390 LINE",
"309 298 OFFCURVE",
"306 94 OFFCURVE",
"304 -10 CURVE",
"358 -1 OFFCURVE",
"401 8 OFFCURVE",
"443 15 CURVE",
"443 45 LINE",
"379 39 LINE",
"379 177 OFFCURVE",
"383 317 OFFCURVE",
"389 455 CURVE",
"384 460 LINE",
"323 435 LINE",
"133 435 LINE",
"133 572 OFFCURVE",
"184 651 OFFCURVE",
"241 651 CURVE SMOOTH",
"287 651 OFFCURVE",
"302 608 OFFCURVE",
"332 608 CURVE SMOOTH",
"346 608 OFFCURVE",
"361 615 OFFCURVE",
"361 637 CURVE SMOOTH",
"361 663 OFFCURVE",
"319 693 OFFCURVE",
"272 693 CURVE SMOOTH",
"150 693 OFFCURVE",
"93 552 OFFCURVE",
"20 470 CURVE",
"23 460 LINE",
"60 460 LINE",
"60 407 OFFCURVE",
"57 87 OFFCURVE",
"56 -10 CURVE"
);
}
);
width = 458;
}
);
leftMetricsKey = f;
rightMetricsKey = i;
},
{
color = 4;
glyphname = f_l;
lastChange = "2020-01-30 12:51:55 +0000";
layers = (
{
layerId = UUID0;
paths = (
{
closed = 1;
nodes = (
"113 -1 OFFCURVE",
"160 8 OFFCURVE",
"202 15 CURVE",
"202 45 LINE",
"142 36 LINE",
"142 390 LINE",
"330 390 LINE",
"329 229 OFFCURVE",
"327 103 OFFCURVE",
"324 -10 CURVE",
"471 15 LINE",
"471 45 LINE",
"407 36 LINE",
"407 593 LINE SMOOTH",
"407 645 OFFCURVE",
"410 723 OFFCURVE",
"429 741 CURVE",
"422 750 LINE",
"368 715 LINE",
"321 751 LINE",
"309 742 LINE",
"324 724 OFFCURVE",
"328 701 OFFCURVE",
"329 673 CURVE",
"313 679 OFFCURVE",
"294 683 OFFCURVE",
"271 683 CURVE SMOOTH",
"119 683 OFFCURVE",
"72 549 OFFCURVE",
"20 470 CURVE",
"23 460 LINE",
"63 460 LINE",
"64 239 OFFCURVE",
"62 125 OFFCURVE",
"59 -10 CURVE"
);
},
{
closed = 1;
nodes = (
"137 477 LINE SMOOTH",
"137 580 OFFCURVE",
"157 641 OFFCURVE",
"211 641 CURVE SMOOTH",
"267 641 OFFCURVE",
"278 601 OFFCURVE",
"308 601 CURVE SMOOTH",
"312 601 OFFCURVE",
"322 603 OFFCURVE",
"330 606 CURVE",
"330 435 LINE",
"137 435 LINE"
);
}
);
width = 486;
}
);
leftMetricsKey = f;
rightMetricsKey = l;
},
{
color = 4;
glyphname = f_f_i;
lastChange = "2020-01-30 12:51:55 +0000";
layers = (
{
layerId = UUID0;
paths = (
{
closed = 1;
nodes = (
"334 1 OFFCURVE",
"371 8 OFFCURVE",
"419 15 CURVE",
"419 45 LINE",
"355 37 LINE",
"355 390 LINE",
"541 390 LINE",
"541 228 OFFCURVE",
"538 125 OFFCURVE",
"531 -5 CURVE",
"574 3 OFFCURVE",
"614 9 OFFCURVE",
"664 15 CURVE",
"663 45 LINE",
"609 36 LINE",
"608 172 OFFCURVE",
"609 319 OFFCURVE",
"619 455 CURVE",
"614 460 LINE",
"565 435 LINE",
"360 435 LINE",
"360 572 OFFCURVE",
"411 651 OFFCURVE",
"468 651 CURVE SMOOTH",
"514 651 OFFCURVE",
"529 608 OFFCURVE",
"559 608 CURVE SMOOTH",
"573 608 OFFCURVE",
"588 615 OFFCURVE",
"588 637 CURVE SMOOTH",
"588 663 OFFCURVE",
"546 693 OFFCURVE",
"499 693 CURVE SMOOTH",
"450 693 OFFCURVE",
"411 670 OFFCURVE",
"378 637 CURVE",
"357 664 OFFCURVE",
"316 693 OFFCURVE",
"271 693 CURVE SMOOTH",
"139 693 OFFCURVE",
"72 529 OFFCURVE",
"20 470 CURVE",
"23 460 LINE",
"63 460 LINE",
"64 249 OFFCURVE",
"63 155 OFFCURVE",
"54 -5 CURVE",
"99 1 OFFCURVE",
"137 8 OFFCURVE",
"203 15 CURVE",
"202 45 LINE",
"138 36 LINE",
"138 390 LINE",
"287 390 LINE",
"287 247 OFFCURVE",
"285 130 OFFCURVE",
"277 -10 CURVE"
);
},
{
closed = 1;
nodes = (
"133 475 LINE SMOOTH",
"133 588 OFFCURVE",
"187 651 OFFCURVE",
"251 651 CURVE SMOOTH",
"295 651 OFFCURVE",
"323 620 OFFCURVE",
"338 592 CURVE",
"306 551 OFFCURVE",
"278 505 OFFCURVE",
"247 470 CURVE",
"250 460 LINE",
"287 460 LINE",
"287 434 LINE",
"133 434 LINE"
);
}
);
width = 679;
}
);
leftMetricsKey = f;
rightMetricsKey = i;
},
{
color = 4;
glyphname = f_f_l;
lastChange = "2020-01-30 12:51:55 +0000";
layers = (
{
layerId = UUID0;
paths = (
{
closed = 1;
nodes = (
"97 -1 OFFCURVE",
"150 8 OFFCURVE",
"198 15 CURVE",
"198 45 LINE",
"134 36 LINE",
"134 390 LINE",
"311 390 LINE",
"311 389 OFFCURVE",
"305 146 OFFCURVE",
"300 -10 CURVE",
"348 0 OFFCURVE",
"407 9 OFFCURVE",
"455 15 CURVE",
"455 45 LINE",
"386 36 LINE",
"386 390 LINE",
"496 390 LINE",
"506 435 LINE",
"380 435 LINE",
"380 551 OFFCURVE",
"404 653 OFFCURVE",
"493 653 CURVE SMOOTH",
"540 653 OFFCURVE",
"547 611 OFFCURVE",
"580 611 CURVE SMOOTH",
"585 611 LINE",
"586 340 OFFCURVE",
"583 206 OFFCURVE",
"577 -10 CURVE",
"631 -1 OFFCURVE",
"678 8 OFFCURVE",
"726 15 CURVE",
"726 45 LINE",
"662 35 LINE",
"662 593 LINE SMOOTH",
"662 645 OFFCURVE",
"661 724 OFFCURVE",
"680 742 CURVE",
"670 750 LINE",
"623 715 LINE",
"576 751 LINE",
"566 743 LINE",
"580 726 OFFCURVE",
"584 704 OFFCURVE",
"585 678 CURVE",
"568 687 OFFCURVE",
"546 693 OFFCURVE",
"523 693 CURVE SMOOTH",
"471 693 OFFCURVE",
"431 674 OFFCURVE",
"400 648 CURVE",
"376 670 OFFCURVE",
"334 693 OFFCURVE",
"285 693 CURVE SMOOTH",
"128 693 OFFCURVE",
"70 518 OFFCURVE",
"20 470 CURVE",
"23 460 LINE",
"59 460 LINE",
"59 435 LINE SMOOTH",
"56 287 OFFCURVE",
"52 138 OFFCURVE",
"49 -10 CURVE"
);
},
{
closed = 1;
nodes = (
"137 498 LINE SMOOTH",
"137 609 OFFCURVE",
"198 643 OFFCURVE",
"245 643 CURVE SMOOTH",
"288 643 OFFCURVE",
"330 615 OFFCURVE",
"350 591 CURVE",
"336 569 LINE SMOOTH",
"313 532 OFFCURVE",
"290 450 OFFCURVE",
"282 435 CURVE",
"137 435 LINE"
);
}
);
width = 741;
}
);
leftMetricsKey = f;
rightMetricsKey = l;
unicode = FB04;
},
{
color = 4;
glyphname = g;
lastChange = "2020-01-30 12:51:55 +0000";
layers = (
{
layerId = UUID0;
paths = (
{
closed = 1;
nodes = (
"349 -280 OFFCURVE",
"457 -217 OFFCURVE",
"457 -117 CURVE SMOOTH",
"457 -47 OFFCURVE",
"390 0 OFFCURVE",
"332 28 CURVE SMOOTH",
"278 54 OFFCURVE",
"247 69 OFFCURVE",
"247 97 CURVE SMOOTH",
"247 103 OFFCURVE",
"249 110 OFFCURVE",
"251 116 CURVE",
"324 147 OFFCURVE",
"387 218 OFFCURVE",
"388 251 CURVE SMOOTH",
"389 288 OFFCURVE",
"381 326 OFFCURVE",
"363 358 CURVE",
"448 359 LINE",
"444 414 LINE",
"328 406 LINE",
"298 436 OFFCURVE",
"257 456 OFFCURVE",
"209 460 CURVE",
"164 440 OFFCURVE",
"74 383 OFFCURVE",
"71 380 CURVE SMOOTH",
"54 358 OFFCURVE",
"30 316 OFFCURVE",
"30 262 CURVE SMOOTH",
"30 184 OFFCURVE",
"96 121 OFFCURVE",
"173 106 CURVE",
"175 85 OFFCURVE",
"172 57 OFFCURVE",
"172 40 CURVE",
"184 32 OFFCURVE",
"197 25 OFFCURVE",
"204 21 CURVE",
"93 -1 OFFCURVE",
"10 -55 OFFCURVE",
"10 -136 CURVE SMOOTH",
"10 -228 OFFCURVE",
"109 -280 OFFCURVE",
"229 -280 CURVE SMOOTH"
);
},
{
closed = 1;
nodes = (
"149 -255 OFFCURVE",
"91 -198 OFFCURVE",
"91 -128 CURVE SMOOTH",
"91 -50 OFFCURVE",
"156 -10 OFFCURVE",
"229 4 CURVE",
"290 -21 OFFCURVE",
"381 -71 OFFCURVE",
"381 -147 CURVE SMOOTH",
"381 -207 OFFCURVE",
"319 -255 OFFCURVE",
"239 -255 CURVE SMOOTH"
);
},
{
closed = 1;
nodes = (
"152 152 OFFCURVE",
"100 222 OFFCURVE",
"100 302 CURVE SMOOTH",
"100 350 OFFCURVE",
"124 394 OFFCURVE",
"178 394 CURVE SMOOTH",
"258 394 OFFCURVE",
"318 321 OFFCURVE",
"318 241 CURVE SMOOTH",
"318 191 OFFCURVE",
"282 152 OFFCURVE",
"232 152 CURVE SMOOTH"
);
}
);
width = 467;
}
);
unicode = 0067;
},
{
color = 4;
glyphname = h;
lastChange = "2020-01-30 12:51:55 +0000";
layers = (
{
layerId = UUID0;
paths = (
{
closed = 1;
nodes = (
"323 -20 LINE",
"372 23 OFFCURVE",
"510 146 OFFCURVE",
"510 247 CURVE SMOOTH",
"510 367 OFFCURVE",
"408 460 OFFCURVE",
"298 460 CURVE",
"161 364 LINE",
"161 408 LINE SMOOTH",
"161 499 OFFCURVE",
"163 700 OFFCURVE",
"168 741 CURVE",
"161 750 LINE",
"119 733 OFFCURVE",
"73 712 OFFCURVE",
"15 693 CURVE",
"19 658 LINE",
"81 679 LINE",
"81 44 LINE",
"28 25 LINE",
"29 -10 LINE",
"94 9 OFFCURVE",
"151 26 OFFCURVE",
"212 41 CURVE",
"211 79 LINE",
"161 65 LINE",
"161 325 LINE",
"192 353 OFFCURVE",
"237 380 OFFCURVE",
"290 380 CURVE SMOOTH",
"350 380 OFFCURVE",
"440 327 OFFCURVE",
"440 227 CURVE SMOOTH",
"440 114 OFFCURVE",
"352 44 OFFCURVE",
"271 -10 CURVE",
"271 -20 LINE"
);
}
);
width = 540;
}
);
rightMetricsKey = o;
unicode = 0068;
},
{
color = 4;
glyphname = i;
lastChange = "2020-01-30 12:51:55 +0000";
layers = (
{
layerId = UUID0;
paths = (
{
closed = 1;
nodes = (
"104 4 OFFCURVE",
"143 16 OFFCURVE",
"190 28 CURVE",
"190 61 LINE",
"139 47 LINE",
"139 456 LINE",
"133 460 LINE",
"90 439 OFFCURVE",
"66 422 OFFCURVE",
"20 401 CURVE",
"20 374 LINE",
"57 388 LINE",
"61 255 OFFCURVE",
"59 123 OFFCURVE",
"57 -10 CURVE"
);
},
{
closed = 1;
nodes = (
"123 600 LINE",
"183 699 LINE",
"183 700 LINE",
"117 700 LINE",
"64 601 LINE",
"64 600 LINE"
);
}
);
width = 205;
}
);
leftMetricsKey = n;
rightMetricsKey = n;
unicode = 0069;
},
{
color = 4;
glyphname = j;
lastChange = "2020-01-30 12:51:55 +0000";
layers = (
{
layerId = UUID0;
paths = (
{
closed = 1;
nodes = (
"115 -207 OFFCURVE",
"206 -139 OFFCURVE",
"200 -55 CURVE SMOOTH",
"190 85 OFFCURVE",
"191 241 OFFCURVE",
"200 391 CURVE",
"184 414 OFFCURVE",
"149 445 OFFCURVE",
"104 460 CURVE",
"2 391 LINE",
"5 370 LINE",
"11 371 OFFCURVE",
"37 384 OFFCURVE",
"58 384 CURVE SMOOTH",
"74 384 OFFCURVE",
"117 367 OFFCURVE",
"115 330 CURVE SMOOTH",
"110 210 OFFCURVE",
"107 90 OFFCURVE",
"117 -30 CURVE SMOOTH",
"126 -137 OFFCURVE",
"76 -179 OFFCURVE",
"-40 -250 CURVE",
"-30 -280 LINE"
);
},
{
closed = 1;
nodes = (
"186 676 LINE",
"184 681 LINE",
"120 681 LINE",
"77 595 LINE",
"113 583 LINE"
);
}
);
width = 250;
}
);
unicode = 006A;
},
{
color = 4;
glyphname = k;
lastChange = "2020-01-30 12:43:14 +0000";
layers = (
{
layerId = UUID0;
paths = (
{
closed = 1;
nodes = (
"410 3 OFFCURVE",
"448 16 OFFCURVE",
"487 25 CURVE",
"478 54 LINE",
"425 44 LINE",
"358 125 OFFCURVE",
"286 205 OFFCURVE",
"220 272 CURVE",
"356 369 LINE SMOOTH",
"385 390 OFFCURVE",
"420 417 OFFCURVE",
"442 428 CURVE",
"442 450 LINE",
"395 449 OFFCURVE",
"348 449 OFFCURVE",
"301 450 CURVE",
"301 421 LINE",
"364 421 LINE",
"158 265 LINE",
"158 420 OFFCURVE",
"159 588 OFFCURVE",
"161 743 CURVE",
"156 749 LINE",
"106 734 OFFCURVE",
"68 723 OFFCURVE",
"15 706 CURVE",
"26 676 LINE",
"78 688 LINE",
"80 391 OFFCURVE",
"79 153 OFFCURVE",
"75 -9 CURVE",
"122 4 OFFCURVE",
"168 15 OFFCURVE",
"215 26 CURVE",
"215 57 LINE",
"158 48 LINE",
"158 237 LINE",
"235 160 OFFCURVE",
"306 77 OFFCURVE",
"371 -10 CURVE"
);
}
);
width = 492;
}
);
unicode = 006B;
},
{
color = 4;
glyphname = l;
lastChange = "2020-01-30 12:51:55 +0000";
layers = (
{
layerId = UUID0;
paths = (
{
closed = 1;
nodes = (
"213 22 LINE",
"213 52 LINE",
"155 44 LINE",
"151 236 OFFCURVE",
"151 513 OFFCURVE",
"161 745 CURVE",
"156 750 LINE",
"107 736 OFFCURVE",
"66 729 OFFCURVE",
"15 716 CURVE",
"26 687 LINE",
"75 697 LINE",
"75 551 OFFCURVE",
"73 67 OFFCURVE",
"66 -8 CURVE"
);
}
);
width = 228;
}
);
unicode = 006C;
},
{
color = 4;
glyphname = m;
lastChange = "2020-01-30 12:51:55 +0000";
layers = (
{
layerId = UUID0;
paths = (
{
closed = 1;
nodes = (
"110 6 OFFCURVE",
"164 17 OFFCURVE",
"213 30 CURVE",
"213 60 LINE",
"140 47 LINE",
"140 335 LINE",
"163 358 OFFCURVE",
"222 390 OFFCURVE",
"238 390 CURVE SMOOTH",
"268 390 OFFCURVE",
"306 361 OFFCURVE",
"306 321 CURVE SMOOTH",
"306 204 OFFCURVE",
"303 97 OFFCURVE",
"298 -10 CURVE",
"349 3 OFFCURVE",
"401 19 OFFCURVE",
"452 30 CURVE",
"452 60 LINE",
"385 49 LINE",
"385 338 LINE",
"409 361 OFFCURVE",
"459 390 OFFCURVE",
"479 390 CURVE SMOOTH",
"509 390 OFFCURVE",
"551 361 OFFCURVE",
"551 321 CURVE SMOOTH",
"551 204 OFFCURVE",
"548 97 OFFCURVE",
"545 -10 CURVE",
"593 4 OFFCURVE",
"641 18 OFFCURVE",
"689 30 CURVE",
"689 60 LINE",
"630 49 LINE",
"630 341 LINE SMOOTH",
"630 401 OFFCURVE",
"575 439 OFFCURVE",
"503 460 CURVE",
"381 370 LINE",
"369 406 OFFCURVE",
"330 439 OFFCURVE",
"258 460 CURVE",
"139 370 LINE",
"139 455 LINE",
"131 460 LINE",
"91 432 OFFCURVE",
"54 408 OFFCURVE",
"20 386 CURVE",
"25 355 LINE",
"60 373 LINE",
"55 -10 LINE"
);
}
);
width = 704;
}
);
leftMetricsKey = n;
rightMetricsKey = n;
unicode = 006D;
},
{
color = 4;
glyphname = n;
lastChange = "2020-01-30 12:51:55 +0000";
layers = (
{
layerId = UUID0;
paths = (
{
closed = 1;
nodes = (
"206 28 LINE",
"206 59 LINE",
"147 46 LINE",
"147 336 LINE",
"170 359 OFFCURVE",
"221 390 OFFCURVE",
"255 390 CURVE SMOOTH",
"285 390 OFFCURVE",
"310 365 OFFCURVE",
"310 315 CURVE SMOOTH",
"310 208 OFFCURVE",
"307 102 OFFCURVE",
"305 -5 CURVE",
"310 -10 LINE",
"357 5 OFFCURVE",
"387 16 OFFCURVE",
"440 29 CURVE",
"440 59 LINE",
"387 49 LINE",
"387 355 LINE SMOOTH",
"387 425 OFFCURVE",
"337 459 OFFCURVE",
"275 460 CURVE",
"146 371 LINE",
"146 455 LINE",
"138 460 LINE",
"98 429 OFFCURVE",
"64 402 OFFCURVE",
"20 373 CURVE",
"20 344 LINE",
"68 363 LINE",
"65 -10 LINE"
);
}
);
width = 455;
}
);
unicode = 006E;
},
{
color = 4;
glyphname = o;
lastChange = "2020-01-30 12:51:55 +0000";
layers = (
{
layerId = UUID0;
paths = (
{
closed = 1;
nodes = (
"356 40 OFFCURVE",
"448 131 OFFCURVE",
"448 241 CURVE SMOOTH",
"448 364 OFFCURVE",
"349 450 OFFCURVE",
"239 460 CURVE",
"122 410 OFFCURVE",
"30 319 OFFCURVE",
"30 209 CURVE SMOOTH",
"30 86 OFFCURVE",
"129 0 OFFCURVE",
"239 -10 CURVE"
);
},
{
closed = 1;
nodes = (
"184 65 OFFCURVE",
"100 149 OFFCURVE",
"100 249 CURVE SMOOTH",
"100 314 OFFCURVE",
"137 370 OFFCURVE",
"194 390 CURVE",
"294 390 OFFCURVE",
"378 301 OFFCURVE",
"378 201 CURVE SMOOTH",
"378 136 OFFCURVE",
"341 85 OFFCURVE",
"284 65 CURVE"
);
}
);
width = 478;
}
);
unicode = 006F;
},
{
color = 4;
glyphname = p;
lastChange = "2020-01-30 12:51:55 +0000";
layers = (
{
layerId = UUID0;
paths = (
{
closed = 1;
nodes = (
"152 -271 OFFCURVE",
"196 -270 OFFCURVE",
"257 -270 CURVE",
"257 -240 LINE",
"177 -238 LINE",
"177 24 LINE",
"223 22 OFFCURVE",
"276 17 OFFCURVE",
"298 26 CURVE",
"346 55 OFFCURVE",
"474 140 OFFCURVE",
"474 255 CURVE SMOOTH",
"474 355 OFFCURVE",
"414 451 OFFCURVE",
"302 460 CURVE",
"181 375 LINE",
"181 407 OFFCURVE",
"184 447 OFFCURVE",
"188 475 CURVE",
"174 482 LINE",
"135 459 OFFCURVE",
"90 433 OFFCURVE",
"32 404 CURVE",
"39 374 LINE",
"101 404 LINE",
"101 94 LINE",
"79 94 LINE",
"20 31 LINE",
"27 14 LINE",
"49 24 OFFCURVE",
"84 29 OFFCURVE",
"101 26 CURVE",
"101 -68 OFFCURVE",
"97 -168 OFFCURVE",
"95 -270 CURVE",
"99 -275 LINE"
);
},
{
closed = 1;
nodes = (
"232 86 OFFCURVE",
"197 89 OFFCURVE",
"178 92 CURVE",
"182 343 LINE",
"195 356 OFFCURVE",
"233 377 OFFCURVE",
"268 377 CURVE SMOOTH",
"341 377 OFFCURVE",
"414 321 OFFCURVE",
"414 225 CURVE SMOOTH",
"414 140 OFFCURVE",
"346 86 OFFCURVE",
"264 86 CURVE SMOOTH"
);
}
);
width = 504;
}
);
leftMetricsKey = n;
unicode = 0070;
},
{
color = 4;
glyphname = q;
lastChange = "2020-01-30 12:51:55 +0000";
layers = (
{
layerId = UUID0;
paths = (
{
closed = 1;
nodes = (
"319 -275 OFFCURVE",
"391 -266 OFFCURVE",
"463 -257 CURVE",
"459 -227 LINE",
"412 -232 LINE",
"412 107 LINE SMOOTH",
"412 278 OFFCURVE",
"413 391 OFFCURVE",
"438 464 CURVE",
"427 473 LINE",
"402 457 OFFCURVE",
"376 435 OFFCURVE",
"361 413 CURVE",
"334 434 OFFCURVE",
"305 448 OFFCURVE",
"253 460 CURVE",
"132 430 OFFCURVE",
"30 333 OFFCURVE",
"30 201 CURVE SMOOTH",
"30 86 OFFCURVE",
"112 -9 OFFCURVE",
"228 -10 CURVE",
"332 87 LINE",
"332 -241 LINE",
"247 -256 LINE",
"247 -290 LINE"
);
},
{
closed = 1;
nodes = (
"158 65 OFFCURVE",
"90 141 OFFCURVE",
"90 241 CURVE SMOOTH",
"90 331 OFFCURVE",
"139 390 OFFCURVE",
"219 390 CURVE SMOOTH",
"269 390 OFFCURVE",
"310 364 OFFCURVE",
"331 332 CURVE",
"331 143 LINE",
"320 106 OFFCURVE",
"270 65 OFFCURVE",
"228 65 CURVE SMOOTH"
);
}
);
width = 468;
}
);
unicode = 0071;
},
{
color = 4;
glyphname = r;
lastChange = "2020-02-07 10:33:35 +0000";
layers = (
{
layerId = UUID0;
paths = (
{
closed = 1;
nodes = (
"106 3 OFFCURVE",
"149 10 OFFCURVE",
"201 21 CURVE",
"201 51 LINE",
"148 41 LINE",
"149 346 LINE",
"162 358 OFFCURVE",
"185 372 OFFCURVE",
"204 372 CURVE SMOOTH",
"229 372 OFFCURVE",
"247 359 OFFCURVE",
"263 336 CURVE",
"265 336 LINE",
"322 398 LINE",
"310 418 OFFCURVE",
"277 447 OFFCURVE",
"240 460 CURVE",
"239 460 LINE",
"214 432 OFFCURVE",
"184 400 OFFCURVE",
"150 376 CURVE",
"150 459 LINE",
"144 463 LINE",
"101 443 OFFCURVE",
"65 422 OFFCURVE",
"20 399 CURVE",
"20 369 LINE",
"70 389 LINE",
"71 348 OFFCURVE",
"70 127 OFFCURVE",
"62 -10 CURVE"
);
}
);
width = 327;
}
);
leftMetricsKey = n;
unicode = 0072;
},
{
color = 4;
glyphname = r_a;
lastChange = "2020-01-30 12:51:55 +0000";
layers = (
{
layerId = UUID0;
paths = (
{
closed = 1;
nodes = (
"106 5 OFFCURVE",
"154 16 OFFCURVE",
"202 27 CURVE",
"202 57 LINE",
"141 47 LINE",
"141 348 LINE",
"158 362 OFFCURVE",
"186 377 OFFCURVE",
"208 377 CURVE SMOOTH",
"228 377 OFFCURVE",
"262 346 OFFCURVE",
"270 313 CURVE",
"273 313 LINE",
"312 343 OFFCURVE",
"367 397 OFFCURVE",
"406 397 CURVE SMOOTH",
"448 397 OFFCURVE",
"484 361 OFFCURVE",
"484 331 CURVE SMOOTH",
"484 276 LINE",
"385 214 OFFCURVE",
"268 162 OFFCURVE",
"268 105 CURVE SMOOTH",
"268 52 OFFCURVE",
"289 10 OFFCURVE",
"350 -10 CURVE",
"368 0 OFFCURVE",
"443 39 OFFCURVE",
"484 64 CURVE",
"488 41 OFFCURVE",
"500 5 OFFCURVE",
"513 -10 CURVE",
"563 8 OFFCURVE",
"606 35 OFFCURVE",
"638 61 CURVE",
"624 79 LINE",
"572 56 OFFCURVE",
"564 65 OFFCURVE",
"564 115 CURVE SMOOTH",
"564 177 OFFCURVE",
"563 304 OFFCURVE",
"566 364 CURVE SMOOTH",
"568 409 OFFCURVE",
"494 460 OFFCURVE",
"454 460 CURVE SMOOTH",
"429 460 OFFCURVE",
"374 424 OFFCURVE",
"328 389 CURVE",
"309 423 OFFCURVE",
"279 458 OFFCURVE",
"247 460 CURVE",
"210 433 OFFCURVE",
"181 406 OFFCURVE",
"141 377 CURVE",
"141 455 LINE",
"132 460 LINE",
"89 437 OFFCURVE",
"50 416 OFFCURVE",
"20 399 CURVE",
"20 369 LINE",
"61 384 LINE",
"62 253 OFFCURVE",
"61 121 OFFCURVE",
"58 -10 CURVE"
);
},
{
closed = 1;
nodes = (
"368 51 OFFCURVE",
"338 82 OFFCURVE",
"338 119 CURVE SMOOTH",
"338 153 OFFCURVE",
"373 192 OFFCURVE",
"484 249 CURVE",
"484 95 LINE",
"460 76 OFFCURVE",
"417 51 OFFCURVE",
"393 51 CURVE SMOOTH"
);
}
);
width = 643;
}
);
leftMetricsKey = r;
rightMetricsKey = a;
},
{
color = 4;
glyphname = r_o;
lastChange = "2020-01-30 12:51:55 +0000";
layers = (
{
layerId = UUID0;
paths = (
{
closed = 1;
nodes = (
"120 5 OFFCURVE",
"175 19 OFFCURVE",
"223 30 CURVE",
"223 60 LINE",
"154 49 LINE",
"154 329 LINE",
"175 348 OFFCURVE",
"220 380 OFFCURVE",
"242 380 CURVE SMOOTH",
"264 380 OFFCURVE",
"308 339 OFFCURVE",
"317 310 CURVE",
"303 281 OFFCURVE",
"295 250 OFFCURVE",
"295 219 CURVE SMOOTH",
"295 96 OFFCURVE",
"382 0 OFFCURVE",
"489 -10 CURVE",
"603 40 OFFCURVE",
"683 131 OFFCURVE",
"683 231 CURVE SMOOTH",
"683 354 OFFCURVE",
"596 450 OFFCURVE",
"489 460 CURVE",
"445 441 OFFCURVE",
"406 415 OFFCURVE",
"374 385 CURVE",
"360 412 OFFCURVE",
"315 453 OFFCURVE",
"269 460 CURVE",
"230 431 OFFCURVE",
"191 399 OFFCURVE",
"154 367 CURVE",
"154 455 LINE",
"145 460 LINE",
"103 440 OFFCURVE",
"66 423 OFFCURVE",
"20 403 CURVE",
"23 375 LINE",
"74 390 LINE",
"75 257 OFFCURVE",
"75 123 OFFCURVE",
"72 -10 CURVE"
);
},
{
closed = 1;
nodes = (
"439 65 OFFCURVE",
"365 159 OFFCURVE",
"365 259 CURVE SMOOTH",
"365 324 OFFCURVE",
"390 370 OFFCURVE",
"445 390 CURVE",
"543 390 OFFCURVE",
"613 291 OFFCURVE",
"613 191 CURVE SMOOTH",
"613 126 OFFCURVE",
"592 85 OFFCURVE",
"537 65 CURVE"
);
}
);
width = 713;
}
);
leftMetricsKey = r;
rightMetricsKey = o;
},
{
color = 4;
glyphname = s;
lastChange = "2020-01-30 12:51:55 +0000";
layers = (
{
layerId = UUID0;
paths = (
{
closed = 1;
nodes = (
"325 -10 OFFCURVE",
"403 69 OFFCURVE",
"403 161 CURVE SMOOTH",
"403 245 OFFCURVE",
"317 265 OFFCURVE",
"228 274 CURVE SMOOTH",
"152 282 OFFCURVE",
"104 294 OFFCURVE",
"104 349 CURVE SMOOTH",
"104 389 OFFCURVE",
"139 422 OFFCURVE",
"185 422 CURVE SMOOTH",
"230 422 OFFCURVE",
"267 391 OFFCURVE",
"301 350 CURVE",
"385 385 LINE",
"385 387 LINE",
"350 427 OFFCURVE",
"298 460 OFFCURVE",
"223 460 CURVE SMOOTH",
"133 460 OFFCURVE",
"43 408 OFFCURVE",
"43 328 CURVE SMOOTH",
"43 248 OFFCURVE",
"99 207 OFFCURVE",
"218 195 CURVE SMOOTH",
"309 186 OFFCURVE",
"348 165 OFFCURVE",
"348 117 CURVE SMOOTH",
"348 57 OFFCURVE",
"294 29 OFFCURVE",
"255 29 CURVE SMOOTH",
"191 29 OFFCURVE",
"141 83 OFFCURVE",
"113 148 CURVE",
"30 121 LINE",
"67 52 OFFCURVE",
"126 -10 OFFCURVE",
"240 -10 CURVE SMOOTH"
);
}
);
width = 423;
}
);
unicode = 0073;
},
{
color = 4;
glyphname = t;
lastChange = "2020-01-30 12:51:55 +0000";
layers = (
{
layerId = UUID0;
paths = (
{
closed = 1;
nodes = (
"212 -10 OFFCURVE",
"258 32 OFFCURVE",
"280 64 CURVE",
"276 70 LINE",
"253 61 OFFCURVE",
"231 53 OFFCURVE",
"204 53 CURVE SMOOTH",
"153 53 OFFCURVE",
"144 88 OFFCURVE",
"144 178 CURVE SMOOTH",
"144 399 LINE",
"271 399 LINE",
"281 450 LINE",
"145 450 LINE",
"154 552 LINE",
"139 556 LINE",
"110 509 OFFCURVE",
"56 451 OFFCURVE",
"20 410 CURVE",
"20 399 LINE",
"64 399 LINE",
"64 140 LINE SMOOTH",
"64 40 OFFCURVE",
"93 -10 OFFCURVE",
"181 -10 CURVE SMOOTH"
);
}
);
width = 291;
}
);
unicode = 0074;
},
{
color = 4;
glyphname = t_a;
lastChange = "2020-01-30 12:51:55 +0000";
layers = (
{
layerId = UUID0;
paths = (
{
closed = 1;
nodes = (
"283 64 LINE",
"297 32 OFFCURVE",
"324 4 OFFCURVE",
"358 -10 CURVE",
"381 0 OFFCURVE",
"464 47 OFFCURVE",
"503 84 CURVE",
"507 55 OFFCURVE",
"513 22 OFFCURVE",
"545 -10 CURVE",
"577 4 OFFCURVE",
"616 27 OFFCURVE",
"645 53 CURVE",
"643 71 LINE",
"598 53 OFFCURVE",
"580 69 OFFCURVE",
"580 115 CURVE SMOOTH",
"580 177 OFFCURVE",
"581 289 OFFCURVE",
"583 339 CURVE SMOOTH",
"585 394 OFFCURVE",
"518 460 OFFCURVE",
"436 460 CURVE SMOOTH",
"387 460 OFFCURVE",
"291 371 OFFCURVE",
"262 344 CURVE",
"277 324 LINE",
"313 358 OFFCURVE",
"371 392 OFFCURVE",
"411 392 CURVE SMOOTH",
"479 392 OFFCURVE",
"503 342 OFFCURVE",
"503 274 CURVE",
"424 230 OFFCURVE",
"319 188 OFFCURVE",
"279 145 CURVE",
"272 124 OFFCURVE",
"272 103 OFFCURVE",
"277 82 CURVE",
"250 68 OFFCURVE",
"224 60 OFFCURVE",
"198 60 CURVE SMOOTH",
"151 60 OFFCURVE",
"144 88 OFFCURVE",
"144 128 CURVE SMOOTH",
"144 400 LINE",
"301 400 LINE",
"311 450 LINE",
"147 450 LINE",
"177 550 LINE",
"164 555 LINE",
"115 502 OFFCURVE",
"66 453 OFFCURVE",
"20 410 CURVE",
"20 400 LINE",
"64 400 LINE",
"64 70 LINE SMOOTH",
"64 20 OFFCURVE",
"133 -10 OFFCURVE",
"171 -10 CURVE"
);
},
{
closed = 1;
nodes = (
"367 65 OFFCURVE",
"347 92 OFFCURVE",
"347 118 CURVE SMOOTH",
"347 155 OFFCURVE",
"358 189 OFFCURVE",
"503 245 CURVE",
"503 114 LINE",
"488 97 OFFCURVE",
"448 65 OFFCURVE",
"399 65 CURVE SMOOTH"
);
}
);
width = 650;
}
);
leftMetricsKey = t;
rightMetricsKey = a;
},
{
color = 4;
glyphname = t_i;
lastChange = "2020-01-30 12:51:55 +0000";
layers = (
{
layerId = UUID0;
paths = (
{
closed = 1;
nodes = (
"232 21 OFFCURVE",
"280 48 OFFCURVE",
"328 73 CURVE",
"325 -10 LINE",
"372 4 OFFCURVE",
"419 16 OFFCURVE",
"466 28 CURVE",
"466 58 LINE",
"409 47 LINE",
"409 455 LINE",
"400 460 LINE",
"383 450 LINE",
"151 450 LINE",
"187 556 LINE",
"174 561 LINE",
"127 502 OFFCURVE",
"51 428 OFFCURVE",
"20 401 CURVE",
"23 390 LINE",
"67 390 LINE",
"67 149 LINE SMOOTH",
"67 59 OFFCURVE",
"105 6 OFFCURVE",
"185 -10 CURVE"
);
},
{
closed = 1;
nodes = (
"197 75 OFFCURVE",
"147 93 OFFCURVE",
"147 158 CURVE SMOOTH",
"147 390 LINE",
"329 390 LINE",
"330 268 OFFCURVE",
"330 183 OFFCURVE",
"328 103 CURVE",
"304 90 OFFCURVE",
"256 75 OFFCURVE",
"228 75 CURVE SMOOTH"
);
},
{
closed = 1;
nodes = (
"405 600 LINE",
"465 699 LINE",
"465 700 LINE",
"399 700 LINE",
"346 601 LINE",
"346 600 LINE"
);
}
);
width = 481;
}
);
leftMetricsKey = t;
rightMetricsKey = i;
},
{
color = 4;
glyphname = u;
lastChange = "2020-01-30 12:51:55 +0000";
layers = (
{
layerId = UUID0;
paths = (
{
closed = 1;
nodes = (
"299 71 LINE",
"299 -5 LINE",
"306 -10 LINE",
"429 54 LINE",
"429 84 LINE",
"379 62 LINE",
"379 455 LINE",
"370 460 LINE",
"331 442 OFFCURVE",
"299 427 OFFCURVE",
"256 403 CURVE",
"256 373 LINE",
"299 385 LINE",
"299 100 LINE",
"274 85 OFFCURVE",
"229 65 OFFCURVE",
"202 65 CURVE SMOOTH",
"171 65 OFFCURVE",
"138 75 OFFCURVE",
"138 158 CURVE SMOOTH",
"138 455 LINE",
"129 460 LINE",
"89 435 OFFCURVE",
"57 418 OFFCURVE",
"15 395 CURVE",
"15 365 LINE",
"58 380 LINE",
"58 120 LINE SMOOTH",
"58 30 OFFCURVE",
"89 0 OFFCURVE",
"159 -10 CURVE"
);
}
);
width = 449;
}
);
unicode = 0075;
},
{
color = 4;
glyphname = v;
lastChange = "2020-01-30 12:43:14 +0000";
layers = (
{
layerId = UUID0;
paths = (
{
closed = 1;
nodes = (
"243 -20 LINE",
"471 431 LINE",
"470 438 LINE",
"325 438 LINE",
"325 408 LINE",
"411 408 LINE",
"270 105 LINE",
"143 455 LINE",
"134 459 LINE",
"102 434 OFFCURVE",
"59 404 OFFCURVE",
"5 367 CURVE",
"18 342 LINE",
"76 371 LINE",
"124 265 OFFCURVE",
"181 118 OFFCURVE",
"229 -20 CURVE"
);
}
);
width = 476;
}
);
unicode = 0076;
},
{
color = 4;
glyphname = w;
lastChange = "2020-01-30 12:51:55 +0000";
layers = (
{
layerId = UUID0;
paths = (
{
closed = 1;
nodes = (
"267 -10 LINE",
"373 244 LINE",
"431 117 LINE SMOOTH",
"452 71 OFFCURVE",
"466 39 OFFCURVE",
"480 -10 CURVE",
"490 -10 LINE",
"555 144 OFFCURVE",
"650 402 OFFCURVE",
"684 446 CURVE",
"682 450 LINE",
"558 450 LINE",
"558 420 LINE",
"619 418 LINE",
"509 125 LINE",
"462 238 OFFCURVE",
"416 345 OFFCURVE",
"365 460 CURVE",
"363 460 LINE",
"324 430 OFFCURVE",
"283 402 OFFCURVE",
"240 374 CURVE",
"251 347 LINE",
"305 382 LINE",
"356 284 LINE",
"286 125 LINE",
"238 237 OFFCURVE",
"191 351 OFFCURVE",
"136 460 CURVE",
"133 460 LINE",
"92 429 OFFCURVE",
"50 399 OFFCURVE",
"5 370 CURVE",
"22 343 LINE",
"76 378 LINE",
"211 104 LINE SMOOTH",
"226 74 OFFCURVE",
"243 30 OFFCURVE",
"257 -10 CURVE"
);
}
);
width = 689;
}
);
unicode = 0077;
},
{
color = 4;
glyphname = x;
lastChange = "2020-02-07 10:38:59 +0000";
layers = (
{
layerId = UUID0;
paths = (
{
closed = 1;
nodes = (
"375 -10 OFFCURVE",
"443 21 OFFCURVE",
"469 58 CURVE",
"460 79 LINE",
"404 44 OFFCURVE",
"379 85 OFFCURVE",
"332 164 CURVE SMOOTH",
"257 294 LINE",
"320 375 LINE",
"351 385 OFFCURVE",
"383 366 OFFCURVE",
"424 360 CURVE",
"437 392 OFFCURVE",
"453 416 OFFCURVE",
"475 447 CURVE",
"468 452 LINE",
"439 442 OFFCURVE",
"391 451 OFFCURVE",
"340 460 CURVE",
"242 328 LINE",
"208 381 LINE SMOOTH",
"176 431 OFFCURVE",
"148 455 OFFCURVE",
"104 460 CURVE",
"72 440 OFFCURVE",
"48 412 OFFCURVE",
"23 368 CURVE",
"39 349 LINE",
"59 371 OFFCURVE",
"68 390 OFFCURVE",
"95 390 CURVE SMOOTH",
"113 390 OFFCURVE",
"127 375 OFFCURVE",
"145 344 CURVE SMOOTH",
"161 316 OFFCURVE",
"176 290 OFFCURVE",
"192 261 CURVE",
"5 4 LINE",
"6 0 LINE",
"51 0 LINE",
"210 225 LINE",
"269 117 OFFCURVE",
"322 17 OFFCURVE",
"349 -10 CURVE"
);
}
);
width = 480;
}
);
unicode = 0078;
},
{
color = 4;
glyphname = y;
lastChange = "2020-02-07 10:38:36 +0000";
layers = (
{
layerId = UUID0;
paths = (
{
closed = 1;
nodes = (
"58 -271 OFFCURVE",
"93 -270 OFFCURVE",
"120 -270 CURVE",
"435 445 LINE",
"435 450 LINE",
"387 449 OFFCURVE",
"360 449 OFFCURVE",
"315 450 CURVE",
"315 420 LINE",
"379 420 LINE",
"259 135 LINE",
"207 242 OFFCURVE",
"161 352 OFFCURVE",
"115 459 CURVE",
"108 460 LINE",
"68 430 OFFCURVE",
"43 409 OFFCURVE",
"5 381 CURVE",
"9 349 LINE",
"56 377 LINE",
"218 48 LINE",
"169 -63 LINE SMOOTH",
"128 -156 OFFCURVE",
"83 -232 OFFCURVE",
"31 -259 CURVE",
"31 -274 LINE"
);
}
);
width = 440;
}
);
unicode = 0079;
},
{
color = 4;
glyphname = z;
lastChange = "2020-01-30 12:51:55 +0000";
layers = (
{
layerId = UUID0;
paths = (
{
closed = 1;
nodes = (
"72 19 OFFCURVE",
"90 35 OFFCURVE",
"125 35 CURVE SMOOTH",
"180 35 OFFCURVE",
"298 -10 OFFCURVE",
"358 -10 CURVE SMOOTH",
"373 -10 OFFCURVE",
"411 50 OFFCURVE",
"441 86 CURVE",
"424 100 LINE",
"396 75 OFFCURVE",
"376 65 OFFCURVE",
"354 65 CURVE SMOOTH",
"313 65 OFFCURVE",
"218 89 OFFCURVE",
"151 109 CURVE",
"425 441 LINE",
"404 455 LINE",
"378 434 OFFCURVE",
"341 423 OFFCURVE",
"305 423 CURVE SMOOTH",
"207 423 OFFCURVE",
"159 461 OFFCURVE",
"94 461 CURVE",
"71 441 OFFCURVE",
"43 402 OFFCURVE",
"15 345 CURVE",
"38 337 LINE",
"53 372 OFFCURVE",
"77 390 OFFCURVE",
"105 390 CURVE SMOOTH",
"152 390 OFFCURVE",
"239 345 OFFCURVE",
"310 353 CURVE",
"19 5 LINE",
"46 -10 LINE"
);
}
);
width = 451;
}
);
unicode = 007A;
},
{
color = 4;
glyphname = z.ss01;
lastChange = "2020-01-30 12:51:55 +0000";
layers = (
{
layerId = UUID0;
paths = (
{
closed = 1;
nodes = (
"358 -188 OFFCURVE",
"450 -106 OFFCURVE",
"450 0 CURVE SMOOTH",
"450 134 OFFCURVE",
"291 196 OFFCURVE",
"177 162 CURVE",
"279 254 OFFCURVE",
"399 347 OFFCURVE",
"507 439 CURVE",
"495 457 LINE",
"416 404 LINE",
"312 404 OFFCURVE",
"225 460 OFFCURVE",
"161 460 CURVE",
"126 440 OFFCURVE",
"77 383 OFFCURVE",
"47 329 CURVE",
"66 322 LINE",
"96 363 OFFCURVE",
"131 387 OFFCURVE",
"152 387 CURVE SMOOTH",
"195 387 OFFCURVE",
"276 346 OFFCURVE",
"329 334 CURVE",
"20 69 LINE",
"35 53 LINE",
"103 93 OFFCURVE",
"142 107 OFFCURVE",
"231 107 CURVE SMOOTH",
"283 107 OFFCURVE",
"413 74 OFFCURVE",
"413 -27 CURVE SMOOTH",
"413 -94 OFFCURVE",
"355 -144 OFFCURVE",
"297 -144 CURVE SMOOTH",
"251 -144 OFFCURVE",
"234 -127 OFFCURVE",
"221 -89 CURVE",
"162 -125 LINE",
"183 -163 OFFCURVE",
"217 -188 OFFCURVE",
"263 -188 CURVE SMOOTH"
);
}
);
width = 517;
}
);
},
{
color = 6;
glyphname = zero;
lastChange = "2020-01-30 12:51:55 +0000";
layers = (
{
layerId = UUID0;
paths = (
{
closed = 1;
nodes = (
"365 -10 OFFCURVE",
"467 81 OFFCURVE",
"467 207 CURVE SMOOTH",
"467 337 OFFCURVE",
"359 420 OFFCURVE",
"247 420 CURVE SMOOTH",
"137 420 OFFCURVE",
"30 329 OFFCURVE",
"30 203 CURVE SMOOTH",
"30 77 OFFCURVE",
"122 -10 OFFCURVE",
"244 -10 CURVE SMOOTH"
);
},
{
closed = 1;
nodes = (
"157 42 OFFCURVE",
"90 108 OFFCURVE",
"90 206 CURVE SMOOTH",
"90 294 OFFCURVE",
"156 370 OFFCURVE",
"247 370 CURVE SMOOTH",
"334 370 OFFCURVE",
"407 299 OFFCURVE",
"407 204 CURVE SMOOTH",
"407 106 OFFCURVE",
"337 42 OFFCURVE",
"244 42 CURVE SMOOTH"
);
}
);
width = 497;
}
);
unicode = 0030;
},
{
color = 6;
glyphname = one;
lastChange = "2020-02-07 10:31:48 +0000";
layers = (
{
layerId = UUID0;
paths = (
{
closed = 1;
nodes = (
"152 4 OFFCURVE",
"187 14 OFFCURVE",
"234 25 CURVE",
"234 56 LINE",
"171 41 LINE",
"170 164 OFFCURVE",
"174 290 OFFCURVE",
"178 413 CURVE",
"173 418 LINE",
"126 406 OFFCURVE",
"97 399 OFFCURVE",
"50 385 CURVE",
"50 355 LINE",
"110 363 LINE",
"110 239 OFFCURVE",
"109 114 OFFCURVE",
"105 -10 CURVE"
);
}
);
width = 284;
}
);
unicode = 0031;
},
{
color = 6;
glyphname = two;
lastChange = "2020-01-30 12:51:55 +0000";
layers = (
{
layerId = UUID0;
paths = (
{
closed = 1;
nodes = (
"433 0 LINE",
"495 96 LINE",
"479 102 LINE",
"447 69 OFFCURVE",
"427 59 OFFCURVE",
"368 59 CURVE SMOOTH",
"129 59 LINE",
"281 180 LINE SMOOTH",
"334 222 OFFCURVE",
"346 263 OFFCURVE",
"346 293 CURVE SMOOTH",
"346 366 OFFCURVE",
"287 420 OFFCURVE",
"217 420 CURVE SMOOTH",
"183 420 OFFCURVE",
"155 402 OFFCURVE",
"112 374 CURVE SMOOTH",
"39 326 LINE",
"41 293 LINE",
"100 335 OFFCURVE",
"135 359 OFFCURVE",
"183 359 CURVE SMOOTH",
"235 359 OFFCURVE",
"281 326 OFFCURVE",
"281 274 CURVE SMOOTH",
"281 197 OFFCURVE",
"155 112 OFFCURVE",
"30 17 CURVE",
"33 0 LINE"
);
}
);
width = 515;
}
);
unicode = 0032;
},
{
color = 6;
glyphname = three;
lastChange = "2020-01-30 12:51:55 +0000";
layers = (
{
layerId = UUID0;
paths = (
{
closed = 1;
nodes = (
"200 -280 OFFCURVE",
"374 -95 OFFCURVE",
"374 24 CURVE SMOOTH",
"374 93 OFFCURVE",
"323 134 OFFCURVE",
"261 156 CURVE",
"334 202 OFFCURVE",
"369 247 OFFCURVE",
"369 310 CURVE SMOOTH",
"369 363 OFFCURVE",
"300 422 OFFCURVE",
"228 422 CURVE SMOOTH",
"211 422 OFFCURVE",
"102 376 OFFCURVE",
"45 343 CURVE",
"51 320 LINE",
"94 337 OFFCURVE",
"158 366 OFFCURVE",
"196 366 CURVE SMOOTH",
"244 366 OFFCURVE",
"294 325 OFFCURVE",
"294 273 CURVE SMOOTH",
"294 228 OFFCURVE",
"272 188 OFFCURVE",
"215 156 CURVE SMOOTH",
"57 66 LINE",
"62 39 LINE",
"106 64 OFFCURVE",
"157 96 OFFCURVE",
"203 96 CURVE SMOOTH",
"261 96 OFFCURVE",
"300 49 OFFCURVE",
"300 -4 CURVE SMOOTH",
"300 -103 OFFCURVE",
"185 -239 OFFCURVE",
"108 -239 CURVE SMOOTH",
"62 -239 OFFCURVE",
"52 -224 OFFCURVE",
"36 -209 CURVE",
"17 -211 OFFCURVE",
"-1 -217 OFFCURVE",
"-20 -231 CURVE",
"-10 -255 OFFCURVE",
"19 -280 OFFCURVE",
"67 -280 CURVE SMOOTH"
);
}
);
width = 424;
}
);
unicode = 0033;
},
{
color = 6;
glyphname = four;
lastChange = "2020-01-30 12:51:55 +0000";
layers = (
{
layerId = UUID0;
paths = (
{
closed = 1;
nodes = (
"372 -265 LINE",
"372 0 LINE",
"459 0 LINE",
"500 81 LINE",
"495 86 LINE",
"455 55 OFFCURVE",
"433 55 OFFCURVE",
"371 55 CURVE",
"373 410 LINE",
"368 415 LINE",
"0 48 LINE",
"0 0 LINE",
"306 0 LINE",
"306 -279 LINE",
"308 -280 LINE"
);
},
{
closed = 1;
nodes = (
"304 306 LINE",
"304 55 LINE",
"53 55 LINE"
);
}
);
width = 530;
}
);
unicode = 0034;
},
{
color = 6;
glyphname = five;
lastChange = "2020-01-30 12:51:55 +0000";
layers = (
{
layerId = UUID0;
paths = (
{
closed = 1;
nodes = (
"212 -280 OFFCURVE",
"375 -49 OFFCURVE",
"375 65 CURVE SMOOTH",
"375 139 OFFCURVE",
"330 167 OFFCURVE",
"279 167 CURVE SMOOTH",
"238 167 OFFCURVE",
"186 143 OFFCURVE",
"131 108 CURVE",
"131 312 LINE",
"303 372 LINE",
"307 343 LINE",
"333 345 LINE",
"332 395 OFFCURVE",
"333 427 OFFCURVE",
"333 457 CURVE",
"327 459 LINE",
"71 353 LINE",
"71 53 LINE",
"82 46 LINE",
"154 97 OFFCURVE",
"196 117 OFFCURVE",
"233 117 CURVE SMOOTH",
"276 117 OFFCURVE",
"304 92 OFFCURVE",
"304 29 CURVE SMOOTH",
"304 -126 OFFCURVE",
"161 -240 OFFCURVE",
"89 -240 CURVE SMOOTH",
"61 -240 OFFCURVE",
"42 -227 OFFCURVE",
"26 -209 CURVE",
"8 -216 OFFCURVE",
"-11 -226 OFFCURVE",
"-20 -236 CURVE",
"-3 -266 OFFCURVE",
"35 -280 OFFCURVE",
"69 -280 CURVE SMOOTH"
);
}
);
width = 425;
}
);
unicode = 0035;
},
{
color = 6;
glyphname = six;
lastChange = "2020-01-30 12:51:55 +0000";
layers = (
{
layerId = UUID0;
paths = (
{
closed = 1;
nodes = (
"304 10 OFFCURVE",
"411 111 OFFCURVE",
"411 223 CURVE SMOOTH",
"411 326 OFFCURVE",
"335 385 OFFCURVE",
"235 395 CURVE",
"123 345 LINE",
"157 470 OFFCURVE",
"268 569 OFFCURVE",
"435 647 CURVE",
"435 655 LINE",
"392 675 LINE",
"166 558 OFFCURVE",
"50 388 OFFCURVE",
"50 225 CURVE SMOOTH",
"50 101 OFFCURVE",
"135 10 OFFCURVE",
"230 -10 CURVE"
);
},
{
closed = 1;
nodes = (
"186 55 OFFCURVE",
"112 138 OFFCURVE",
"112 262 CURVE SMOOTH",
"112 279 OFFCURVE",
"113 296 OFFCURVE",
"116 313 CURVE",
"134 325 OFFCURVE",
"169 339 OFFCURVE",
"210 339 CURVE SMOOTH",
"287 339 OFFCURVE",
"351 265 OFFCURVE",
"351 185 CURVE SMOOTH",
"351 111 OFFCURVE",
"316 55 OFFCURVE",
"263 55 CURVE SMOOTH"
);
}
);
width = 465;
}
);
unicode = 0036;
},
{
color = 6;
glyphname = seven;
lastChange = "2020-01-30 12:51:55 +0000";
layers = (
{
layerId = UUID0;
paths = (
{
closed = 1;
nodes = (
"402 248 LINE SMOOTH",
"428 276 OFFCURVE",
"469 315 OFFCURVE",
"496 330 CURVE",
"489 370 LINE",
"453 366 OFFCURVE",
"418 365 OFFCURVE",
"382 365 CURVE SMOOTH",
"43 365 LINE",
"21 268 LINE",
"30 263 LINE",
"45 282 OFFCURVE",
"80 305 OFFCURVE",
"161 305 CURVE SMOOTH",
"405 305 LINE",
"19 -65 LINE",
"15 -150 LINE",
"26 -153 LINE"
);
}
);
width = 516;
}
);
unicode = 0037;
},
{
color = 6;
glyphname = eight;
lastChange = "2020-01-30 12:51:55 +0000";
layers = (
{
layerId = UUID0;
paths = (
{
closed = 1;
nodes = (
"375 -10 OFFCURVE",
"473 60 OFFCURVE",
"473 155 CURVE SMOOTH",
"473 236 OFFCURVE",
"421 274 OFFCURVE",
"313 343 CURVE",
"384 388 OFFCURVE",
"457 431 OFFCURVE",
"457 498 CURVE SMOOTH",
"457 589 OFFCURVE",
"354 635 OFFCURVE",
"262 635 CURVE SMOOTH",
"169 635 OFFCURVE",
"61 588 OFFCURVE",
"61 492 CURVE SMOOTH",
"61 420 OFFCURVE",
"132 371 OFFCURVE",
"210 324 CURVE",
"106 278 OFFCURVE",
"50 224 OFFCURVE",
"50 145 CURVE SMOOTH",
"50 51 OFFCURVE",
"133 -10 OFFCURVE",
"262 -10 CURVE SMOOTH"
);
},
{
closed = 1;
nodes = (
"179 25 OFFCURVE",
"120 87 OFFCURVE",
"120 155 CURVE SMOOTH",
"120 209 OFFCURVE",
"147 259 OFFCURVE",
"237 308 CURVE",
"341 246 OFFCURVE",
"403 211 OFFCURVE",
"403 135 CURVE SMOOTH",
"403 60 OFFCURVE",
"329 25 OFFCURVE",
"262 25 CURVE SMOOTH"
);
},
{
closed = 1;
nodes = (
"215 405 OFFCURVE",
"125 443 OFFCURVE",
"125 510 CURVE SMOOTH",
"125 567 OFFCURVE",
"190 600 OFFCURVE",
"262 600 CURVE SMOOTH",
"345 600 OFFCURVE",
"392 548 OFFCURVE",
"392 495 CURVE SMOOTH",
"392 440 OFFCURVE",
"338 392 OFFCURVE",
"286 360 CURVE"
);
}
);
width = 523;
}
);
unicode = 0038;
},
{
color = 6;
glyphname = nine;
lastChange = "2020-01-30 12:51:55 +0000";
layers = (
{
layerId = UUID0;
paths = (
{
closed = 1;
nodes = (
"304 -108 OFFCURVE",
"420 62 OFFCURVE",
"420 225 CURVE SMOOTH",
"420 349 OFFCURVE",
"335 440 OFFCURVE",
"240 460 CURVE",
"166 440 OFFCURVE",
"59 339 OFFCURVE",
"59 227 CURVE SMOOTH",
"59 124 OFFCURVE",
"135 65 OFFCURVE",
"235 55 CURVE",
"347 105 LINE",
"313 -20 OFFCURVE",
"202 -119 OFFCURVE",
"35 -197 CURVE",
"35 -205 LINE",
"78 -225 LINE"
);
},
{
closed = 1;
nodes = (
"183 111 OFFCURVE",
"119 185 OFFCURVE",
"119 265 CURVE SMOOTH",
"119 339 OFFCURVE",
"154 395 OFFCURVE",
"207 395 CURVE SMOOTH",
"284 395 OFFCURVE",
"358 312 OFFCURVE",
"358 188 CURVE SMOOTH",
"358 171 OFFCURVE",
"357 154 OFFCURVE",
"354 137 CURVE",
"336 125 OFFCURVE",
"301 111 OFFCURVE",
"260 111 CURVE SMOOTH"
);
}
);
width = 470;
}
);
unicode = 0039;
},
{
color = 10;
glyphname = ampersand;
lastChange = "2020-01-30 12:51:55 +0000";
layers = (
{
layerId = UUID0;
paths = (
{
closed = 1;
nodes = (
"277 -10 OFFCURVE",
"359 91 OFFCURVE",
"393 140 CURVE",
"441 60 OFFCURVE",
"486 -10 OFFCURVE",
"544 -10 CURVE SMOOTH",
"594 -10 OFFCURVE",
"666 66 OFFCURVE",
"692 105 CURVE",
"670 125 LINE",
"632 78 OFFCURVE",
"595 76 OFFCURVE",
"575 76 CURVE SMOOTH",
"518 76 OFFCURVE",
"478 128 OFFCURVE",
"439 198 CURVE",
"563 367 LINE",
"577 360 OFFCURVE",
"599 344 OFFCURVE",
"621 334 CURVE",
"650 355 OFFCURVE",
"710 446 OFFCURVE",
"738 502 CURVE",
"714 516 LINE",
"688 472 OFFCURVE",
"669 441 OFFCURVE",
"643 441 CURVE SMOOTH",
"627 441 OFFCURVE",
"606 460 OFFCURVE",
"597 468 CURVE",
"589 468 LINE",
"417 230 LINE",
"381 280 OFFCURVE",
"344 313 OFFCURVE",
"300 330 CURVE",
"336 351 OFFCURVE",
"376 383 OFFCURVE",
"376 421 CURVE SMOOTH",
"376 481 OFFCURVE",
"312 524 OFFCURVE",
"240 524 CURVE SMOOTH",
"167 524 OFFCURVE",
"88 482 OFFCURVE",
"88 410 CURVE SMOOTH",
"88 373 OFFCURVE",
"108 338 OFFCURVE",
"174 315 CURVE",
"107 286 OFFCURVE",
"30 233 OFFCURVE",
"30 148 CURVE SMOOTH",
"30 54 OFFCURVE",
"100 -10 OFFCURVE",
"184 -10 CURVE SMOOTH"
);
},
{
closed = 1;
nodes = (
"138 65 OFFCURVE",
"105 117 OFFCURVE",
"105 173 CURVE SMOOTH",
"105 237 OFFCURVE",
"149 296 OFFCURVE",
"217 296 CURVE SMOOTH",
"268 296 OFFCURVE",
"331 245 OFFCURVE",
"373 175 CURVE",
"318 105 OFFCURVE",
"273 65 OFFCURVE",
"213 65 CURVE SMOOTH"
);
},
{
closed = 1;
nodes = (
"190 338 OFFCURVE",
"148 378 OFFCURVE",
"148 418 CURVE SMOOTH",
"148 458 OFFCURVE",
"185 484 OFFCURVE",
"234 484 CURVE SMOOTH",
"282 484 OFFCURVE",
"323 458 OFFCURVE",
"323 412 CURVE SMOOTH",
"323 368 OFFCURVE",
"280 338 OFFCURVE",
"250 338 CURVE SMOOTH"
);
}
);
width = 738;
}
);
unicode = 0026;
},
{
color = 10;
glyphname = parenleft;
lastChange = "2020-01-30 12:51:55 +0000";
layers = (
{
layerId = UUID0;
paths = (
{
closed = 1;
nodes = (
"271 -258 LINE",
"172 -95 OFFCURVE",
"125 79 OFFCURVE",
"125 239 CURVE SMOOTH",
"125 429 OFFCURVE",
"191 608 OFFCURVE",
"271 732 CURVE",
"244 751 LINE",
"154 638 OFFCURVE",
"58 443 OFFCURVE",
"58 239 CURVE SMOOTH",
"58 19 OFFCURVE",
"158 -159 OFFCURVE",
"243 -280 CURVE"
);
}
);
width = 321;
}
);
unicode = 0028;
},
{
color = 10;
glyphname = parenright;
lastChange = "2020-01-30 12:51:55 +0000";
layers = (
{
layerId = UUID0;
paths = (
{
closed = 1;
nodes = (
"163 -159 OFFCURVE",
"263 19 OFFCURVE",
"263 239 CURVE SMOOTH",
"263 443 OFFCURVE",
"167 638 OFFCURVE",
"77 751 CURVE",
"50 732 LINE",
"130 608 OFFCURVE",
"196 429 OFFCURVE",
"196 239 CURVE SMOOTH",
"196 79 OFFCURVE",
"149 -95 OFFCURVE",
"50 -258 CURVE",
"78 -280 LINE"
);
}
);
width = 321;
}
);
unicode = 0029;
},
{
color = 10;
glyphname = period;
lastChange = "2020-01-30 12:51:55 +0000";
layers = (
{
layerId = UUID0;
paths = (
{
closed = 1;
nodes = (
"103 -23 LINE",
"113 14 OFFCURVE",
"141 42 OFFCURVE",
"176 54 CURVE",
"176 64 LINE",
"141 79 OFFCURVE",
"115 99 OFFCURVE",
"103 141 CURVE",
"93 141 LINE",
"81 99 OFFCURVE",
"55 79 OFFCURVE",
"20 64 CURVE",
"20 54 LINE",
"55 42 OFFCURVE",
"83 14 OFFCURVE",
"93 -23 CURVE"
);
}
);
width = 196;
}
);
unicode = 002E;
},
{
color = 10;
glyphname = colon;
lastChange = "2020-01-30 12:51:55 +0000";
layers = (
{
layerId = UUID0;
paths = (
{
closed = 1;
nodes = (
"103 297 LINE",
"113 334 OFFCURVE",
"141 362 OFFCURVE",
"176 374 CURVE",
"176 384 LINE",
"141 399 OFFCURVE",
"115 419 OFFCURVE",
"103 461 CURVE",
"93 461 LINE",
"81 419 OFFCURVE",
"55 399 OFFCURVE",
"20 384 CURVE",
"20 374 LINE",
"55 362 OFFCURVE",
"83 334 OFFCURVE",
"93 297 CURVE"
);
},
{
closed = 1;
nodes = (
"103 -23 LINE",
"113 14 OFFCURVE",
"141 42 OFFCURVE",
"176 54 CURVE",
"176 64 LINE",
"141 79 OFFCURVE",
"115 99 OFFCURVE",
"103 141 CURVE",
"93 141 LINE",
"81 99 OFFCURVE",
"55 79 OFFCURVE",
"20 64 CURVE",
"20 54 LINE",
"55 42 OFFCURVE",
"83 14 OFFCURVE",
"93 -23 CURVE"
);
}
);
width = 196;
}
);
unicode = 003A;
},
{
color = 10;
glyphname = comma;
lastChange = "2020-02-07 10:35:50 +0000";
layers = (
{
layerId = UUID0;
paths = (
{
closed = 1;
nodes = (
"96 -138 OFFCURVE",
"137 -81 OFFCURVE",
"137 -24 CURVE SMOOTH",
"137 12 OFFCURVE",
"136 29 OFFCURVE",
"179 54 CURVE",
"179 64 LINE",
"149 75 OFFCURVE",
"114 107 OFFCURVE",
"103 141 CURVE",
"93 141 LINE",
"84 106 OFFCURVE",
"48 76 OFFCURVE",
"20 64 CURVE",
"20 54 LINE",
"60 35 OFFCURVE",
"76 -2 OFFCURVE",
"76 -43 CURVE SMOOTH",
"76 -74 OFFCURVE",
"62 -117 OFFCURVE",
"28 -147 CURVE",
"41 -166 LINE"
);
}
);
width = 199;
}
);
unicode = 002C;
},
{
color = 10;
glyphname = semicolon;
lastChange = "2020-02-07 10:36:11 +0000";
layers = (
{
layerId = UUID0;
paths = (
{
closed = 1;
nodes = (
"98 -138 OFFCURVE",
"139 -81 OFFCURVE",
"139 -24 CURVE SMOOTH",
"139 12 OFFCURVE",
"138 29 OFFCURVE",
"181 54 CURVE",
"181 64 LINE",
"151 75 OFFCURVE",
"116 107 OFFCURVE",
"105 141 CURVE",
"95 141 LINE",
"86 106 OFFCURVE",
"50 76 OFFCURVE",
"22 64 CURVE",
"22 54 LINE",
"62 35 OFFCURVE",
"78 -2 OFFCURVE",
"78 -43 CURVE SMOOTH",
"78 -74 OFFCURVE",
"64 -117 OFFCURVE",
"30 -147 CURVE",
"43 -166 LINE"
);
},
{
closed = 1;
nodes = (
"103 296 LINE",
"113 333 OFFCURVE",
"141 361 OFFCURVE",
"176 373 CURVE",
"176 383 LINE",
"141 398 OFFCURVE",
"115 418 OFFCURVE",
"103 460 CURVE",
"93 460 LINE",
"81 418 OFFCURVE",
"55 398 OFFCURVE",
"20 383 CURVE",
"20 373 LINE",
"55 361 OFFCURVE",
"83 333 OFFCURVE",
"93 296 CURVE"
);
}
);
width = 201;
}
);
unicode = 003B;
},
{
color = 10;
glyphname = question;
lastChange = "2020-02-07 10:37:26 +0000";
layers = (
{
layerId = UUID0;
paths = (
{
closed = 1;
nodes = (
"135 212 LINE",
"127 325 LINE",
"193 366 OFFCURVE",
"267 426 OFFCURVE",
"267 522 CURVE SMOOTH",
"267 632 OFFCURVE",
"176 710 OFFCURVE",
"20 710 CURVE",
"49 597 LINE",
"127 606 OFFCURVE",
"197 582 OFFCURVE",
"197 504 CURVE SMOOTH",
"197 424 OFFCURVE",
"130 377 OFFCURVE",
"77 351 CURVE",
"77 197 LINE"
);
},
{
closed = 1;
nodes = (
"116 -23 LINE",
"126 14 OFFCURVE",
"154 42 OFFCURVE",
"189 54 CURVE",
"189 64 LINE",
"154 79 OFFCURVE",
"128 99 OFFCURVE",
"116 141 CURVE",
"106 141 LINE",
"94 99 OFFCURVE",
"68 79 OFFCURVE",
"33 64 CURVE",
"33 54 LINE",
"68 42 OFFCURVE",
"96 14 OFFCURVE",
"106 -23 CURVE"
);
}
);
width = 277;
}
);
unicode = 003F;
},
{
color = 10;
glyphname = exclam;
lastChange = "2020-02-07 10:37:32 +0000";
layers = (
{
layerId = UUID0;
paths = (
{
closed = 1;
nodes = (
"126 209 LINE",
"163 709 LINE",
"160 710 LINE",
"120 689 OFFCURVE",
"82 672 OFFCURVE",
"48 657 CURVE",
"90 204 LINE"
);
},
{
closed = 1;
nodes = (
"113 -23 LINE",
"123 14 OFFCURVE",
"151 42 OFFCURVE",
"186 54 CURVE",
"186 64 LINE",
"151 79 OFFCURVE",
"125 99 OFFCURVE",
"113 141 CURVE",
"103 141 LINE",
"91 99 OFFCURVE",
"65 79 OFFCURVE",
"30 64 CURVE",
"30 54 LINE",
"65 42 OFFCURVE",
"93 14 OFFCURVE",
"103 -23 CURVE"
);
}
);
width = 216;
}
);
unicode = 0021;
},
{
color = 10;
glyphname = hyphen;
lastChange = "2020-01-30 12:51:55 +0000";
layers = (
{
layerId = UUID0;
paths = (
{
closed = 1;
nodes = (
"266 242 LINE",
"261 331 LINE",
"258 332 LINE",
"20 184 LINE",
"24 106 LINE",
"26 105 LINE"
);
}
);
width = 286;
}
);
unicode = 002D;
},
{
color = 10;
glyphname = quotesingle;
lastChange = "2020-02-07 10:37:41 +0000";
layers = (
{
layerId = UUID0;
paths = (
{
closed = 1;
nodes = (
"96 431 OFFCURVE",
"137 488 OFFCURVE",
"137 545 CURVE SMOOTH",
"137 581 OFFCURVE",
"136 600 OFFCURVE",
"179 623 CURVE",
"179 633 LINE",
"144 647 OFFCURVE",
"112 679 OFFCURVE",
"103 710 CURVE",
"93 710 LINE",
"81 674 OFFCURVE",
"52 648 OFFCURVE",
"20 633 CURVE",
"20 623 LINE",
"56 608 OFFCURVE",
"76 577 OFFCURVE",
"76 531 CURVE SMOOTH",
"76 495 OFFCURVE",
"62 452 OFFCURVE",
"28 422 CURVE",
"41 403 LINE"
);
}
);
width = 199;
}
);
leftMetricsKey = comma;
rightMetricsKey = comma;
unicode = 0027;
},
{
color = 10;
glyphname = paragraph;
lastChange = "2020-02-07 10:37:57 +0000";
layers = (
{
layerId = UUID0;
paths = (
{
closed = 1;
nodes = (
"630 -250 LINE",
"618 -199 OFFCURVE",
"607 -136 OFFCURVE",
"605 -22 CURVE SMOOTH",
"601 203 OFFCURVE",
"610 440 OFFCURVE",
"616 665 CURVE",
"663 664 LINE",
"663 700 LINE",
"499 700 LINE SMOOTH",
"279 700 OFFCURVE",
"100 542 OFFCURVE",
"100 292 CURVE SMOOTH",
"100 62 OFFCURVE",
"231 -105 OFFCURVE",
"451 -105 CURVE SMOOTH",
"558 -105 LINE",
"568 -159 OFFCURVE",
"575 -216 OFFCURVE",
"586 -260 CURVE"
);
},
{
closed = 1;
nodes = (
"305 -66 OFFCURVE",
"250 51 OFFCURVE",
"250 301 CURVE SMOOTH",
"250 551 OFFCURVE",
"305 655 OFFCURVE",
"485 655 CURVE",
"487 421 OFFCURVE",
"487 168 OFFCURVE",
"485 -66 CURVE"
);
},
{
closed = 1;
nodes = (
"535 660 LINE",
"564 660 LINE",
"564 -70 LINE",
"535 -70 LINE"
);
}
);
width = 763;
}
);
unicode = 00B6;
},
{
glyphname = mark;
lastChange = "2020-01-30 12:51:55 +0000";
layers = (
{
layerId = UUID0;
paths = (
{
closed = 1;
nodes = (
"399 -21 OFFCURVE",
"411 -23 OFFCURVE",
"423 -19 CURVE SMOOTH",
"430 -17 OFFCURVE",
"436 -17 OFFCURVE",
"443 -16 CURVE SMOOTH",
"449 -16 OFFCURVE",
"455 -16 OFFCURVE",
"457 -9 CURVE",
"459 -11 OFFCURVE",
"461 -12 OFFCURVE",
"461 -14 CURVE",
"474 -11 OFFCURVE",
"484 -5 OFFCURVE",
"496 -4 CURVE SMOOTH",
"505 -2 OFFCURVE",
"513 2 OFFCURVE",
"519 7 CURVE",
"523 7 OFFCURVE",
"525 8 OFFCURVE",
"525 8 CURVE",
"537 14 OFFCURVE",
"548 18 OFFCURVE",
"554 25 CURVE",
"558 26 OFFCURVE",
"563 28 OFFCURVE",
"567 31 CURVE",
"572 33 OFFCURVE",
"576 39 OFFCURVE",
"581 41 CURVE SMOOTH",
"586 43 OFFCURVE",
"589 47 OFFCURVE",
"593 52 CURVE",
"596 53 OFFCURVE",
"596 55 OFFCURVE",
"597 55 CURVE",
"602 60 OFFCURVE",
"608 64 OFFCURVE",
"612 67 CURVE",
"615 71 OFFCURVE",
"618 74 OFFCURVE",
"621 76 CURVE SMOOTH",
"625 79 OFFCURVE",
"628 83 OFFCURVE",
"630 87 CURVE",
"635 90 OFFCURVE",
"640 95 OFFCURVE",
"645 101 CURVE SMOOTH",
"647 103 OFFCURVE",
"649 108 OFFCURVE",
"653 111 CURVE",
"659 120 OFFCURVE",
"666 128 OFFCURVE",
"672 138 CURVE SMOOTH",
"678 147 OFFCURVE",
"683 155 OFFCURVE",
"686 164 CURVE",
"691 173 OFFCURVE",
"693 182 OFFCURVE",
"697 188 CURVE",
"705 205 OFFCURVE",
"711 223 OFFCURVE",
"715 240 CURVE SMOOTH",
"718 258 OFFCURVE",
"720 277 OFFCURVE",
"723 296 CURVE",
"723 300 OFFCURVE",
"725 303 OFFCURVE",
"725 308 CURVE SMOOTH",
"725 323 OFFCURVE",
"728 339 OFFCURVE",
"723 353 CURVE",
"722 364 OFFCURVE",
"722 372 OFFCURVE",
"720 381 CURVE",
"720 384 OFFCURVE",
"718 388 OFFCURVE",
"718 392 CURVE",
"717 393 OFFCURVE",
"717 395 OFFCURVE",
"715 396 CURVE",
"713 413 OFFCURVE",
"707 428 OFFCURVE",
"703 442 CURVE",
"699 447 OFFCURVE",
"699 452 OFFCURVE",
"695 454 CURVE",
"692 459 OFFCURVE",
"691 464 OFFCURVE",
"688 467 CURVE",
"688 469 OFFCURVE",
"686 473 OFFCURVE",
"686 475 CURVE",
"681 483 OFFCURVE",
"676 494 OFFCURVE",
"669 503 CURVE SMOOTH",
"666 506 OFFCURVE",
"662 510 OFFCURVE",
"658 515 CURVE SMOOTH",
"652 525 OFFCURVE",
"645 536 OFFCURVE",
"633 545 CURVE",
"625 554 OFFCURVE",
"616 561 OFFCURVE",
"608 570 CURVE SMOOTH",
"598 579 OFFCURVE",
"591 585 OFFCURVE",
"581 591 CURVE SMOOTH",
"576 594 OFFCURVE",
"569 598 OFFCURVE",
"561 601 CURVE SMOOTH",
"552 605 OFFCURVE",
"544 610 OFFCURVE",
"535 613 CURVE",
"533 615 OFFCURVE",
"530 615 OFFCURVE",
"527 618 CURVE SMOOTH",
"525 620 LINE",
"527 624 OFFCURVE",
"523 624 OFFCURVE",
"521 626 CURVE",
"517 626 OFFCURVE",
"513 628 OFFCURVE",
"511 630 CURVE",
"503 632 OFFCURVE",
"496 632 OFFCURVE",
"489 637 CURVE",
"480 639 OFFCURVE",
"474 642 OFFCURVE",
"465 644 CURVE SMOOTH",
"457 645 OFFCURVE",
"452 645 OFFCURVE",
"445 647 CURVE SMOOTH",
"430 651 OFFCURVE",
"417 655 OFFCURVE",
"403 652 CURVE",
"401 652 OFFCURVE",
"399 652 OFFCURVE",
"398 655 CURVE",
"392 655 OFFCURVE",
"389 655 OFFCURVE",
"383 652 CURVE",
"381 652 OFFCURVE",
"380 651 OFFCURVE",
"380 652 CURVE",
"368 652 LINE SMOOTH",
"364 652 OFFCURVE",
"359 652 OFFCURVE",
"357 649 CURVE",
"353 651 OFFCURVE",
"350 651 OFFCURVE",
"347 651 CURVE SMOOTH",
"341 651 OFFCURVE",
"333 649 OFFCURVE",
"328 649 CURVE",
"320 647 OFFCURVE",
"311 644 OFFCURVE",
"302 642 CURVE SMOOTH",
"288 640 OFFCURVE",
"274 632 OFFCURVE",
"260 628 CURVE",
"251 624 OFFCURVE",
"240 620 OFFCURVE",
"232 613 CURVE",
"221 608 OFFCURVE",
"211 603 OFFCURVE",
"201 596 CURVE SMOOTH",
"194 591 OFFCURVE",
"186 587 OFFCURVE",
"182 579 CURVE",
"184 576 OFFCURVE",
"186 573 OFFCURVE",
"188 572 CURVE",
"194 576 LINE SMOOTH",
"200 581 OFFCURVE",
"205 584 OFFCURVE",
"211 587 CURVE",
"219 593 OFFCURVE",
"228 598 OFFCURVE",
"238 603 CURVE SMOOTH",
"251 610 OFFCURVE",
"261 615 OFFCURVE",
"274 620 CURVE SMOOTH",
"286 624 OFFCURVE",
"300 628 OFFCURVE",
"315 632 CURVE",
"321 632 OFFCURVE",
"327 634 OFFCURVE",
"333 637 CURVE",
"353 639 OFFCURVE",
"372 640 OFFCURVE",
"392 640 CURVE SMOOTH",
"406 640 OFFCURVE",
"422 640 OFFCURVE",
"438 637 CURVE SMOOTH",
"459 632 OFFCURVE",
"482 628 OFFCURVE",
"503 620 CURVE",
"505 620 LINE",
"508 618 OFFCURVE",
"513 615 OFFCURVE",
"515 613 CURVE",
"523 610 OFFCURVE",
"532 607 OFFCURVE",
"538 603 CURVE SMOOTH",
"545 598 OFFCURVE",
"552 594 OFFCURVE",
"560 591 CURVE SMOOTH",
"572 585 OFFCURVE",
"581 579 OFFCURVE",
"589 570 CURVE SMOOTH",
"591 568 OFFCURVE",
"593 566 OFFCURVE",
"597 564 CURVE",
"616 550 OFFCURVE",
"633 530 OFFCURVE",
"647 510 CURVE SMOOTH",
"659 494 OFFCURVE",
"671 476 OFFCURVE",
"678 459 CURVE SMOOTH",
"685 442 OFFCURVE",
"692 428 OFFCURVE",
"697 411 CURVE",
"701 403 OFFCURVE",
"703 393 OFFCURVE",
"704 384 CURVE SMOOTH",
"705 376 OFFCURVE",
"705 368 OFFCURVE",
"707 359 CURVE",
"710 355 OFFCURVE",
"710 349 OFFCURVE",
"710 343 CURVE SMOOTH",
"711 323 OFFCURVE",
"713 303 OFFCURVE",
"710 284 CURVE SMOOTH",
"707 269 OFFCURVE",
"705 254 OFFCURVE",
"703 238 CURVE",
"695 213 OFFCURVE",
"686 187 OFFCURVE",
"674 164 CURVE SMOOTH",
"664 145 OFFCURVE",
"653 127 OFFCURVE",
"639 111 CURVE SMOOTH",
"627 97 OFFCURVE",
"615 83 OFFCURVE",
"600 72 CURVE",
"598 72 OFFCURVE",
"597 71 OFFCURVE",
"597 71 CURVE",
"588 62 OFFCURVE",
"579 55 OFFCURVE",
"569 47 CURVE",
"561 43 OFFCURVE",
"556 39 OFFCURVE",
"549 35 CURVE SMOOTH",
"542 32 OFFCURVE",
"535 26 OFFCURVE",
"525 23 CURVE SMOOTH",
"508 16 OFFCURVE",
"493 8 OFFCURVE",
"474 4 CURVE SMOOTH",
"465 2 OFFCURVE",
"455 -2 OFFCURVE",
"445 -4 CURVE",
"423 -5 OFFCURVE",
"401 -9 OFFCURVE",
"380 -6 CURVE",
"368 -6 OFFCURVE",
"355 -5 OFFCURVE",
"343 -4 CURVE SMOOTH",
"328 -4 LINE",
"325 -2 OFFCURVE",
"320 0 OFFCURVE",
"315 0 CURVE",
"311 2 OFFCURVE",
"306 4 OFFCURVE",
"300 6 CURVE SMOOTH",
"296 7 OFFCURVE",
"292 7 OFFCURVE",
"286 8 CURVE",
"281 11 OFFCURVE",
"276 13 OFFCURVE",
"270 16 CURVE SMOOTH",
"257 23 OFFCURVE",
"240 26 OFFCURVE",
"228 35 CURVE SMOOTH",
"218 41 OFFCURVE",
"207 45 OFFCURVE",
"199 53 CURVE",
"166 79 LINE",
"152 93 OFFCURVE",
"138 109 OFFCURVE",
"128 126 CURVE SMOOTH",
"116 143 OFFCURVE",
"104 159 OFFCURVE",
"96 178 CURVE SMOOTH",
"89 194 OFFCURVE",
"81 211 OFFCURVE",
"77 227 CURVE SMOOTH",
"75 238 OFFCURVE",
"71 250 OFFCURVE",
"69 262 CURVE SMOOTH",
"68 269 OFFCURVE",
"66 275 OFFCURVE",
"66 282 CURVE SMOOTH",
"66 291 OFFCURVE",
"64 298 OFFCURVE",
"62 307 CURVE",
"64 312 OFFCURVE",
"64 318 OFFCURVE",
"64 325 CURVE SMOOTH",
"64 337 OFFCURVE",
"66 349 OFFCURVE",
"68 362 CURVE SMOOTH",
"69 376 OFFCURVE",
"72 392 OFFCURVE",
"77 405 CURVE",
"77 411 OFFCURVE",
"79 415 OFFCURVE",
"77 420 CURVE",
"77 422 OFFCURVE",
"79 425 OFFCURVE",
"80 428 CURVE",
"80 428 OFFCURVE",
"80 430 OFFCURVE",
"79 432 CURVE",
"81 434 OFFCURVE",
"84 434 OFFCURVE",
"85 434 CURVE",
"91 448 OFFCURVE",
"98 460 OFFCURVE",
"104 473 CURVE",
"104 478 LINE",
"101 479 OFFCURVE",
"104 479 OFFCURVE",
"104 481 CURVE",
"104 481 OFFCURVE",
"104 483 OFFCURVE",
"106 483 CURVE",
"104 481 LINE",
"104 478 LINE",
"108 481 OFFCURVE",
"110 483 OFFCURVE",
"114 488 CURVE",
"123 505 OFFCURVE",
"135 518 OFFCURVE",
"147 535 CURVE SMOOTH",
"154 543 OFFCURVE",
"163 552 OFFCURVE",
"172 559 CURVE SMOOTH",
"175 562 OFFCURVE",
"179 566 OFFCURVE",
"182 568 CURVE",
"176 575 OFFCURVE",
"175 575 OFFCURVE",
"170 572 CURVE",
"164 566 OFFCURVE",
"160 561 OFFCURVE",
"154 557 CURVE",
"154 556 OFFCURVE",
"152 554 OFFCURVE",
"152 552 CURVE SMOOTH",
"152 548 OFFCURVE",
"151 547 OFFCURVE",
"149 550 CURVE",
"147 548 OFFCURVE",
"145 547 OFFCURVE",
"143 547 CURVE",
"140 542 OFFCURVE",
"136 537 OFFCURVE",
"133 533 CURVE",
"117 518 OFFCURVE",
"106 499 OFFCURVE",
"96 479 CURVE",
"94 478 OFFCURVE",
"92 475 OFFCURVE",
"91 473 CURVE",
"85 466 OFFCURVE",
"84 459 OFFCURVE",
"84 452 CURVE",
"81 452 OFFCURVE",
"80 450 OFFCURVE",
"80 450 CURVE",
"81 448 OFFCURVE",
"80 447 OFFCURVE",
"79 444 CURVE",
"79 442 OFFCURVE",
"77 442 OFFCURVE",
"77 441 CURVE",
"72 434 OFFCURVE",
"71 428 OFFCURVE",
"69 422 CURVE SMOOTH",
"68 415 OFFCURVE",
"66 407 OFFCURVE",
"62 401 CURVE",
"60 393 OFFCURVE",
"59 386 OFFCURVE",
"57 381 CURVE",
"56 371 OFFCURVE",
"52 359 OFFCURVE",
"53 351 CURVE SMOOTH",
"53 349 OFFCURVE",
"52 347 OFFCURVE",
"52 345 CURVE SMOOTH",
"52 340 OFFCURVE",
"50 333 OFFCURVE",
"50 326 CURVE SMOOTH",
"50 320 OFFCURVE",
"52 312 OFFCURVE",
"52 303 CURVE",
"50 291 OFFCURVE",
"56 279 OFFCURVE",
"53 267 CURVE",
"53 264 OFFCURVE",
"53 262 OFFCURVE",
"56 262 CURVE",
"56 258 OFFCURVE",
"57 252 OFFCURVE",
"57 249 CURVE",
"59 247 OFFCURVE",
"59 243 OFFCURVE",
"59 242 CURVE",
"69 208 LINE",
"72 201 OFFCURVE",
"75 194 OFFCURVE",
"77 188 CURVE SMOOTH",
"79 184 OFFCURVE",
"80 178 OFFCURVE",
"81 175 CURVE",
"99 141 LINE",
"104 135 OFFCURVE",
"108 127 OFFCURVE",
"116 122 CURVE",
"118 118 OFFCURVE",
"120 115 OFFCURVE",
"123 111 CURVE SMOOTH",
"124 109 OFFCURVE",
"126 108 OFFCURVE",
"128 103 CURVE",
"135 97 OFFCURVE",
"142 91 OFFCURVE",
"149 83 CURVE",
"151 79 OFFCURVE",
"154 76 OFFCURVE",
"157 74 CURVE SMOOTH",
"164 69 OFFCURVE",
"172 64 OFFCURVE",
"176 56 CURVE",
"186 52 OFFCURVE",
"193 44 OFFCURVE",
"200 37 CURVE",
"201 37 LINE",
"209 33 OFFCURVE",
"213 32 OFFCURVE",
"219 28 CURVE SMOOTH",
"232 21 OFFCURVE",
"242 13 OFFCURVE",
"255 8 CURVE",
"258 8 LINE",
"261 7 OFFCURVE",
"265 6 OFFCURVE",
"269 4 CURVE",
"270 2 OFFCURVE",
"274 2 OFFCURVE",
"276 2 CURVE",
"286 -4 OFFCURVE",
"296 -5 OFFCURVE",
"306 -9 CURVE",
"308 -9 OFFCURVE",
"308 -9 OFFCURVE",
"308 -11 CURVE",
"313 -14 OFFCURVE",
"318 -14 OFFCURVE",
"321 -14 CURVE SMOOTH",
"325 -14 OFFCURVE",
"328 -16 OFFCURVE",
"332 -16 CURVE SMOOTH",
"333 -16 OFFCURVE",
"337 -17 OFFCURVE",
"340 -17 CURVE SMOOTH",
"347 -17 OFFCURVE",
"357 -17 OFFCURVE",
"366 -19 CURVE",
"369 -21 OFFCURVE",
"372 -21 OFFCURVE",
"376 -17 CURVE",
"380 -19 OFFCURVE",
"383 -21 OFFCURVE",
"387 -21 CURVE SMOOTH"
);
},
{
closed = 1;
nodes = (
"246 53 OFFCURVE",
"238 56 OFFCURVE",
"237 65 CURVE",
"242 78 OFFCURVE",
"249 78 OFFCURVE",
"261 65 CURVE",
"260 62 OFFCURVE",
"257 56 OFFCURVE",
"252 52 CURVE"
);
},
{
closed = 1;
nodes = (
"203 83 OFFCURVE",
"207 89 OFFCURVE",
"209 91 CURVE SMOOTH",
"216 99 OFFCURVE",
"221 106 OFFCURVE",
"228 113 CURVE SMOOTH",
"230 115 OFFCURVE",
"233 116 OFFCURVE",
"236 118 CURVE",
"237 118 OFFCURVE",
"238 120 OFFCURVE",
"240 120 CURVE",
"230 130 OFFCURVE",
"219 139 OFFCURVE",
"209 150 CURVE",
"205 147 OFFCURVE",
"201 145 OFFCURVE",
"199 143 CURVE",
"199 141 LINE",
"212 139 OFFCURVE",
"216 136 OFFCURVE",
"223 127 CURVE",
"221 122 OFFCURVE",
"218 116 OFFCURVE",
"213 113 CURVE",
"211 109 OFFCURVE",
"207 111 OFFCURVE",
"205 113 CURVE",
"201 113 OFFCURVE",
"201 116 OFFCURVE",
"201 118 CURVE SMOOTH",
"201 126 LINE",
"196 122 OFFCURVE",
"194 116 OFFCURVE",
"193 111 CURVE",
"199 109 OFFCURVE",
"201 108 OFFCURVE",
"205 103 CURVE",
"200 97 OFFCURVE",
"196 93 OFFCURVE",
"193 89 CURVE",
"191 91 OFFCURVE",
"188 93 OFFCURVE",
"184 97 CURVE SMOOTH",
"181 101 OFFCURVE",
"179 103 OFFCURVE",
"181 109 CURVE",
"181 109 OFFCURVE",
"179 111 OFFCURVE",
"179 113 CURVE",
"179 113 OFFCURVE",
"176 113 OFFCURVE",
"176 115 CURVE",
"175 109 OFFCURVE",
"174 106 OFFCURVE",
"172 103 CURVE",
"179 93 OFFCURVE",
"193 81 OFFCURVE",
"201 78 CURVE"
);
},
{
closed = 1;
nodes = (
"162 123 OFFCURVE",
"168 126 OFFCURVE",
"174 130 CURVE",
"175 132 OFFCURVE",
"176 136 OFFCURVE",
"176 139 CURVE SMOOTH",
"175 145 OFFCURVE",
"175 151 OFFCURVE",
"170 157 CURVE",
"168 161 OFFCURVE",
"168 164 OFFCURVE",
"168 167 CURVE",
"170 173 OFFCURVE",
"174 175 OFFCURVE",
"176 173 CURVE",
"188 169 OFFCURVE",
"193 164 OFFCURVE",
"189 151 CURVE",
"189 147 LINE",
"194 150 OFFCURVE",
"196 155 OFFCURVE",
"201 159 CURVE",
"196 164 OFFCURVE",
"193 171 OFFCURVE",
"188 176 CURVE",
"184 182 OFFCURVE",
"176 184 OFFCURVE",
"170 179 CURVE",
"164 178 OFFCURVE",
"157 175 OFFCURVE",
"157 166 CURVE SMOOTH",
"157 163 LINE",
"155 159 OFFCURVE",
"157 155 OFFCURVE",
"160 151 CURVE SMOOTH",
"162 148 OFFCURVE",
"163 143 OFFCURVE",
"164 139 CURVE SMOOTH",
"164 135 OFFCURVE",
"160 130 OFFCURVE",
"154 132 CURVE",
"151 132 OFFCURVE",
"149 136 OFFCURVE",
"149 139 CURVE",
"147 143 OFFCURVE",
"147 147 OFFCURVE",
"147 150 CURVE SMOOTH",
"147 151 OFFCURVE",
"149 155 OFFCURVE",
"145 157 CURVE",
"142 154 LINE SMOOTH",
"136 147 OFFCURVE",
"135 145 OFFCURVE",
"140 139 CURVE SMOOTH",
"143 135 OFFCURVE",
"147 130 OFFCURVE",
"151 127 CURVE",
"151 127 OFFCURVE",
"152 126 OFFCURVE",
"154 126 CURVE"
);
},
{
closed = 1;
nodes = (
"261 44 OFFCURVE",
"263 45 OFFCURVE",
"263 50 CURVE",
"265 53 OFFCURVE",
"265 55 OFFCURVE",
"267 58 CURVE SMOOTH",
"272 65 OFFCURVE",
"276 74 OFFCURVE",
"281 81 CURVE",
"281 83 OFFCURVE",
"283 87 OFFCURVE",
"284 89 CURVE",
"286 90 OFFCURVE",
"288 90 OFFCURVE",
"292 91 CURVE",
"284 95 OFFCURVE",
"279 99 OFFCURVE",
"272 101 CURVE",
"274 93 OFFCURVE",
"274 90 OFFCURVE",
"272 87 CURVE SMOOTH",
"270 83 OFFCURVE",
"269 79 OFFCURVE",
"265 74 CURVE",
"263 76 OFFCURVE",
"260 76 OFFCURVE",
"258 78 CURVE",
"255 79 OFFCURVE",
"255 81 OFFCURVE",
"255 84 CURVE SMOOTH",
"255 89 OFFCURVE",
"257 93 OFFCURVE",
"257 97 CURVE SMOOTH",
"257 103 OFFCURVE",
"255 109 OFFCURVE",
"251 115 CURVE",
"251 115 OFFCURVE",
"249 116 OFFCURVE",
"248 116 CURVE",
"244 118 OFFCURVE",
"242 116 OFFCURVE",
"242 113 CURVE",
"244 106 OFFCURVE",
"244 101 OFFCURVE",
"246 95 CURVE SMOOTH",
"248 91 OFFCURVE",
"248 87 OFFCURVE",
"248 83 CURVE",
"242 83 OFFCURVE",
"238 81 OFFCURVE",
"233 81 CURVE",
"230 79 OFFCURVE",
"228 78 OFFCURVE",
"228 74 CURVE SMOOTH",
"228 65 OFFCURVE",
"230 58 OFFCURVE",
"237 53 CURVE",
"244 50 OFFCURVE",
"249 45 OFFCURVE",
"257 43 CURVE SMOOTH",
"258 43 OFFCURVE",
"260 41 OFFCURVE",
"261 41 CURVE"
);
},
{
closed = 1;
nodes = (
"300 32 OFFCURVE",
"298 32 OFFCURVE",
"296 33 CURVE SMOOTH",
"289 35 OFFCURVE",
"286 41 OFFCURVE",
"288 45 CURVE",
"289 52 OFFCURVE",
"296 55 OFFCURVE",
"302 52 CURVE",
"304 52 OFFCURVE",
"308 50 OFFCURVE",
"308 47 CURVE SMOOTH",
"308 43 OFFCURVE",
"308 41 OFFCURVE",
"304 32 CURVE"
);
},
{
closed = 1;
nodes = (
"129 175 OFFCURVE",
"133 175 OFFCURVE",
"136 176 CURVE",
"142 176 OFFCURVE",
"145 179 OFFCURVE",
"145 184 CURVE SMOOTH",
"145 192 OFFCURVE",
"145 199 OFFCURVE",
"142 206 CURVE",
"142 208 OFFCURVE",
"140 211 OFFCURVE",
"140 211 CURVE",
"140 215 OFFCURVE",
"140 219 OFFCURVE",
"143 221 CURVE SMOOTH",
"147 223 OFFCURVE",
"151 223 OFFCURVE",
"154 221 CURVE SMOOTH",
"160 217 OFFCURVE",
"162 211 OFFCURVE",
"162 205 CURVE SMOOTH",
"162 201 OFFCURVE",
"160 198 OFFCURVE",
"160 194 CURVE",
"164 194 LINE",
"170 198 OFFCURVE",
"172 201 OFFCURVE",
"170 206 CURVE SMOOTH",
"168 211 OFFCURVE",
"166 217 OFFCURVE",
"163 221 CURVE",
"160 231 OFFCURVE",
"155 233 OFFCURVE",
"143 231 CURVE SMOOTH",
"136 230 OFFCURVE",
"133 225 OFFCURVE",
"129 217 CURVE",
"128 211 OFFCURVE",
"129 208 OFFCURVE",
"131 205 CURVE",
"133 198 OFFCURVE",
"135 192 OFFCURVE",
"133 186 CURVE",
"131 184 OFFCURVE",
"129 182 OFFCURVE",
"128 182 CURVE SMOOTH",
"124 182 OFFCURVE",
"120 182 OFFCURVE",
"118 186 CURVE",
"117 191 OFFCURVE",
"116 196 OFFCURVE",
"118 203 CURVE",
"120 205 OFFCURVE",
"120 208 OFFCURVE",
"117 211 CURVE",
"116 208 OFFCURVE",
"112 206 OFFCURVE",
"110 203 CURVE SMOOTH",
"108 201 OFFCURVE",
"108 199 OFFCURVE",
"108 198 CURVE",
"110 192 OFFCURVE",
"114 186 OFFCURVE",
"116 179 CURVE SMOOTH",
"117 176 OFFCURVE",
"120 175 OFFCURVE",
"124 175 CURVE SMOOTH"
);
},
{
closed = 1;
nodes = (
"60 288 OFFCURVE",
"60 289 OFFCURVE",
"60 289 CURVE",
"60 288 LINE",
"59 288 LINE"
);
},
{
closed = 1;
nodes = (
"321 21 LINE",
"320 25 OFFCURVE",
"318 28 OFFCURVE",
"316 31 CURVE",
"316 33 OFFCURVE",
"318 37 OFFCURVE",
"320 41 CURVE",
"320 45 LINE",
"325 56 OFFCURVE",
"325 71 OFFCURVE",
"340 78 CURVE",
"331 79 OFFCURVE",
"323 81 OFFCURVE",
"315 83 CURVE",
"318 74 OFFCURVE",
"318 71 OFFCURVE",
"313 60 CURVE",
"313 58 OFFCURVE",
"313 56 OFFCURVE",
"311 55 CURVE",
"308 55 OFFCURVE",
"304 56 OFFCURVE",
"300 56 CURVE",
"294 60 OFFCURVE",
"288 58 OFFCURVE",
"281 55 CURVE",
"277 55 OFFCURVE",
"276 52 OFFCURVE",
"277 45 CURVE",
"281 35 OFFCURVE",
"288 28 OFFCURVE",
"298 26 CURVE SMOOTH",
"304 25 OFFCURVE",
"311 25 OFFCURVE",
"316 21 CURVE"
);
},
{
closed = 1;
nodes = (
"123 249 OFFCURVE",
"128 252 OFFCURVE",
"126 256 CURVE",
"126 259 OFFCURVE",
"123 261 OFFCURVE",
"117 262 CURVE SMOOTH",
"114 262 OFFCURVE",
"110 259 OFFCURVE",
"110 256 CURVE SMOOTH",
"110 250 OFFCURVE",
"112 249 OFFCURVE",
"117 249 CURVE SMOOTH"
);
},
{
closed = 1;
nodes = (
"401 -17 OFFCURVE",
"401 -16 OFFCURVE",
"403 -16 CURVE",
"403 -17 LINE",
"401 -17 LINE"
);
},
{
closed = 1;
nodes = (
"347 39 OFFCURVE",
"350 39 OFFCURVE",
"350 41 CURVE",
"353 41 LINE",
"353 44 OFFCURVE",
"353 45 OFFCURVE",
"352 47 CURVE",
"352 50 OFFCURVE",
"347 50 OFFCURVE",
"346 50 CURVE",
"344 47 OFFCURVE",
"343 45 OFFCURVE",
"343 44 CURVE",
"344 43 OFFCURVE",
"344 41 OFFCURVE",
"344 39 CURVE"
);
},
{
closed = 1;
nodes = (
"60 340 OFFCURVE",
"60 343 OFFCURVE",
"62 343 CURVE",
"62 340 OFFCURVE",
"60 340 OFFCURVE",
"60 340 CURVE"
);
},
{
closed = 1;
nodes = (
"89 308 LINE",
"91 314 OFFCURVE",
"96 318 OFFCURVE",
"101 318 CURVE SMOOTH",
"104 318 OFFCURVE",
"108 314 OFFCURVE",
"108 308 CURVE SMOOTH",
"108 296 LINE",
"101 296 OFFCURVE",
"96 295 OFFCURVE",
"89 295 CURVE"
);
},
{
closed = 1;
nodes = (
"59 358 OFFCURVE",
"59 359 OFFCURVE",
"62 362 CURVE",
"62 351 LINE"
);
},
{
closed = 1;
nodes = (
"91 282 OFFCURVE",
"92 282 OFFCURVE",
"96 284 CURVE",
"108 284 LINE SMOOTH",
"116 284 OFFCURVE",
"123 286 OFFCURVE",
"129 286 CURVE SMOOTH",
"131 286 OFFCURVE",
"135 286 OFFCURVE",
"138 284 CURVE",
"140 284 OFFCURVE",
"142 282 OFFCURVE",
"145 282 CURVE",
"145 288 OFFCURVE",
"145 293 OFFCURVE",
"143 300 CURVE",
"135 296 OFFCURVE",
"126 296 OFFCURVE",
"117 296 CURVE",
"117 301 LINE SMOOTH",
"116 307 OFFCURVE",
"116 314 OFFCURVE",
"114 320 CURVE",
"110 326 OFFCURVE",
"104 328 OFFCURVE",
"98 328 CURVE SMOOTH",
"92 328 OFFCURVE",
"87 325 OFFCURVE",
"85 320 CURVE SMOOTH",
"84 318 OFFCURVE",
"84 314 OFFCURVE",
"84 310 CURVE SMOOTH",
"84 293 LINE SMOOTH",
"84 289 OFFCURVE",
"85 286 OFFCURVE",
"85 282 CURVE"
);
},
{
closed = 1;
nodes = (
"385 14 OFFCURVE",
"399 11 OFFCURVE",
"413 14 CURVE",
"408 25 LINE",
"408 35 OFFCURVE",
"406 45 OFFCURVE",
"406 56 CURVE",
"404 64 OFFCURVE",
"404 69 OFFCURVE",
"411 72 CURVE",
"398 72 OFFCURVE",
"381 74 OFFCURVE",
"366 72 CURVE",
"366 69 OFFCURVE",
"364 65 OFFCURVE",
"364 62 CURVE SMOOTH",
"364 58 OFFCURVE",
"366 58 OFFCURVE",
"369 60 CURVE",
"369 60 OFFCURVE",
"371 60 OFFCURVE",
"371 62 CURVE",
"374 65 OFFCURVE",
"379 67 OFFCURVE",
"383 67 CURVE SMOOTH",
"398 67 LINE",
"401 60 OFFCURVE",
"398 53 OFFCURVE",
"398 44 CURVE",
"391 44 OFFCURVE",
"387 45 OFFCURVE",
"383 53 CURVE",
"381 52 OFFCURVE",
"380 50 OFFCURVE",
"380 47 CURVE SMOOTH",
"380 33 LINE",
"387 35 OFFCURVE",
"391 41 OFFCURVE",
"398 35 CURVE",
"398 23 LINE SMOOTH",
"398 18 OFFCURVE",
"396 16 OFFCURVE",
"391 18 CURVE",
"385 18 OFFCURVE",
"380 18 OFFCURVE",
"376 23 CURVE SMOOTH",
"374 25 OFFCURVE",
"371 25 OFFCURVE",
"369 23 CURVE",
"368 19 OFFCURVE",
"368 16 OFFCURVE",
"371 13 CURVE"
);
},
{
closed = 1;
nodes = (
"62 372 OFFCURVE",
"60 372 OFFCURVE",
"60 372 CURVE",
"62 374 OFFCURVE",
"64 376 OFFCURVE",
"66 377 CURVE",
"66 376 OFFCURVE",
"64 374 OFFCURVE",
"64 371 CURVE"
);
},
{
closed = 1;
nodes = (
"62 383 OFFCURVE",
"62 383 OFFCURVE",
"60 384 CURVE",
"62 384 LINE",
"64 383 LINE",
"64 383 OFFCURVE",
"64 381 OFFCURVE",
"62 381 CURVE"
);
},
{
closed = 1;
nodes = (
"101 353 OFFCURVE",
"98 355 OFFCURVE",
"92 356 CURVE",
"92 372 LINE",
"98 377 OFFCURVE",
"104 377 OFFCURVE",
"112 376 CURVE",
"116 371 OFFCURVE",
"116 364 OFFCURVE",
"114 356 CURVE",
"112 353 OFFCURVE",
"110 351 OFFCURVE",
"106 353 CURVE"
);
},
{
closed = 1;
nodes = (
"145 337 OFFCURVE",
"147 343 OFFCURVE",
"145 349 CURVE",
"136 347 OFFCURVE",
"128 347 OFFCURVE",
"120 353 CURVE",
"118 362 OFFCURVE",
"118 362 OFFCURVE",
"128 365 CURVE SMOOTH",
"133 367 OFFCURVE",
"138 368 OFFCURVE",
"143 371 CURVE SMOOTH",
"149 374 OFFCURVE",
"152 379 OFFCURVE",
"152 386 CURVE",
"151 388 OFFCURVE",
"149 386 OFFCURVE",
"147 386 CURVE",
"138 381 OFFCURVE",
"131 372 OFFCURVE",
"120 376 CURVE",
"120 377 LINE",
"117 384 OFFCURVE",
"116 388 OFFCURVE",
"106 388 CURVE SMOOTH",
"101 388 OFFCURVE",
"94 386 OFFCURVE",
"92 379 CURVE",
"87 372 OFFCURVE",
"85 364 OFFCURVE",
"85 355 CURVE SMOOTH",
"85 351 OFFCURVE",
"84 347 OFFCURVE",
"85 343 CURVE",
"92 345 OFFCURVE",
"99 344 OFFCURVE",
"106 343 CURVE",
"112 340 OFFCURVE",
"117 339 OFFCURVE",
"124 339 CURVE",
"128 337 OFFCURVE",
"131 339 OFFCURVE",
"135 337 CURVE",
"136 337 OFFCURVE",
"140 333 OFFCURVE",
"143 332 CURVE"
);
},
{
closed = 1;
nodes = (
"283 192 OFFCURVE",
"276 194 OFFCURVE",
"267 194 CURVE SMOOTH",
"265 194 OFFCURVE",
"263 194 OFFCURVE",
"260 196 CURVE SMOOTH",
"257 198 OFFCURVE",
"255 199 OFFCURVE",
"255 203 CURVE SMOOTH",
"255 206 OFFCURVE",
"257 211 OFFCURVE",
"260 211 CURVE",
"269 213 OFFCURVE",
"276 215 OFFCURVE",
"284 215 CURVE SMOOTH",
"286 215 OFFCURVE",
"289 215 OFFCURVE",
"292 213 CURVE",
"296 208 OFFCURVE",
"304 203 OFFCURVE",
"308 196 CURVE",
"302 196 OFFCURVE",
"296 194 OFFCURVE",
"292 192 CURVE"
);
},
{
closed = 1;
nodes = (
"438 16 OFFCURVE",
"443 18 OFFCURVE",
"450 19 CURVE",
"445 23 OFFCURVE",
"441 26 OFFCURVE",
"441 32 CURVE SMOOTH",
"440 37 OFFCURVE",
"438 44 OFFCURVE",
"438 50 CURVE SMOOTH",
"438 55 LINE SMOOTH",
"438 53 OFFCURVE",
"440 53 OFFCURVE",
"440 53 CURVE",
"466 26 LINE",
"468 25 OFFCURVE",
"469 25 OFFCURVE",
"469 25 CURVE",
"475 25 OFFCURVE",
"478 25 OFFCURVE",
"482 28 CURVE",
"472 45 OFFCURVE",
"468 65 OFFCURVE",
"469 87 CURVE",
"465 84 OFFCURVE",
"459 83 OFFCURVE",
"452 81 CURVE",
"455 76 OFFCURVE",
"461 74 OFFCURVE",
"463 71 CURVE",
"466 60 OFFCURVE",
"468 50 OFFCURVE",
"469 39 CURVE",
"463 43 OFFCURVE",
"457 52 OFFCURVE",
"450 56 CURVE",
"445 64 OFFCURVE",
"438 69 OFFCURVE",
"430 74 CURVE",
"428 72 OFFCURVE",
"428 69 OFFCURVE",
"429 67 CURVE",
"429 56 OFFCURVE",
"430 45 OFFCURVE",
"432 35 CURVE",
"435 28 OFFCURVE",
"436 23 OFFCURVE",
"430 18 CURVE"
);
},
{
closed = 1;
nodes = (
"160 401 OFFCURVE",
"162 405 OFFCURVE",
"162 411 CURVE",
"145 411 LINE",
"135 415 OFFCURVE",
"124 420 OFFCURVE",
"114 425 CURVE",
"112 425 OFFCURVE",
"112 428 OFFCURVE",
"110 428 CURVE SMOOTH",
"108 428 OFFCURVE",
"106 430 OFFCURVE",
"104 432 CURVE",
"104 425 OFFCURVE",
"99 422 OFFCURVE",
"101 416 CURVE",
"106 416 OFFCURVE",
"110 415 OFFCURVE",
"116 413 CURVE SMOOTH",
"135 407 LINE SMOOTH",
"142 404 OFFCURVE",
"147 403 OFFCURVE",
"152 395 CURVE",
"152 395 OFFCURVE",
"154 395 OFFCURVE",
"155 393 CURVE"
);
},
{
closed = 1;
nodes = (
"288 277 LINE",
"289 277 LINE",
"289 275 OFFCURVE",
"288 275 OFFCURVE",
"288 275 CURVE"
);
},
{
closed = 1;
nodes = (
"265 303 LINE",
"267 303 LINE",
"267 301 LINE",
"265 301 LINE"
);
},
{
closed = 1;
nodes = (
"346 198 OFFCURVE",
"343 199 OFFCURVE",
"341 203 CURVE",
"340 208 OFFCURVE",
"335 213 OFFCURVE",
"328 215 CURVE SMOOTH",
"327 215 OFFCURVE",
"327 217 OFFCURVE",
"323 217 CURVE",
"331 223 OFFCURVE",
"337 221 OFFCURVE",
"343 221 CURVE SMOOTH",
"369 221 LINE SMOOTH",
"376 221 OFFCURVE",
"383 217 OFFCURVE",
"385 211 CURVE",
"387 208 OFFCURVE",
"389 206 OFFCURVE",
"391 205 CURVE",
"392 203 OFFCURVE",
"396 201 OFFCURVE",
"398 199 CURVE",
"396 198 OFFCURVE",
"393 198 OFFCURVE",
"393 198 CURVE",
"380 199 OFFCURVE",
"366 198 OFFCURVE",
"352 198 CURVE SMOOTH"
);
},
{
closed = 1;
nodes = (
"296 273 OFFCURVE",
"296 275 OFFCURVE",
"296 275 CURVE",
"298 275 OFFCURVE",
"298 275 OFFCURVE",
"300 277 CURVE",
"300 275 LINE",
"300 275 OFFCURVE",
"298 275 OFFCURVE",
"298 273 CURVE"
);
},
{
closed = 1;
nodes = (
"260 307 OFFCURVE",
"257 307 OFFCURVE",
"255 308 CURVE SMOOTH",
"252 310 OFFCURVE",
"252 312 OFFCURVE",
"252 316 CURVE",
"255 318 OFFCURVE",
"258 320 OFFCURVE",
"260 323 CURVE",
"261 323 OFFCURVE",
"265 323 OFFCURVE",
"267 320 CURVE",
"269 320 OFFCURVE",
"269 318 OFFCURVE",
"267 314 CURVE",
"267 312 OFFCURVE",
"263 312 OFFCURVE",
"265 308 CURVE",
"263 308 OFFCURVE",
"263 307 OFFCURVE",
"261 307 CURVE SMOOTH"
);
},
{
closed = 1;
nodes = (
"519 43 OFFCURVE",
"530 47 OFFCURVE",
"540 53 CURVE",
"542 53 OFFCURVE",
"544 55 OFFCURVE",
"545 56 CURVE",
"544 58 OFFCURVE",
"544 58 OFFCURVE",
"542 58 CURVE",
"538 60 OFFCURVE",
"533 64 OFFCURVE",
"533 69 CURVE SMOOTH",
"533 71 LINE",
"527 74 OFFCURVE",
"527 81 OFFCURVE",
"525 87 CURVE",
"519 91 OFFCURVE",
"515 99 OFFCURVE",
"519 108 CURVE",
"505 103 OFFCURVE",
"494 97 OFFCURVE",
"482 91 CURVE SMOOTH",
"480 90 OFFCURVE",
"478 89 OFFCURVE",
"480 84 CURVE",
"480 81 OFFCURVE",
"482 76 OFFCURVE",
"487 72 CURVE",
"487 79 LINE",
"489 87 OFFCURVE",
"494 91 OFFCURVE",
"500 93 CURVE",
"505 97 OFFCURVE",
"511 95 OFFCURVE",
"513 89 CURVE",
"513 76 LINE",
"508 69 OFFCURVE",
"501 76 OFFCURVE",
"496 71 CURVE",
"500 67 OFFCURVE",
"501 62 OFFCURVE",
"505 58 CURVE",
"511 62 OFFCURVE",
"513 69 OFFCURVE",
"519 69 CURVE",
"521 65 OFFCURVE",
"523 64 OFFCURVE",
"525 60 CURVE SMOOTH",
"527 53 OFFCURVE",
"525 53 OFFCURVE",
"519 50 CURVE",
"517 47 OFFCURVE",
"517 47 OFFCURVE",
"515 47 CURVE SMOOTH",
"511 47 OFFCURVE",
"505 47 OFFCURVE",
"500 45 CURVE",
"500 41 OFFCURVE",
"506 41 OFFCURVE",
"508 35 CURVE"
);
},
{
closed = 1;
nodes = (
"560 32 LINE",
"561 31 LINE",
"560 31 LINE"
);
},
{
closed = 1;
nodes = (
"296 293 OFFCURVE",
"298 295 OFFCURVE",
"300 296 CURVE",
"300 296 OFFCURVE",
"302 296 OFFCURVE",
"302 295 CURVE SMOOTH",
"302 293 OFFCURVE",
"302 291 OFFCURVE",
"300 291 CURVE"
);
},
{
closed = 1;
nodes = (
"340 254 OFFCURVE",
"340 256 OFFCURVE",
"340 256 CURVE",
"340 254 LINE",
"337 254 LINE"
);
},
{
closed = 1;
nodes = (
"286 187 OFFCURVE",
"298 188 OFFCURVE",
"308 188 CURVE",
"321 191 OFFCURVE",
"333 191 OFFCURVE",
"346 191 CURVE SMOOTH",
"366 191 OFFCURVE",
"387 192 OFFCURVE",
"406 192 CURVE SMOOTH",
"418 192 LINE SMOOTH",
"435 194 OFFCURVE",
"449 194 OFFCURVE",
"457 194 CURVE SMOOTH",
"477 194 OFFCURVE",
"489 196 OFFCURVE",
"501 196 CURVE",
"513 198 OFFCURVE",
"521 206 OFFCURVE",
"519 215 CURVE",
"519 219 OFFCURVE",
"517 221 OFFCURVE",
"517 223 CURVE",
"515 224 OFFCURVE",
"515 227 OFFCURVE",
"513 227 CURVE",
"511 230 OFFCURVE",
"506 233 OFFCURVE",
"503 230 CURVE",
"503 230 OFFCURVE",
"501 227 OFFCURVE",
"501 230 CURVE",
"496 231 OFFCURVE",
"493 230 OFFCURVE",
"487 230 CURVE SMOOTH",
"480 230 LINE",
"477 231 OFFCURVE",
"474 231 OFFCURVE",
"469 230 CURVE",
"466 227 OFFCURVE",
"465 227 OFFCURVE",
"463 227 CURVE SMOOTH",
"447 227 OFFCURVE",
"430 225 OFFCURVE",
"417 224 CURVE SMOOTH",
"369 224 LINE SMOOTH",
"352 224 OFFCURVE",
"333 224 OFFCURVE",
"316 223 CURVE SMOOTH",
"302 221 OFFCURVE",
"286 221 OFFCURVE",
"270 219 CURVE SMOOTH",
"265 219 OFFCURVE",
"261 219 OFFCURVE",
"257 217 CURVE SMOOTH",
"251 215 OFFCURVE",
"251 211 OFFCURVE",
"251 205 CURVE",
"249 198 OFFCURVE",
"252 192 OFFCURVE",
"258 191 CURVE",
"263 188 OFFCURVE",
"270 187 OFFCURVE",
"276 187 CURVE SMOOTH"
);
},
{
closed = 1;
nodes = (
"347 252 LINE",
"352 252 LINE",
"352 250 LINE",
"347 250 LINE"
);
},
{
closed = 1;
nodes = (
"170 428 OFFCURVE",
"172 430 OFFCURVE",
"175 435 CURVE",
"164 438 OFFCURVE",
"157 441 OFFCURVE",
"149 444 CURVE",
"143 448 OFFCURVE",
"138 452 OFFCURVE",
"131 454 CURVE",
"135 454 LINE",
"143 457 OFFCURVE",
"152 453 OFFCURVE",
"162 457 CURVE",
"163 457 LINE",
"168 454 OFFCURVE",
"175 454 OFFCURVE",
"181 454 CURVE SMOOTH",
"186 453 OFFCURVE",
"188 454 OFFCURVE",
"189 462 CURVE",
"184 466 OFFCURVE",
"176 471 OFFCURVE",
"170 475 CURVE SMOOTH",
"162 481 OFFCURVE",
"152 487 OFFCURVE",
"147 498 CURVE",
"143 500 LINE",
"142 496 OFFCURVE",
"136 492 OFFCURVE",
"136 487 CURVE",
"140 487 LINE SMOOTH",
"147 487 OFFCURVE",
"152 481 OFFCURVE",
"155 478 CURVE",
"160 475 OFFCURVE",
"163 471 OFFCURVE",
"166 469 CURVE",
"168 469 OFFCURVE",
"170 467 OFFCURVE",
"172 464 CURVE",
"154 464 OFFCURVE",
"136 467 OFFCURVE",
"120 466 CURVE",
"118 460 OFFCURVE",
"117 457 OFFCURVE",
"116 452 CURVE",
"123 454 OFFCURVE",
"128 452 OFFCURVE",
"131 448 CURVE",
"135 447 OFFCURVE",
"138 444 OFFCURVE",
"142 442 CURVE",
"143 441 OFFCURVE",
"145 440 OFFCURVE",
"149 440 CURVE",
"155 438 OFFCURVE",
"160 432 OFFCURVE",
"163 425 CURVE",
"163 425 OFFCURVE",
"164 423 OFFCURVE",
"166 422 CURVE"
);
},
{
closed = 1;
nodes = (
"360 254 LINE",
"364 252 OFFCURVE",
"368 252 OFFCURVE",
"371 250 CURVE",
"369 243 OFFCURVE",
"364 247 OFFCURVE",
"360 247 CURVE"
);
},
{
closed = 1;
nodes = (
"381 240 OFFCURVE",
"381 240 OFFCURVE",
"380 240 CURVE",
"381 242 LINE",
"381 238 LINE SMOOTH"
);
},
{
closed = 1;
nodes = (
"393 242 OFFCURVE",
"392 242 OFFCURVE",
"392 243 CURVE",
"393 243 LINE",
"393 243 OFFCURVE",
"393 242 OFFCURVE",
"396 242 CURVE",
"396 240 OFFCURVE",
"393 240 OFFCURVE",
"393 240 CURVE"
);
},
{
closed = 1;
nodes = (
"441 199 OFFCURVE",
"436 201 OFFCURVE",
"435 208 CURVE",
"430 213 OFFCURVE",
"428 215 OFFCURVE",
"422 219 CURVE",
"422 219 OFFCURVE",
"422 221 OFFCURVE",
"420 221 CURVE",
"422 223 OFFCURVE",
"423 223 OFFCURVE",
"423 223 CURVE",
"436 224 OFFCURVE",
"449 224 OFFCURVE",
"461 224 CURVE SMOOTH",
"465 224 OFFCURVE",
"468 223 OFFCURVE",
"468 221 CURVE",
"472 213 OFFCURVE",
"477 211 OFFCURVE",
"482 206 CURVE",
"484 205 OFFCURVE",
"484 205 OFFCURVE",
"484 203 CURVE",
"482 203 OFFCURVE",
"480 201 OFFCURVE",
"478 201 CURVE SMOOTH",
"455 201 LINE SMOOTH",
"454 201 OFFCURVE",
"450 201 OFFCURVE",
"449 199 CURVE"
);
},
{
closed = 1;
nodes = (
"563 87 OFFCURVE",
"560 87 OFFCURVE",
"556 89 CURVE SMOOTH",
"554 90 OFFCURVE",
"552 91 OFFCURVE",
"550 91 CURVE",
"549 95 OFFCURVE",
"545 97 OFFCURVE",
"544 101 CURVE SMOOTH",
"544 103 OFFCURVE",
"542 108 OFFCURVE",
"542 111 CURVE",
"544 118 OFFCURVE",
"548 123 OFFCURVE",
"554 128 CURVE",
"567 118 OFFCURVE",
"572 103 OFFCURVE",
"584 95 CURVE",
"583 90 OFFCURVE",
"577 87 OFFCURVE",
"573 84 CURVE",
"567 84 LINE"
);
},
{
closed = 1;
nodes = (
"564 76 LINE",
"573 78 OFFCURVE",
"581 81 OFFCURVE",
"588 87 CURVE SMOOTH",
"593 90 OFFCURVE",
"598 95 OFFCURVE",
"602 101 CURVE",
"600 103 OFFCURVE",
"598 103 OFFCURVE",
"597 103 CURVE SMOOTH",
"596 103 OFFCURVE",
"591 103 OFFCURVE",
"591 106 CURVE",
"570 127 LINE",
"567 132 OFFCURVE",
"561 136 OFFCURVE",
"561 143 CURVE",
"558 139 OFFCURVE",
"554 136 OFFCURVE",
"552 135 CURVE",
"549 130 OFFCURVE",
"545 128 OFFCURVE",
"542 126 CURVE SMOOTH",
"533 118 OFFCURVE",
"533 108 OFFCURVE",
"535 97 CURVE SMOOTH",
"538 87 OFFCURVE",
"548 79 OFFCURVE",
"560 76 CURVE"
);
},
{
closed = 1;
nodes = (
"261 425 OFFCURVE",
"263 425 OFFCURVE",
"265 423 CURVE",
"258 423 LINE"
);
},
{
closed = 1;
nodes = (
"432 254 LINE",
"432 256 LINE",
"430 256 OFFCURVE",
"430 254 OFFCURVE",
"430 254 CURVE"
);
},
{
closed = 1;
nodes = (
"477 215 OFFCURVE",
"477 217 OFFCURVE",
"475 219 CURVE",
"478 219 OFFCURVE",
"480 217 OFFCURVE",
"480 215 CURVE",
"478 213 LINE"
);
},
{
closed = 1;
nodes = (
"209 483 OFFCURVE",
"213 487 OFFCURVE",
"218 492 CURVE",
"209 494 OFFCURVE",
"201 500 OFFCURVE",
"194 506 CURVE",
"189 513 OFFCURVE",
"182 520 OFFCURVE",
"175 525 CURVE",
"176 527 OFFCURVE",
"179 529 OFFCURVE",
"179 529 CURVE",
"184 536 OFFCURVE",
"189 537 OFFCURVE",
"199 536 CURVE",
"199 536 OFFCURVE",
"200 537 OFFCURVE",
"201 537 CURVE",
"201 539 LINE",
"196 542 OFFCURVE",
"191 543 OFFCURVE",
"186 545 CURVE",
"174 536 OFFCURVE",
"164 524 OFFCURVE",
"154 513 CURVE",
"152 512 OFFCURVE",
"152 508 OFFCURVE",
"154 506 CURVE SMOOTH",
"155 505 OFFCURVE",
"157 503 OFFCURVE",
"162 505 CURVE",
"162 510 OFFCURVE",
"164 515 OFFCURVE",
"168 518 CURVE",
"170 517 OFFCURVE",
"172 517 OFFCURVE",
"172 515 CURVE",
"179 510 OFFCURVE",
"184 503 OFFCURVE",
"191 496 CURVE",
"199 492 OFFCURVE",
"203 487 OFFCURVE",
"203 478 CURVE"
);
},
{
closed = 1;
nodes = (
"182 515 OFFCURVE",
"181 515 OFFCURVE",
"179 515 CURVE",
"182 518 OFFCURVE",
"182 517 OFFCURVE",
"184 515 CURVE",
"182 515 OFFCURVE",
"182 515 OFFCURVE",
"182 513 CURVE"
);
},
{
closed = 1;
nodes = (
"289 413 LINE",
"289 411 OFFCURVE",
"289 411 OFFCURVE",
"292 411 CURVE",
"289 411 LINE"
);
},
{
closed = 1;
nodes = (
"406 242 OFFCURVE",
"404 243 OFFCURVE",
"403 247 CURVE",
"403 242 LINE",
"398 242 OFFCURVE",
"398 245 OFFCURVE",
"398 247 CURVE",
"391 247 OFFCURVE",
"383 249 OFFCURVE",
"376 250 CURVE",
"389 256 OFFCURVE",
"401 261 OFFCURVE",
"413 262 CURVE",
"418 267 OFFCURVE",
"426 269 OFFCURVE",
"432 270 CURVE SMOOTH",
"436 271 OFFCURVE",
"440 275 OFFCURVE",
"443 279 CURVE",
"447 282 OFFCURVE",
"450 286 OFFCURVE",
"454 289 CURVE",
"454 291 OFFCURVE",
"452 291 OFFCURVE",
"450 289 CURVE",
"435 279 LINE SMOOTH",
"428 273 OFFCURVE",
"418 270 OFFCURVE",
"410 269 CURVE",
"404 267 OFFCURVE",
"401 264 OFFCURVE",
"396 262 CURVE",
"381 261 OFFCURVE",
"368 261 OFFCURVE",
"352 261 CURVE SMOOTH",
"340 261 OFFCURVE",
"327 264 OFFCURVE",
"316 273 CURVE",
"313 277 OFFCURVE",
"308 282 OFFCURVE",
"302 282 CURVE SMOOTH",
"300 282 OFFCURVE",
"298 284 OFFCURVE",
"296 288 CURVE",
"304 286 OFFCURVE",
"306 289 OFFCURVE",
"308 295 CURVE SMOOTH",
"311 301 OFFCURVE",
"315 308 OFFCURVE",
"321 314 CURVE SMOOTH",
"323 316 OFFCURVE",
"325 320 OFFCURVE",
"327 320 CURVE",
"332 332 OFFCURVE",
"340 340 OFFCURVE",
"346 349 CURVE SMOOTH",
"352 358 OFFCURVE",
"359 365 OFFCURVE",
"362 374 CURVE",
"362 377 OFFCURVE",
"366 381 OFFCURVE",
"368 383 CURVE",
"369 388 OFFCURVE",
"372 392 OFFCURVE",
"374 396 CURVE",
"376 396 OFFCURVE",
"376 399 OFFCURVE",
"379 399 CURVE",
"380 396 OFFCURVE",
"380 396 OFFCURVE",
"381 395 CURVE",
"383 390 OFFCURVE",
"387 386 OFFCURVE",
"391 384 CURVE",
"392 383 LINE SMOOTH",
"398 374 OFFCURVE",
"403 367 OFFCURVE",
"408 358 CURVE",
"413 353 OFFCURVE",
"417 347 OFFCURVE",
"420 343 CURVE SMOOTH",
"428 333 OFFCURVE",
"435 323 OFFCURVE",
"443 316 CURVE",
"445 312 OFFCURVE",
"447 310 OFFCURVE",
"449 307 CURVE",
"450 301 OFFCURVE",
"450 300 OFFCURVE",
"457 300 CURVE",
"455 295 OFFCURVE",
"457 289 OFFCURVE",
"463 284 CURVE",
"465 281 OFFCURVE",
"466 277 OFFCURVE",
"465 273 CURVE",
"466 270 OFFCURVE",
"468 269 OFFCURVE",
"472 267 CURVE",
"469 267 LINE SMOOTH",
"468 267 OFFCURVE",
"466 269 OFFCURVE",
"465 269 CURVE",
"465 267 OFFCURVE",
"466 264 OFFCURVE",
"468 261 CURVE",
"463 261 OFFCURVE",
"463 264 OFFCURVE",
"459 267 CURVE",
"459 264 OFFCURVE",
"459 262 OFFCURVE",
"461 259 CURVE",
"459 261 OFFCURVE",
"457 261 OFFCURVE",
"455 261 CURVE",
"455 256 LINE",
"454 258 OFFCURVE",
"452 258 OFFCURVE",
"449 256 CURVE",
"449 256 OFFCURVE",
"445 258 OFFCURVE",
"443 254 CURVE",
"441 254 OFFCURVE",
"440 254 OFFCURVE",
"440 250 CURVE",
"436 252 OFFCURVE",
"435 252 OFFCURVE",
"432 254 CURVE",
"435 252 OFFCURVE",
"435 250 OFFCURVE",
"435 249 CURVE",
"430 249 OFFCURVE",
"429 250 OFFCURVE",
"430 254 CURVE",
"429 254 OFFCURVE",
"429 254 OFFCURVE",
"428 256 CURVE",
"428 250 OFFCURVE",
"429 249 OFFCURVE",
"429 245 CURVE",
"426 245 OFFCURVE",
"426 249 OFFCURVE",
"422 250 CURVE",
"422 249 OFFCURVE",
"423 247 OFFCURVE",
"423 243 CURVE",
"418 243 OFFCURVE",
"418 247 OFFCURVE",
"417 250 CURVE",
"417 242 LINE",
"413 243 OFFCURVE",
"413 243 OFFCURVE",
"411 245 CURVE",
"411 243 OFFCURVE",
"410 242 OFFCURVE",
"410 238 CURVE"
);
},
{
closed = 1;
nodes = (
"276 425 OFFCURVE",
"274 428 OFFCURVE",
"272 428 CURVE",
"274 428 OFFCURVE",
"274 428 OFFCURVE",
"274 430 CURVE",
"276 428 OFFCURVE",
"277 428 OFFCURVE",
"279 425 CURVE"
);
},
{
closed = 1;
nodes = (
"387 87 OFFCURVE",
"398 89 OFFCURVE",
"408 90 CURVE SMOOTH",
"418 91 OFFCURVE",
"428 91 OFFCURVE",
"438 93 CURVE SMOOTH",
"445 95 OFFCURVE",
"454 97 OFFCURVE",
"461 101 CURVE SMOOTH",
"466 103 OFFCURVE",
"472 103 OFFCURVE",
"475 106 CURVE",
"484 108 OFFCURVE",
"491 113 OFFCURVE",
"500 116 CURVE",
"506 120 OFFCURVE",
"515 123 OFFCURVE",
"521 128 CURVE",
"525 130 OFFCURVE",
"525 132 OFFCURVE",
"527 135 CURVE",
"537 141 OFFCURVE",
"545 148 OFFCURVE",
"552 157 CURVE",
"560 164 OFFCURVE",
"567 173 OFFCURVE",
"573 182 CURVE SMOOTH",
"581 191 OFFCURVE",
"586 199 OFFCURVE",
"591 211 CURVE SMOOTH",
"593 215 OFFCURVE",
"596 221 OFFCURVE",
"598 227 CURVE SMOOTH",
"603 240 OFFCURVE",
"608 252 OFFCURVE",
"610 267 CURVE",
"615 284 OFFCURVE",
"618 303 OFFCURVE",
"615 320 CURVE",
"615 335 OFFCURVE",
"612 351 OFFCURVE",
"610 365 CURVE SMOOTH",
"609 372 OFFCURVE",
"608 379 OFFCURVE",
"603 386 CURVE",
"598 399 OFFCURVE",
"593 413 OFFCURVE",
"586 425 CURVE SMOOTH",
"576 444 OFFCURVE",
"561 464 OFFCURVE",
"542 479 CURVE SMOOTH",
"521 499 OFFCURVE",
"496 517 OFFCURVE",
"468 527 CURVE SMOOTH",
"450 535 OFFCURVE",
"429 537 OFFCURVE",
"410 542 CURVE",
"383 542 LINE SMOOTH",
"371 542 OFFCURVE",
"357 539 OFFCURVE",
"344 537 CURVE SMOOTH",
"333 535 OFFCURVE",
"321 530 OFFCURVE",
"308 527 CURVE",
"302 524 OFFCURVE",
"294 520 OFFCURVE",
"284 517 CURVE SMOOTH",
"279 515 OFFCURVE",
"274 512 OFFCURVE",
"269 508 CURVE SMOOTH",
"257 499 OFFCURVE",
"244 490 OFFCURVE",
"232 479 CURVE SMOOTH",
"221 469 OFFCURVE",
"211 457 OFFCURVE",
"201 444 CURVE SMOOTH",
"191 430 OFFCURVE",
"182 413 OFFCURVE",
"175 395 CURVE",
"175 393 OFFCURVE",
"174 393 OFFCURVE",
"174 392 CURVE SMOOTH",
"172 383 OFFCURVE",
"168 376 OFFCURVE",
"166 367 CURVE SMOOTH",
"164 359 OFFCURVE",
"164 353 OFFCURVE",
"163 347 CURVE SMOOTH",
"160 337 OFFCURVE",
"160 326 OFFCURVE",
"160 316 CURVE SMOOTH",
"160 303 OFFCURVE",
"162 293 OFFCURVE",
"163 281 CURVE SMOOTH",
"164 271 OFFCURVE",
"166 261 OFFCURVE",
"170 250 CURVE SMOOTH",
"174 236 OFFCURVE",
"179 223 OFFCURVE",
"186 208 CURVE SMOOTH",
"193 196 OFFCURVE",
"200 182 OFFCURVE",
"211 171 CURVE",
"212 171 OFFCURVE",
"212 169 OFFCURVE",
"212 169 CURVE",
"221 161 OFFCURVE",
"230 151 OFFCURVE",
"238 143 CURVE",
"248 136 OFFCURVE",
"257 128 OFFCURVE",
"265 123 CURVE SMOOTH",
"277 116 OFFCURVE",
"292 111 OFFCURVE",
"304 103 CURVE",
"316 101 OFFCURVE",
"327 95 OFFCURVE",
"340 93 CURVE SMOOTH",
"352 91 OFFCURVE",
"364 90 OFFCURVE",
"376 89 CURVE SMOOTH"
);
},
{
closed = 1;
nodes = (
"364 97 OFFCURVE",
"353 97 OFFCURVE",
"344 101 CURVE",
"333 103 OFFCURVE",
"321 103 OFFCURVE",
"311 109 CURVE",
"311 111 OFFCURVE",
"308 111 OFFCURVE",
"308 111 CURVE",
"300 111 OFFCURVE",
"296 116 OFFCURVE",
"288 118 CURVE",
"284 120 OFFCURVE",
"281 123 OFFCURVE",
"277 126 CURVE SMOOTH",
"263 135 OFFCURVE",
"249 143 OFFCURVE",
"238 155 CURVE SMOOTH",
"232 163 OFFCURVE",
"224 167 OFFCURVE",
"219 175 CURVE",
"213 179 OFFCURVE",
"209 187 OFFCURVE",
"203 196 CURVE SMOOTH",
"199 203 OFFCURVE",
"194 211 OFFCURVE",
"191 219 CURVE",
"186 227 OFFCURVE",
"182 236 OFFCURVE",
"179 247 CURVE SMOOTH",
"175 259 OFFCURVE",
"172 271 OFFCURVE",
"170 284 CURVE SMOOTH",
"168 301 OFFCURVE",
"166 320 OFFCURVE",
"170 337 CURVE SMOOTH",
"172 347 OFFCURVE",
"172 358 OFFCURVE",
"175 367 CURVE SMOOTH",
"179 381 OFFCURVE",
"182 395 OFFCURVE",
"189 407 CURVE SMOOTH",
"193 416 OFFCURVE",
"200 423 OFFCURVE",
"201 430 CURVE",
"203 434 OFFCURVE",
"205 435 OFFCURVE",
"207 440 CURVE",
"221 454 OFFCURVE",
"236 473 OFFCURVE",
"252 486 CURVE SMOOTH",
"265 496 OFFCURVE",
"281 506 OFFCURVE",
"296 513 CURVE SMOOTH",
"308 517 OFFCURVE",
"320 523 OFFCURVE",
"331 525 CURVE SMOOTH",
"333 525 LINE",
"341 527 OFFCURVE",
"347 529 OFFCURVE",
"355 529 CURVE",
"368 533 OFFCURVE",
"381 533 OFFCURVE",
"393 533 CURVE",
"404 530 OFFCURVE",
"413 530 OFFCURVE",
"422 530 CURVE SMOOTH",
"429 529 OFFCURVE",
"436 527 OFFCURVE",
"443 525 CURVE SMOOTH",
"449 524 OFFCURVE",
"455 523 OFFCURVE",
"461 520 CURVE SMOOTH",
"475 515 OFFCURVE",
"487 510 OFFCURVE",
"500 500 CURVE",
"508 496 OFFCURVE",
"517 488 OFFCURVE",
"525 481 CURVE",
"535 476 OFFCURVE",
"542 467 OFFCURVE",
"549 460 CURVE SMOOTH",
"558 452 OFFCURVE",
"564 440 OFFCURVE",
"572 428 CURVE SMOOTH",
"584 411 OFFCURVE",
"593 392 OFFCURVE",
"597 372 CURVE SMOOTH",
"598 364 OFFCURVE",
"600 356 OFFCURVE",
"602 347 CURVE SMOOTH",
"603 335 OFFCURVE",
"603 323 OFFCURVE",
"606 314 CURVE",
"603 291 OFFCURVE",
"602 271 OFFCURVE",
"596 252 CURVE",
"591 242 OFFCURVE",
"588 230 OFFCURVE",
"583 219 CURVE SMOOTH",
"579 211 OFFCURVE",
"573 205 OFFCURVE",
"570 198 CURVE SMOOTH",
"569 196 OFFCURVE",
"567 192 OFFCURVE",
"564 191 CURVE",
"563 186 OFFCURVE",
"560 182 OFFCURVE",
"556 176 CURVE SMOOTH",
"548 164 OFFCURVE",
"535 155 OFFCURVE",
"525 145 CURVE SMOOTH",
"521 141 OFFCURVE",
"515 138 OFFCURVE",
"511 135 CURVE SMOOTH",
"501 128 OFFCURVE",
"493 123 OFFCURVE",
"484 118 CURVE SMOOTH",
"477 115 OFFCURVE",
"468 109 OFFCURVE",
"459 108 CURVE SMOOTH",
"455 108 OFFCURVE",
"452 108 OFFCURVE",
"450 103 CURVE",
"436 103 LINE",
"429 95 OFFCURVE",
"420 99 OFFCURVE",
"413 97 CURVE SMOOTH",
"406 95 OFFCURVE",
"398 93 OFFCURVE",
"391 95 CURVE SMOOTH",
"387 97 OFFCURVE",
"383 95 OFFCURVE",
"379 95 CURVE SMOOTH",
"372 95 LINE"
);
},
{
closed = 1;
nodes = (
"500 208 OFFCURVE",
"500 211 OFFCURVE",
"498 211 CURVE SMOOTH",
"501 211 LINE",
"500 208 LINE"
);
},
{
closed = 1;
nodes = (
"420 233 OFFCURVE",
"440 236 OFFCURVE",
"455 243 CURVE",
"459 243 OFFCURVE",
"463 245 OFFCURVE",
"466 247 CURVE",
"472 249 OFFCURVE",
"477 252 OFFCURVE",
"484 256 CURVE",
"487 256 LINE",
"491 258 OFFCURVE",
"494 258 OFFCURVE",
"496 259 CURVE",
"498 259 OFFCURVE",
"498 262 OFFCURVE",
"500 264 CURVE",
"500 267 OFFCURVE",
"501 270 OFFCURVE",
"505 270 CURVE",
"508 273 LINE SMOOTH",
"513 277 OFFCURVE",
"519 279 OFFCURVE",
"525 277 CURVE",
"525 275 OFFCURVE",
"525 275 OFFCURVE",
"527 275 CURVE",
"530 277 LINE SMOOTH",
"535 281 OFFCURVE",
"538 284 OFFCURVE",
"538 291 CURVE",
"542 303 OFFCURVE",
"537 316 OFFCURVE",
"527 326 CURVE",
"525 330 OFFCURVE",
"523 332 OFFCURVE",
"521 333 CURVE",
"511 343 OFFCURVE",
"500 349 OFFCURVE",
"486 349 CURVE SMOOTH",
"475 349 OFFCURVE",
"472 344 OFFCURVE",
"475 335 CURVE SMOOTH",
"477 330 OFFCURVE",
"475 325 OFFCURVE",
"472 320 CURVE SMOOTH",
"469 316 OFFCURVE",
"466 312 OFFCURVE",
"463 307 CURVE",
"461 306 OFFCURVE",
"463 301 OFFCURVE",
"466 300 CURVE",
"472 308 OFFCURVE",
"477 316 OFFCURVE",
"480 326 CURVE SMOOTH",
"482 335 OFFCURVE",
"489 337 OFFCURVE",
"494 330 CURVE",
"496 330 LINE",
"501 325 OFFCURVE",
"506 318 OFFCURVE",
"513 312 CURVE",
"513 310 OFFCURVE",
"517 308 OFFCURVE",
"517 307 CURVE",
"521 301 OFFCURVE",
"521 296 OFFCURVE",
"523 291 CURVE",
"525 289 OFFCURVE",
"523 288 OFFCURVE",
"521 286 CURVE",
"517 288 OFFCURVE",
"515 291 OFFCURVE",
"513 295 CURVE SMOOTH",
"505 308 LINE",
"505 308 OFFCURVE",
"503 308 OFFCURVE",
"501 310 CURVE",
"501 307 OFFCURVE",
"503 307 OFFCURVE",
"503 306 CURVE",
"506 300 OFFCURVE",
"508 296 OFFCURVE",
"513 291 CURVE",
"513 286 LINE",
"508 291 OFFCURVE",
"505 295 OFFCURVE",
"501 298 CURVE",
"503 295 OFFCURVE",
"503 291 OFFCURVE",
"505 286 CURVE",
"500 289 OFFCURVE",
"496 289 OFFCURVE",
"494 288 CURVE",
"496 286 OFFCURVE",
"496 284 OFFCURVE",
"498 281 CURVE",
"493 282 OFFCURVE",
"489 282 OFFCURVE",
"486 282 CURVE",
"486 282 OFFCURVE",
"484 281 OFFCURVE",
"484 279 CURVE",
"477 281 OFFCURVE",
"472 286 OFFCURVE",
"468 291 CURVE",
"468 293 OFFCURVE",
"466 295 OFFCURVE",
"466 295 CURVE",
"463 300 OFFCURVE",
"457 301 OFFCURVE",
"459 308 CURVE",
"459 310 OFFCURVE",
"457 312 OFFCURVE",
"455 312 CURVE",
"452 316 OFFCURVE",
"449 320 OFFCURVE",
"445 323 CURVE SMOOTH",
"438 330 LINE",
"435 337 OFFCURVE",
"429 344 OFFCURVE",
"426 351 CURVE",
"422 356 OFFCURVE",
"418 362 OFFCURVE",
"413 367 CURVE",
"410 372 OFFCURVE",
"403 377 OFFCURVE",
"399 384 CURVE",
"398 388 OFFCURVE",
"392 392 OFFCURVE",
"389 396 CURVE",
"389 396 OFFCURVE",
"389 399 OFFCURVE",
"387 403 CURVE",
"391 401 OFFCURVE",
"392 399 OFFCURVE",
"392 399 CURVE",
"396 395 OFFCURVE",
"399 392 OFFCURVE",
"403 390 CURVE SMOOTH",
"410 386 OFFCURVE",
"417 383 OFFCURVE",
"422 377 CURVE SMOOTH",
"423 376 OFFCURVE",
"426 376 OFFCURVE",
"428 377 CURVE",
"426 388 OFFCURVE",
"423 392 OFFCURVE",
"411 395 CURVE SMOOTH",
"408 396 OFFCURVE",
"404 396 OFFCURVE",
"401 396 CURVE",
"401 399 OFFCURVE",
"399 399 OFFCURVE",
"398 401 CURVE",
"403 401 LINE SMOOTH",
"416 401 OFFCURVE",
"417 403 OFFCURVE",
"420 413 CURVE",
"417 411 OFFCURVE",
"416 411 OFFCURVE",
"410 413 CURVE",
"416 416 OFFCURVE",
"416 416 OFFCURVE",
"420 413 CURVE",
"428 415 OFFCURVE",
"435 415 OFFCURVE",
"440 416 CURVE SMOOTH",
"443 416 LINE SMOOTH",
"454 415 OFFCURVE",
"465 416 OFFCURVE",
"475 416 CURVE SMOOTH",
"480 416 OFFCURVE",
"484 418 OFFCURVE",
"487 415 CURVE",
"487 413 OFFCURVE",
"486 409 OFFCURVE",
"484 407 CURVE",
"487 404 OFFCURVE",
"489 405 OFFCURVE",
"491 407 CURVE",
"500 413 OFFCURVE",
"508 416 OFFCURVE",
"517 418 CURVE",
"519 418 OFFCURVE",
"523 418 OFFCURVE",
"523 422 CURVE",
"508 425 OFFCURVE",
"496 428 OFFCURVE",
"484 438 CURVE",
"478 430 OFFCURVE",
"484 428 OFFCURVE",
"489 422 CURVE",
"486 422 LINE",
"480 420 OFFCURVE",
"475 422 OFFCURVE",
"472 422 CURVE SMOOTH",
"457 422 OFFCURVE",
"443 420 OFFCURVE",
"429 420 CURVE SMOOTH",
"426 420 LINE",
"422 422 OFFCURVE",
"418 422 OFFCURVE",
"417 423 CURVE",
"416 428 OFFCURVE",
"416 432 OFFCURVE",
"413 438 CURVE",
"413 438 OFFCURVE",
"411 440 OFFCURVE",
"410 440 CURVE SMOOTH",
"404 440 LINE",
"401 438 OFFCURVE",
"398 435 OFFCURVE",
"393 434 CURVE",
"393 435 OFFCURVE",
"396 440 OFFCURVE",
"396 441 CURVE",
"401 447 OFFCURVE",
"403 452 OFFCURVE",
"398 459 CURVE",
"371 459 LINE SMOOTH",
"366 459 OFFCURVE",
"359 452 OFFCURVE",
"359 447 CURVE",
"359 447 OFFCURVE",
"359 444 OFFCURVE",
"360 442 CURVE",
"364 440 OFFCURVE",
"368 434 OFFCURVE",
"372 430 CURVE",
"372 432 OFFCURVE",
"372 432 OFFCURVE",
"371 434 CURVE",
"371 438 OFFCURVE",
"369 440 OFFCURVE",
"369 442 CURVE SMOOTH",
"368 447 OFFCURVE",
"371 448 OFFCURVE",
"374 450 CURVE",
"391 450 LINE",
"393 440 OFFCURVE",
"383 434 OFFCURVE",
"381 425 CURVE",
"380 428 OFFCURVE",
"376 428 OFFCURVE",
"374 423 CURVE",
"374 422 OFFCURVE",
"372 422 OFFCURVE",
"371 422 CURVE SMOOTH",
"353 422 LINE SMOOTH",
"344 423 OFFCURVE",
"337 423 OFFCURVE",
"328 422 CURVE SMOOTH",
"318 422 OFFCURVE",
"308 423 OFFCURVE",
"304 432 CURVE",
"300 435 OFFCURVE",
"298 438 OFFCURVE",
"294 438 CURVE",
"284 435 OFFCURVE",
"276 435 OFFCURVE",
"267 435 CURVE SMOOTH",
"255 435 LINE",
"251 438 OFFCURVE",
"248 435 OFFCURVE",
"244 432 CURVE",
"249 428 OFFCURVE",
"252 428 OFFCURVE",
"257 423 CURVE",
"255 416 OFFCURVE",
"248 423 OFFCURVE",
"242 420 CURVE",
"246 415 OFFCURVE",
"251 418 OFFCURVE",
"257 415 CURVE",
"255 413 OFFCURVE",
"252 411 OFFCURVE",
"249 409 CURVE",
"248 407 OFFCURVE",
"246 405 OFFCURVE",
"248 403 CURVE",
"249 403 OFFCURVE",
"251 401 OFFCURVE",
"252 401 CURVE SMOOTH",
"267 403 OFFCURVE",
"283 403 OFFCURVE",
"296 403 CURVE SMOOTH",
"298 403 OFFCURVE",
"300 403 OFFCURVE",
"302 404 CURVE SMOOTH",
"304 405 OFFCURVE",
"306 407 OFFCURVE",
"306 409 CURVE",
"311 413 OFFCURVE",
"316 416 OFFCURVE",
"323 416 CURVE SMOOTH",
"331 415 OFFCURVE",
"335 416 OFFCURVE",
"343 416 CURVE SMOOTH",
"368 416 LINE SMOOTH",
"369 416 OFFCURVE",
"371 416 OFFCURVE",
"371 415 CURVE",
"368 413 OFFCURVE",
"366 409 OFFCURVE",
"362 407 CURVE SMOOTH",
"359 405 OFFCURVE",
"355 405 OFFCURVE",
"353 409 CURVE SMOOTH",
"352 411 OFFCURVE",
"352 413 OFFCURVE",
"350 415 CURVE",
"346 413 OFFCURVE",
"344 413 OFFCURVE",
"341 411 CURVE",
"343 407 OFFCURVE",
"343 405 OFFCURVE",
"343 403 CURVE",
"350 401 OFFCURVE",
"357 403 OFFCURVE",
"364 403 CURVE",
"364 401 OFFCURVE",
"362 399 OFFCURVE",
"362 399 CURVE",
"359 396 OFFCURVE",
"355 396 OFFCURVE",
"352 395 CURVE",
"346 395 OFFCURVE",
"343 393 OFFCURVE",
"337 392 CURVE SMOOTH",
"331 390 OFFCURVE",
"327 383 OFFCURVE",
"331 376 CURVE",
"332 377 OFFCURVE",
"333 379 OFFCURVE",
"335 379 CURVE",
"337 381 OFFCURVE",
"341 383 OFFCURVE",
"343 383 CURVE SMOOTH",
"350 384 OFFCURVE",
"355 388 OFFCURVE",
"360 392 CURVE SMOOTH",
"362 393 OFFCURVE",
"364 393 OFFCURVE",
"366 393 CURVE",
"364 392 OFFCURVE",
"366 392 OFFCURVE",
"364 392 CURVE",
"359 383 OFFCURVE",
"353 376 OFFCURVE",
"347 368 CURVE SMOOTH",
"325 335 LINE SMOOTH",
"321 328 OFFCURVE",
"316 323 OFFCURVE",
"311 316 CURVE SMOOTH",
"308 312 OFFCURVE",
"306 308 OFFCURVE",
"302 307 CURVE",
"300 303 OFFCURVE",
"298 301 OFFCURVE",
"296 300 CURVE",
"296 298 OFFCURVE",
"294 295 OFFCURVE",
"292 293 CURVE",
"281 303 OFFCURVE",
"279 307 OFFCURVE",
"276 320 CURVE",
"276 323 OFFCURVE",
"274 325 OFFCURVE",
"272 326 CURVE SMOOTH",
"263 330 OFFCURVE",
"255 326 OFFCURVE",
"249 318 CURVE",
"246 310 OFFCURVE",
"248 306 OFFCURVE",
"252 301 CURVE",
"267 293 LINE",
"270 288 OFFCURVE",
"276 284 OFFCURVE",
"281 279 CURVE",
"283 281 OFFCURVE",
"284 282 OFFCURVE",
"288 284 CURVE",
"288 279 OFFCURVE",
"281 277 OFFCURVE",
"281 273 CURVE SMOOTH",
"281 271 OFFCURVE",
"281 271 OFFCURVE",
"283 271 CURVE",
"288 269 OFFCURVE",
"294 267 OFFCURVE",
"298 261 CURVE",
"304 258 OFFCURVE",
"308 254 OFFCURVE",
"315 250 CURVE SMOOTH",
"323 245 OFFCURVE",
"333 242 OFFCURVE",
"344 238 CURVE SMOOTH",
"364 233 OFFCURVE",
"383 231 OFFCURVE",
"403 233 CURVE SMOOTH"
);
},
{
closed = 1;
nodes = (
"493 262 OFFCURVE",
"491 264 OFFCURVE",
"489 269 CURVE",
"494 267 OFFCURVE",
"496 267 OFFCURVE",
"496 262 CURVE"
);
},
{
closed = 1;
nodes = (
"487 271 LINE",
"487 271 OFFCURVE",
"489 271 OFFCURVE",
"489 270 CURVE",
"487 270 LINE"
);
},
{
closed = 1;
nodes = (
"616 115 OFFCURVE",
"620 118 OFFCURVE",
"623 123 CURVE",
"618 127 OFFCURVE",
"612 128 OFFCURVE",
"608 132 CURVE",
"602 136 OFFCURVE",
"598 139 OFFCURVE",
"596 145 CURVE",
"606 143 OFFCURVE",
"616 145 OFFCURVE",
"628 143 CURVE SMOOTH",
"635 141 OFFCURVE",
"639 143 OFFCURVE",
"643 148 CURVE SMOOTH",
"645 151 OFFCURVE",
"645 155 OFFCURVE",
"646 159 CURVE",
"640 159 LINE SMOOTH",
"639 159 OFFCURVE",
"637 159 OFFCURVE",
"635 161 CURVE",
"627 166 OFFCURVE",
"620 171 OFFCURVE",
"610 178 CURVE SMOOTH",
"608 179 OFFCURVE",
"602 184 OFFCURVE",
"602 191 CURVE",
"602 191 OFFCURVE",
"602 192 OFFCURVE",
"600 192 CURVE",
"597 188 OFFCURVE",
"593 184 OFFCURVE",
"593 179 CURVE",
"606 175 OFFCURVE",
"627 161 OFFCURVE",
"630 154 CURVE",
"621 154 LINE SMOOTH",
"618 154 OFFCURVE",
"615 154 OFFCURVE",
"610 155 CURVE",
"603 155 OFFCURVE",
"597 157 OFFCURVE",
"589 157 CURVE SMOOTH",
"584 157 OFFCURVE",
"579 157 OFFCURVE",
"573 155 CURVE",
"573 151 OFFCURVE",
"576 151 OFFCURVE",
"579 150 CURVE",
"579 148 OFFCURVE",
"583 148 OFFCURVE",
"583 147 CURVE",
"588 138 OFFCURVE",
"596 135 OFFCURVE",
"602 128 CURVE",
"606 127 OFFCURVE",
"609 122 OFFCURVE",
"609 116 CURVE SMOOTH",
"609 115 OFFCURVE",
"610 113 OFFCURVE",
"610 109 CURVE"
);
},
{
closed = 1;
nodes = (
"237 510 LINE",
"248 517 OFFCURVE",
"258 523 OFFCURVE",
"269 529 CURVE",
"270 529 OFFCURVE",
"272 530 OFFCURVE",
"272 533 CURVE",
"270 536 OFFCURVE",
"272 543 OFFCURVE",
"267 547 CURVE",
"265 543 OFFCURVE",
"265 543 OFFCURVE",
"265 542 CURVE SMOOTH",
"263 535 OFFCURVE",
"258 530 OFFCURVE",
"255 527 CURVE SMOOTH",
"251 524 OFFCURVE",
"246 524 OFFCURVE",
"242 527 CURVE SMOOTH",
"238 530 OFFCURVE",
"237 535 OFFCURVE",
"233 537 CURVE",
"232 542 OFFCURVE",
"232 545 OFFCURVE",
"237 547 CURVE",
"244 547 LINE SMOOTH",
"246 547 OFFCURVE",
"248 545 OFFCURVE",
"249 545 CURVE",
"249 547 LINE SMOOTH",
"248 552 OFFCURVE",
"246 557 OFFCURVE",
"240 561 CURVE",
"237 556 OFFCURVE",
"236 550 OFFCURVE",
"228 547 CURVE",
"224 552 OFFCURVE",
"223 557 OFFCURVE",
"218 562 CURVE",
"226 572 OFFCURVE",
"237 570 OFFCURVE",
"248 573 CURVE",
"246 575 OFFCURVE",
"244 576 OFFCURVE",
"242 579 CURVE SMOOTH",
"240 581 OFFCURVE",
"238 582 OFFCURVE",
"237 581 CURVE",
"226 575 OFFCURVE",
"218 570 OFFCURVE",
"209 562 CURVE",
"207 562 OFFCURVE",
"205 559 OFFCURVE",
"203 557 CURVE",
"212 554 OFFCURVE",
"216 548 OFFCURVE",
"219 543 CURVE SMOOTH",
"223 537 OFFCURVE",
"224 533 OFFCURVE",
"228 529 CURVE SMOOTH",
"233 523 OFFCURVE",
"237 517 OFFCURVE",
"236 510 CURVE"
);
},
{
closed = 1;
nodes = (
"368 425 OFFCURVE",
"369 428 OFFCURVE",
"368 428 CURVE SMOOTH",
"366 428 OFFCURVE",
"366 432 OFFCURVE",
"362 434 CURVE SMOOTH",
"355 438 OFFCURVE",
"346 434 OFFCURVE",
"341 428 CURVE",
"346 425 OFFCURVE",
"352 423 OFFCURVE",
"355 430 CURVE SMOOTH",
"357 434 OFFCURVE",
"360 432 OFFCURVE",
"364 430 CURVE",
"364 428 OFFCURVE",
"366 428 OFFCURVE",
"368 423 CURVE"
);
},
{
closed = 1;
nodes = (
"398 404 OFFCURVE",
"396 407 OFFCURVE",
"393 411 CURVE",
"392 409 OFFCURVE",
"391 409 OFFCURVE",
"387 407 CURVE",
"387 411 OFFCURVE",
"389 415 OFFCURVE",
"391 415 CURVE SMOOTH",
"396 416 OFFCURVE",
"401 418 OFFCURVE",
"406 415 CURVE",
"406 409 OFFCURVE",
"404 405 OFFCURVE",
"401 405 CURVE"
);
},
{
closed = 1;
nodes = (
"525 303 LINE",
"517 320 OFFCURVE",
"503 332 OFFCURVE",
"487 339 CURVE",
"484 339 OFFCURVE",
"482 340 OFFCURVE",
"480 343 CURVE",
"482 344 OFFCURVE",
"486 345 OFFCURVE",
"487 344 CURVE",
"503 339 OFFCURVE",
"517 333 OFFCURVE",
"525 320 CURVE",
"525 314 OFFCURVE",
"530 310 OFFCURVE",
"532 307 CURVE SMOOTH",
"537 298 OFFCURVE",
"533 291 OFFCURVE",
"530 284 CURVE",
"530 284 OFFCURVE",
"527 284 OFFCURVE",
"525 282 CURVE"
);
},
{
closed = 1;
nodes = (
"385 423 LINE SMOOTH",
"385 425 OFFCURVE",
"387 425 OFFCURVE",
"387 425 CURVE",
"391 425 OFFCURVE",
"392 425 OFFCURVE",
"393 428 CURVE SMOOTH",
"396 434 OFFCURVE",
"401 432 OFFCURVE",
"404 428 CURVE",
"404 428 OFFCURVE",
"406 425 OFFCURVE",
"410 423 CURVE",
"401 420 OFFCURVE",
"392 422 OFFCURVE",
"385 422 CURVE"
);
},
{
closed = 1;
nodes = (
"662 184 OFFCURVE",
"664 186 OFFCURVE",
"666 187 CURVE",
"666 191 OFFCURVE",
"667 194 OFFCURVE",
"669 198 CURVE",
"672 208 OFFCURVE",
"676 217 OFFCURVE",
"680 225 CURVE",
"680 227 OFFCURVE",
"678 227 OFFCURVE",
"678 227 CURVE",
"674 223 OFFCURVE",
"669 223 OFFCURVE",
"664 225 CURVE",
"658 230 OFFCURVE",
"653 230 OFFCURVE",
"647 231 CURVE",
"643 233 OFFCURVE",
"639 235 OFFCURVE",
"633 236 CURVE",
"632 238 OFFCURVE",
"630 240 OFFCURVE",
"627 242 CURVE",
"627 243 OFFCURVE",
"625 243 OFFCURVE",
"623 245 CURVE",
"618 231 OFFCURVE",
"610 217 OFFCURVE",
"606 203 CURVE",
"609 199 OFFCURVE",
"610 194 OFFCURVE",
"618 194 CURVE",
"618 198 OFFCURVE",
"618 198 OFFCURVE",
"616 199 CURVE",
"615 206 OFFCURVE",
"615 211 OFFCURVE",
"616 219 CURVE",
"620 225 OFFCURVE",
"623 227 OFFCURVE",
"632 225 CURVE",
"633 224 OFFCURVE",
"635 224 OFFCURVE",
"637 224 CURVE",
"640 223 OFFCURVE",
"643 221 OFFCURVE",
"645 221 CURVE",
"645 211 OFFCURVE",
"639 208 OFFCURVE",
"632 206 CURVE",
"640 201 OFFCURVE",
"640 199 OFFCURVE",
"647 201 CURVE",
"647 206 OFFCURVE",
"649 211 OFFCURVE",
"649 219 CURVE",
"657 217 OFFCURVE",
"662 213 OFFCURVE",
"669 211 CURVE",
"667 208 OFFCURVE",
"666 205 OFFCURVE",
"664 201 CURVE",
"664 198 OFFCURVE",
"659 194 OFFCURVE",
"657 191 CURVE",
"653 188 OFFCURVE",
"649 187 OFFCURVE",
"647 186 CURVE",
"652 186 OFFCURVE",
"655 186 OFFCURVE",
"658 184 CURVE"
);
},
{
closed = 1;
nodes = (
"276 593 LINE",
"277 593 LINE",
"277 593 OFFCURVE",
"276 593 OFFCURVE",
"276 591 CURVE"
);
},
{
closed = 1;
nodes = (
"294 542 OFFCURVE",
"302 545 OFFCURVE",
"313 548 CURVE",
"316 550 OFFCURVE",
"320 552 OFFCURVE",
"321 556 CURVE",
"327 564 OFFCURVE",
"331 573 OFFCURVE",
"325 582 CURVE",
"325 584 LINE SMOOTH",
"323 596 OFFCURVE",
"313 601 OFFCURVE",
"304 605 CURVE SMOOTH",
"298 607 OFFCURVE",
"292 605 OFFCURVE",
"286 603 CURVE SMOOTH",
"279 601 OFFCURVE",
"272 598 OFFCURVE",
"263 594 CURVE",
"265 593 OFFCURVE",
"265 591 OFFCURVE",
"265 591 CURVE",
"272 585 OFFCURVE",
"276 579 OFFCURVE",
"279 570 CURVE",
"279 564 OFFCURVE",
"281 559 OFFCURVE",
"283 554 CURVE SMOOTH",
"284 550 OFFCURVE",
"286 545 OFFCURVE",
"283 542 CURVE",
"283 537 LINE"
);
},
{
closed = 1;
nodes = (
"296 556 OFFCURVE",
"292 559 OFFCURVE",
"292 562 CURVE",
"288 572 OFFCURVE",
"286 579 OFFCURVE",
"283 587 CURVE",
"277 593 LINE",
"284 596 OFFCURVE",
"289 600 OFFCURVE",
"296 598 CURVE",
"304 598 OFFCURVE",
"308 593 OFFCURVE",
"311 587 CURVE",
"315 582 OFFCURVE",
"316 575 OFFCURVE",
"316 570 CURVE",
"318 561 OFFCURVE",
"315 556 OFFCURVE",
"306 552 CURVE",
"304 552 OFFCURVE",
"300 552 OFFCURVE",
"296 550 CURVE"
);
},
{
closed = 1;
nodes = (
"685 249 OFFCURVE",
"686 254 OFFCURVE",
"688 261 CURVE",
"680 261 OFFCURVE",
"672 258 OFFCURVE",
"666 264 CURVE",
"667 271 OFFCURVE",
"669 279 OFFCURVE",
"671 286 CURVE",
"676 286 OFFCURVE",
"681 288 OFFCURVE",
"686 282 CURVE",
"688 281 OFFCURVE",
"691 282 OFFCURVE",
"692 284 CURVE",
"692 301 LINE",
"686 296 OFFCURVE",
"681 296 OFFCURVE",
"676 296 CURVE SMOOTH",
"669 296 OFFCURVE",
"659 298 OFFCURVE",
"653 300 CURVE",
"647 300 OFFCURVE",
"643 301 OFFCURVE",
"639 306 CURVE",
"637 307 OFFCURVE",
"635 307 OFFCURVE",
"633 308 CURVE",
"632 303 OFFCURVE",
"632 298 OFFCURVE",
"632 295 CURVE",
"630 289 OFFCURVE",
"632 288 OFFCURVE",
"637 289 CURVE",
"639 291 OFFCURVE",
"643 291 OFFCURVE",
"645 291 CURVE",
"649 289 OFFCURVE",
"655 288 OFFCURVE",
"659 286 CURVE",
"659 281 OFFCURVE",
"658 273 OFFCURVE",
"658 267 CURVE",
"647 267 OFFCURVE",
"637 267 OFFCURVE",
"630 275 CURVE",
"627 270 OFFCURVE",
"627 267 OFFCURVE",
"627 261 CURVE",
"625 256 OFFCURVE",
"627 256 OFFCURVE",
"632 256 CURVE",
"635 258 OFFCURVE",
"637 258 OFFCURVE",
"640 258 CURVE",
"666 252 LINE",
"671 252 OFFCURVE",
"674 250 OFFCURVE",
"678 247 CURVE SMOOTH",
"680 245 OFFCURVE",
"681 245 OFFCURVE",
"683 243 CURVE"
);
},
{
closed = 1;
nodes = (
"352 589 OFFCURVE",
"355 591 OFFCURVE",
"355 594 CURVE",
"353 600 OFFCURVE",
"352 603 OFFCURVE",
"347 603 CURVE SMOOTH",
"344 603 OFFCURVE",
"341 600 OFFCURVE",
"341 594 CURVE SMOOTH",
"341 591 OFFCURVE",
"344 589 OFFCURVE",
"347 589 CURVE SMOOTH"
);
},
{
closed = 1;
nodes = (
"331 642 OFFCURVE",
"332 644 OFFCURVE",
"332 645 CURVE",
"333 642 OFFCURVE",
"331 642 OFFCURVE",
"331 642 CURVE"
);
},
{
closed = 1;
nodes = (
"379 561 OFFCURVE",
"383 561 OFFCURVE",
"391 561 CURVE",
"385 566 OFFCURVE",
"387 572 OFFCURVE",
"391 575 CURVE",
"392 582 OFFCURVE",
"398 582 OFFCURVE",
"403 582 CURVE SMOOTH",
"410 582 LINE",
"411 579 OFFCURVE",
"411 575 OFFCURVE",
"413 572 CURVE",
"413 561 LINE",
"418 559 OFFCURVE",
"423 557 OFFCURVE",
"429 559 CURVE",
"428 564 OFFCURVE",
"423 570 OFFCURVE",
"422 575 CURVE SMOOTH",
"420 585 OFFCURVE",
"417 596 OFFCURVE",
"413 605 CURVE",
"413 608 OFFCURVE",
"413 610 OFFCURVE",
"411 612 CURVE",
"413 612 OFFCURVE",
"416 613 OFFCURVE",
"416 612 CURVE",
"422 612 OFFCURVE",
"428 608 OFFCURVE",
"435 605 CURVE",
"432 610 OFFCURVE",
"430 615 OFFCURVE",
"428 620 CURVE",
"383 620 LINE SMOOTH",
"376 620 OFFCURVE",
"374 618 OFFCURVE",
"376 610 CURVE",
"387 613 OFFCURVE",
"389 613 OFFCURVE",
"393 612 CURVE",
"393 608 OFFCURVE",
"392 603 OFFCURVE",
"389 600 CURVE",
"389 598 OFFCURVE",
"387 596 OFFCURVE",
"387 594 CURVE",
"383 582 OFFCURVE",
"380 572 OFFCURVE",
"371 559 CURVE"
);
},
{
closed = 1;
nodes = (
"357 644 LINE",
"360 644 LINE",
"359 642 LINE"
);
},
{
closed = 1;
nodes = (
"404 589 OFFCURVE",
"399 589 OFFCURVE",
"393 591 CURVE",
"396 593 OFFCURVE",
"396 596 OFFCURVE",
"396 598 CURVE",
"398 601 OFFCURVE",
"398 607 OFFCURVE",
"399 610 CURVE",
"399 610 OFFCURVE",
"401 612 OFFCURVE",
"403 613 CURVE",
"404 605 OFFCURVE",
"406 596 OFFCURVE",
"410 589 CURVE"
);
},
{
closed = 1;
nodes = (
"646 320 OFFCURVE",
"653 318 OFFCURVE",
"662 323 CURVE SMOOTH",
"666 325 OFFCURVE",
"667 326 OFFCURVE",
"669 332 CURVE",
"669 356 LINE",
"671 362 OFFCURVE",
"672 362 OFFCURVE",
"678 362 CURVE",
"681 359 OFFCURVE",
"685 355 OFFCURVE",
"685 349 CURVE",
"683 344 OFFCURVE",
"683 339 OFFCURVE",
"680 333 CURVE",
"680 330 LINE",
"691 335 OFFCURVE",
"692 337 OFFCURVE",
"692 347 CURVE SMOOTH",
"692 349 OFFCURVE",
"692 353 OFFCURVE",
"691 355 CURVE SMOOTH",
"686 367 OFFCURVE",
"685 368 OFFCURVE",
"674 367 CURVE SMOOTH",
"669 367 LINE SMOOTH",
"664 367 OFFCURVE",
"662 364 OFFCURVE",
"659 358 CURVE SMOOTH",
"657 351 OFFCURVE",
"655 344 OFFCURVE",
"655 337 CURVE SMOOTH",
"655 333 LINE SMOOTH",
"655 330 OFFCURVE",
"652 328 OFFCURVE",
"647 328 CURVE SMOOTH",
"645 328 OFFCURVE",
"643 330 OFFCURVE",
"640 333 CURVE",
"640 340 OFFCURVE",
"639 345 OFFCURVE",
"643 351 CURVE SMOOTH",
"645 353 OFFCURVE",
"645 356 OFFCURVE",
"645 358 CURVE",
"643 359 OFFCURVE",
"640 359 OFFCURVE",
"639 359 CURVE SMOOTH",
"632 358 OFFCURVE",
"630 355 OFFCURVE",
"630 347 CURVE SMOOTH",
"630 335 LINE",
"632 332 OFFCURVE",
"633 325 OFFCURVE",
"637 323 CURVE SMOOTH"
);
},
{
closed = 1;
nodes = (
"364 647 OFFCURVE",
"364 649 OFFCURVE",
"362 649 CURVE",
"364 649 LINE",
"364 651 OFFCURVE",
"366 649 OFFCURVE",
"366 649 CURVE",
"366 649 OFFCURVE",
"366 647 OFFCURVE",
"364 647 CURVE"
);
},
{
closed = 1;
nodes = (
"393 647 OFFCURVE",
"396 645 OFFCURVE",
"398 645 CURVE",
"396 644 OFFCURVE",
"393 644 OFFCURVE",
"392 644 CURVE"
);
},
{
closed = 1;
nodes = (
"630 367 OFFCURVE",
"632 368 OFFCURVE",
"632 368 CURVE",
"633 374 OFFCURVE",
"637 379 OFFCURVE",
"643 383 CURVE SMOOTH",
"647 386 OFFCURVE",
"653 392 OFFCURVE",
"657 395 CURVE SMOOTH",
"658 396 OFFCURVE",
"658 399 OFFCURVE",
"659 399 CURVE",
"664 403 OFFCURVE",
"666 405 OFFCURVE",
"671 407 CURVE",
"674 401 OFFCURVE",
"669 393 OFFCURVE",
"672 386 CURVE",
"676 386 LINE",
"683 392 OFFCURVE",
"683 393 OFFCURVE",
"681 403 CURVE",
"680 405 OFFCURVE",
"680 409 OFFCURVE",
"678 413 CURVE SMOOTH",
"674 420 OFFCURVE",
"671 428 OFFCURVE",
"669 438 CURVE",
"667 441 OFFCURVE",
"666 442 OFFCURVE",
"662 442 CURVE SMOOTH",
"658 442 OFFCURVE",
"655 442 OFFCURVE",
"653 441 CURVE",
"657 435 OFFCURVE",
"662 430 OFFCURVE",
"666 425 CURVE",
"664 423 OFFCURVE",
"662 423 OFFCURVE",
"662 423 CURVE",
"640 423 LINE SMOOTH",
"639 423 OFFCURVE",
"635 425 OFFCURVE",
"633 425 CURVE",
"625 423 OFFCURVE",
"616 422 OFFCURVE",
"609 428 CURVE",
"608 420 OFFCURVE",
"610 415 OFFCURVE",
"615 411 CURVE",
"618 413 OFFCURVE",
"621 415 OFFCURVE",
"625 415 CURVE SMOOTH",
"628 415 OFFCURVE",
"632 413 OFFCURVE",
"633 411 CURVE",
"637 411 OFFCURVE",
"640 399 OFFCURVE",
"639 396 CURVE",
"637 393 OFFCURVE",
"635 392 OFFCURVE",
"633 390 CURVE SMOOTH",
"630 388 OFFCURVE",
"627 388 OFFCURVE",
"623 388 CURVE",
"623 376 OFFCURVE",
"625 368 OFFCURVE",
"630 365 CURVE"
);
},
{
closed = 1;
nodes = (
"404 642 OFFCURVE",
"404 644 OFFCURVE",
"404 644 CURVE",
"404 645 OFFCURVE",
"404 645 OFFCURVE",
"406 645 CURVE",
"408 644 LINE",
"406 644 OFFCURVE",
"406 642 OFFCURVE",
"406 642 CURVE"
);
},
{
closed = 1;
nodes = (
"463 554 OFFCURVE",
"463 559 OFFCURVE",
"465 562 CURVE",
"468 573 OFFCURVE",
"472 585 OFFCURVE",
"474 596 CURVE SMOOTH",
"474 598 OFFCURVE",
"475 600 OFFCURVE",
"475 601 CURVE",
"478 600 OFFCURVE",
"484 600 OFFCURVE",
"486 598 CURVE SMOOTH",
"489 596 OFFCURVE",
"491 593 OFFCURVE",
"494 589 CURVE",
"500 598 OFFCURVE",
"498 601 OFFCURVE",
"489 605 CURVE",
"480 607 OFFCURVE",
"472 610 OFFCURVE",
"463 612 CURVE SMOOTH",
"459 613 OFFCURVE",
"455 613 OFFCURVE",
"452 613 CURVE",
"450 615 OFFCURVE",
"449 613 OFFCURVE",
"447 613 CURVE",
"445 612 OFFCURVE",
"445 610 OFFCURVE",
"443 608 CURVE",
"441 607 OFFCURVE",
"441 603 OFFCURVE",
"445 603 CURVE",
"450 605 OFFCURVE",
"455 608 OFFCURVE",
"461 605 CURVE",
"463 607 OFFCURVE",
"465 608 OFFCURVE",
"466 608 CURVE",
"466 603 LINE",
"463 594 OFFCURVE",
"459 585 OFFCURVE",
"457 576 CURVE",
"455 573 OFFCURVE",
"455 570 OFFCURVE",
"454 568 CURVE",
"454 562 OFFCURVE",
"450 557 OFFCURVE",
"445 556 CURVE",
"452 552 OFFCURVE",
"457 552 OFFCURVE",
"463 550 CURVE"
);
},
{
closed = 1;
nodes = (
"646 405 OFFCURVE",
"645 409 OFFCURVE",
"645 415 CURVE",
"655 415 LINE SMOOTH",
"657 415 OFFCURVE",
"658 415 OFFCURVE",
"662 416 CURVE",
"662 411 OFFCURVE",
"658 411 OFFCURVE",
"657 409 CURVE SMOOTH",
"655 405 OFFCURVE",
"652 404 OFFCURVE",
"649 403 CURVE"
);
},
{
closed = 1;
nodes = (
"513 561 OFFCURVE",
"513 564 OFFCURVE",
"513 568 CURVE SMOOTH",
"513 572 OFFCURVE",
"513 573 OFFCURVE",
"506 573 CURVE SMOOTH",
"501 573 OFFCURVE",
"500 572 OFFCURVE",
"500 566 CURVE SMOOTH",
"500 564 OFFCURVE",
"503 561 OFFCURVE",
"508 561 CURVE SMOOTH"
);
},
{
closed = 1;
nodes = (
"627 450 OFFCURVE",
"627 450 OFFCURVE",
"630 452 CURVE",
"630 453 OFFCURVE",
"628 453 OFFCURVE",
"628 454 CURVE",
"632 454 LINE",
"635 457 OFFCURVE",
"635 459 OFFCURVE",
"633 460 CURVE",
"632 464 OFFCURVE",
"628 464 OFFCURVE",
"625 464 CURVE",
"621 460 LINE",
"621 459 LINE",
"621 459 OFFCURVE",
"623 459 OFFCURVE",
"625 457 CURVE",
"625 454 OFFCURVE",
"623 453 OFFCURVE",
"623 452 CURVE"
);
},
{
closed = 1;
nodes = (
"596 464 OFFCURVE",
"598 466 OFFCURVE",
"603 467 CURVE",
"602 471 OFFCURVE",
"598 471 OFFCURVE",
"597 469 CURVE",
"593 469 OFFCURVE",
"589 471 OFFCURVE",
"588 473 CURVE",
"581 476 OFFCURVE",
"577 481 OFFCURVE",
"573 487 CURVE",
"573 487 OFFCURVE",
"573 490 OFFCURVE",
"576 492 CURVE",
"579 496 OFFCURVE",
"583 499 OFFCURVE",
"586 503 CURVE",
"589 499 OFFCURVE",
"596 496 OFFCURVE",
"593 488 CURVE",
"596 487 LINE",
"597 486 OFFCURVE",
"598 487 OFFCURVE",
"600 487 CURVE",
"602 490 OFFCURVE",
"606 494 OFFCURVE",
"608 496 CURVE",
"606 499 OFFCURVE",
"603 500 OFFCURVE",
"600 503 CURVE",
"596 505 OFFCURVE",
"593 506 OFFCURVE",
"596 510 CURVE",
"597 513 OFFCURVE",
"603 520 OFFCURVE",
"608 520 CURVE",
"608 520 OFFCURVE",
"608 518 OFFCURVE",
"609 518 CURVE",
"615 512 OFFCURVE",
"623 505 OFFCURVE",
"620 494 CURVE",
"618 492 OFFCURVE",
"618 488 OFFCURVE",
"621 487 CURVE",
"623 490 OFFCURVE",
"625 494 OFFCURVE",
"627 498 CURVE SMOOTH",
"630 503 OFFCURVE",
"630 505 OFFCURVE",
"625 510 CURVE SMOOTH",
"618 517 OFFCURVE",
"610 524 OFFCURVE",
"603 533 CURVE",
"598 536 LINE",
"596 527 OFFCURVE",
"596 527 OFFCURVE",
"586 518 CURVE",
"584 515 OFFCURVE",
"581 513 OFFCURVE",
"577 510 CURVE",
"572 503 OFFCURVE",
"567 496 OFFCURVE",
"554 496 CURVE",
"558 492 LINE SMOOTH",
"563 486 OFFCURVE",
"569 479 OFFCURVE",
"573 473 CURVE",
"577 469 OFFCURVE",
"581 467 OFFCURVE",
"583 464 CURVE SMOOTH",
"586 460 OFFCURVE",
"588 460 OFFCURVE",
"591 462 CURVE SMOOTH"
);
},
{
closed = 1;
nodes = (
"535 523 LINE",
"538 529 OFFCURVE",
"542 536 OFFCURVE",
"550 537 CURVE SMOOTH",
"552 537 LINE",
"563 542 OFFCURVE",
"573 547 OFFCURVE",
"584 547 CURVE",
"584 547 OFFCURVE",
"584 548 OFFCURVE",
"586 548 CURVE",
"581 552 OFFCURVE",
"579 557 OFFCURVE",
"573 557 CURVE",
"570 556 OFFCURVE",
"567 552 OFFCURVE",
"563 550 CURVE SMOOTH",
"560 548 OFFCURVE",
"554 547 OFFCURVE",
"550 545 CURVE",
"545 545 LINE",
"545 556 OFFCURVE",
"545 564 OFFCURVE",
"550 573 CURVE",
"545 576 OFFCURVE",
"540 581 OFFCURVE",
"533 585 CURVE",
"535 579 OFFCURVE",
"535 575 OFFCURVE",
"535 570 CURVE SMOOTH",
"535 545 LINE SMOOTH",
"535 537 OFFCURVE",
"530 533 OFFCURVE",
"525 527 CURVE",
"525 525 OFFCURVE",
"521 525 OFFCURVE",
"519 525 CURVE",
"519 525 OFFCURVE",
"517 525 OFFCURVE",
"515 524 CURVE",
"523 520 OFFCURVE",
"527 515 OFFCURVE",
"535 513 CURVE"
);
}
);
width = 776;
}
);
},
